<svg viewBox="0 0 1000 270.5" fill="#100e0f" xmlns="http://www.w3.org/2000/svg">
  <path d="M192.605 115.748h-84.033c-2.168 0-3.927 1.76-3.927 3.929v41.084c0 2.167 1.759 3.933 3.927 3.933h32.781v51.044c0 0-7.361 2.509-27.71 2.509c-24.009 0-57.547-8.772-57.547-82.523c0-73.765 34.923-83.471 67.71-83.471c28.381 0 40.608 4.997 48.389 7.405c2.444 0.748 4.706-1.686 4.706-3.854l9.375-39.697c0-1.016-0.344-2.238-1.501-3.067C181.614 10.786 162.338 0 113.643 0C57.543 0 0 23.867 0 138.601c0 114.736 65.882 131.834 121.4 131.834c45.969 0 73.855-19.644 73.855-19.644c1.149-0.634 1.272-2.241 1.272-2.977V119.677C196.529 117.508 194.772 115.748 192.605 115.748"/>
  <ellipse cx="251.4" cy="46.2" rx="30.5" ry="30.8"/>
  <path d="M279 209.109c0-6.344 0-114.288 0-114.288c0-2.17-2.245-3.821-4.408-3.821h-47.167c-2.164 0-4.425 2.108-4.425 4.278c0 0 0 137.524 0 163.74c0 4.811 3.325 5.981 7.205 5.981c0 0 20.131 0 42.495 0c4.663 0 6.3-2.028 6.3-6.059C279 250.165 279 215.783 279 209.109"/>
  <path d="M414.493 90.854H379c0 0-0.053-46.878-0.053-46.889c0-1.775-0.915-2.662-2.967-2.662h-48.366c-1.881 0-2.889 0.828-2.889 2.634v48.454c0 0-24.24 5.852-25.878 6.324c-1.631 0.474-2.833 1.979-2.833 3.774v30.448c0 2.19 1.749 3.956 3.912 3.956h24.799c0 0 0 31.846 0 73.252c0 54.408 38.163 59.751 63.915 59.751c11.769 0 25.844-3.778 28.168-4.636c1.405-0.517 2.223-1.973 2.223-3.55l0.039-33.496c0-2.184-1.845-3.953-3.923-3.953c-2.068 0-7.359 0.842-12.807 0.842c-17.434 0-23.341-8.105-23.341-18.598c0-10.484-0.002-69.612-0.002-69.612h35.494c2.164 0 3.917-1.766 3.917-3.956V94.799C418.41 92.614 416.657 90.854 414.493 90.854"/>
  <path d="M625.671 13.747c0-2.186-1.733-3.95-3.9-3.95h-47.315c-2.161 0-3.918 1.764-3.918 3.95c0 0.01 0.012 91.438 0.012 91.438h-73.752V13.747c0-2.186-1.74-3.95-3.904-3.95h-47.312c-2.153 0-3.908 1.764-3.908 3.95v247.589c0 2.184 1.755 3.961 3.908 3.961h47.312c2.164 0 3.904-1.777 3.904-3.961V155.434h73.752c0 0-0.128 105.895-0.128 105.903c0 2.184 1.755 3.961 3.919 3.961h47.427c2.167 0 3.899-1.777 3.904-3.961V13.747"/>
  <path d="M805.491 91.249h-46.953c-2.153 0-3.906 1.776-3.906 3.959v121.4c0 0-11.928 8.728-28.858 8.728c-16.929 0-21.423-7.682-21.423-24.259c0-16.597 0-105.869 0-105.869c0-2.183-1.749-3.959-3.904-3.959h-47.652c-2.151 0-3.912 1.776-3.912 3.959c0 0 0 64.65 0 113.885c0 49.238 27.441 61.285 65.192 61.285c30.97 0 55.94-17.11 55.94-17.11s1.19 9.017 1.728 10.086c0.538 1.066 1.939 2.143 3.454 2.143l30.315-0.134c2.151 0 3.912-1.777 3.912-3.953L809.41 95.208C809.41 93.025 807.655 91.249 805.491 91.249"/>
  <path d="M933.819 85.688c-26.667 0-44.806 11.898-44.806 11.898V13.747c0-2.186-1.746-3.95-3.903-3.95h-47.449c-2.158 0-3.91 1.764-3.91 3.95v247.589c0 2.184 1.752 3.961 3.916 3.961c0.004 0 32.91 0 32.92 0c1.482 0 2.604-0.765 3.435-2.103c0.817-1.33 1.999-11.416 1.999-11.416s19.401 18.387 56.131 18.387c43.12 0 67.85-21.872 67.85-98.188C1000 95.661 960.506 85.688 933.819 85.688zM915.3 225.186c-16.286-0.496-27.332-7.886-27.332-7.886v-78.407c0 0 10.897-6.679 24.268-7.874c16.908-1.514 33.2 3.593 33.2 43.927C945.436 217.479 938.083 225.873 915.3 225.186"/>
</svg>
