<svg viewBox="-175 -184.5 350 369" xmlns="http://www.w3.org/2000/svg" xmlns:xlink="http://www.w3.org/1999/xlink">
 <defs>
  <path id="a" d="m20.236-35.042c-6.036-7.075-12.847-13.246-20.233-18.459-7.386 5.214-14.198 11.384-20.233 18.46 6.561-1.212 13.322-1.852 20.233-1.852s13.673 0.639 20.233 1.851"/>
  <path id="b" d="m20.236-35.042c9.145 1.689 17.895 4.503 26.103 8.293 1.386-15.171-.396-30.391-5.089-44.69-14.73 3.086-28.802 9.152-41.247 17.938 7.386 5.213 14.197 11.384 20.233 18.459"/>
  <path id="c" d="m41.25-71.439c-7.205-21.956-21.268-41.735-41.247-55.829-19.979 14.093-34.042 33.873-41.247 55.829 14.73 3.086 28.802 9.152 41.247 17.938 12.445-8.787 26.517-14.853 41.247-17.938"/>
  <path id="d" d="m8.564-132.752c-2.966 1.712-5.816 3.547-8.562 5.484 19.979 14.093 34.042 33.873 41.247 55.829 22.617-4.738 46.778-2.449 68.973 7.807 0.304-3.345 0.468-6.731 0.468-10.156 0-27.459-10.003-52.579-26.558-71.925-25.031-4.665-51.787-.768-75.568 12.961"/>
  <circle id="e" r="110.6" cy="-73.9"/>
 </defs>
 <use xlink:href="#e" fill="#f8df92" transform="rotate(300)"/>
 <use xlink:href="#e" fill="#b99e89" transform="rotate(240)"/>
 <use xlink:href="#e" fill="#dbc2a6" transform="rotate(60)"/>
 <use xlink:href="#e" fill="#f4777c" transform="rotate(120)"/>
 <use xlink:href="#e" fill="#e8779d" transform="rotate(180)"/>
 <use xlink:href="#e" fill="#67b8d9"/>
 <rect fill="#37100d" x="-70" y="-40" width="140" height="80"/>
 <use xlink:href="#d" fill="#588b8d"/>
 <use xlink:href="#c" fill="#567a50"/>
 <use xlink:href="#b" fill="#533928"/>
 <use xlink:href="#a" fill="#3c2315"/>
 <g transform="rotate(60)">
  <use xlink:href="#d" fill="#d25a51"/>
  <use xlink:href="#c" fill="#554145"/>
  <use xlink:href="#b" fill="#4d1e2b"/>
  <use xlink:href="#a" fill="#4b1a18"/>
 </g>
 <g transform="rotate(120)">
  <use xlink:href="#d" fill="#de374c"/>
  <use xlink:href="#c" fill="#bf2a32"/>
  <use xlink:href="#b" fill="#8a1a1b"/>
  <use xlink:href="#a" fill="#381317"/>
 </g>
 <g transform="rotate(180)">
  <use xlink:href="#d" fill="#a84954"/>
  <use xlink:href="#c" fill="#a12229"/>
  <use xlink:href="#b" fill="#9d1e18"/>
  <use xlink:href="#a" fill="#87170f"/>
 </g>
 <g transform="rotate(240)">
  <use xlink:href="#d" fill="#b48a4f"/>
  <use xlink:href="#c" fill="#a34031"/>
  <use xlink:href="#b" fill="#422e29"/>
  <use xlink:href="#a" fill="#3f1514"/>
 </g>
 <g transform="rotate(300)">
  <use xlink:href="#d" fill="#64a17c"/>
  <use xlink:href="#c" fill="#486443"/>
  <use xlink:href="#b" fill="#3f4b2b"/>
  <use xlink:href="#a" fill="#38231b"/>
 </g>
 <path id="l" fill="#fff" d="M23-30A61.5 61.5 0 1 1-6.53-56.44 68 68 0 0 0-25.855-37.1725 38 38 0 1 0 3.8325-15.595 32 32 0 0 1 23-30"/>
 <use xlink:href="#l" transform="rotate(180 .2 .4)"/>
</svg>

