<!-- larger viewBox so we can use integer coordinates -->
<svg viewBox="-3160 -3340 6330 6680" xmlns="http://www.w3.org/2000/svg" xmlns:xlink="http://www.w3.org/1999/xlink" _width="6330" _height="6680" _x="-3160" _y="-3340">

 <!-- polygon corner coords picked out, to connect with arcs -->
 <defs>
  <circle id="e" r="2e3" cy="-1340"/>
  <path id="d" _points="0-2299 742-1286 1991-1150 1522-2637"
        d="M0-2299A
2e3 2e3 0 0 1 742-1286
2e3 2e3 0 0 1 1991-1150
2e3 2e3 0 0 0 1522-2637
2e3 2e3 0 0 0 0-2299
"/>
  <path id="c" _points="0-2299 742-1286 0-959 -742-1286"
        d="M0-2299A
2e3 2e3 0 0 1 742-1286
2e3 2e3 0 0 0 0-959
2e3 2e3 0 0 0 -742-1286
2e3 2e3 0 0 1 0-2299
"/>
  <path id="b" _points="0-959 362-627 831-480 742-1286"
        d="M0-959A
2e3 2e3 0 0 1 362-627
2e3 2e3 0 0 1 831-480
2e3 2e3 0 0 0 742-1286
2e3 2e3 0 0 0 0-959
"/>
  <path id="a" _points="0-959 362-627 -362-627"
        d="M0-959A
2e3 2e3 0 0 1 362-627
2e3 2e3 0 0 0 -362-627
2e3 2e3 0 0 1 0-959
"/>
 </defs>

 <!-- all the original colours and intersection segments -->
 <use xlink:href="#e" fill="#f8df92" transform="rotate(300)"/>
 <use xlink:href="#e" fill="#b99e89" transform="rotate(240)"/>
 <use xlink:href="#e" fill="#dbc2a6" transform="rotate(60)"/>
 <use xlink:href="#e" fill="#f4777c" transform="rotate(120)"/>
 <use xlink:href="#e" fill="#e8779d" transform="rotate(180)"/>
 <use xlink:href="#e" fill="#67b8d9"/>
 <rect fill="#37100d" x="-725" y="-660" width="1450" height="1320"/>
 <use xlink:href="#d" fill="#588b8d"/>
 <use xlink:href="#c" fill="#567a50"/>
 <use xlink:href="#b" fill="#533928"/>
 <use xlink:href="#a" fill="#3c2315"/>
 <g transform="rotate(60)">
  <use xlink:href="#d" fill="#d25a51"/>
  <use xlink:href="#c" fill="#554145"/>
  <use xlink:href="#b" fill="#4d1e2b"/>
  <use xlink:href="#a" fill="#4b1a18"/>
 </g>
 <g transform="rotate(120)">
  <use xlink:href="#d" fill="#de374c"/>
  <use xlink:href="#c" fill="#bf2a32"/>
  <use xlink:href="#b" fill="#8a1a1b"/>
  <use xlink:href="#a" fill="#381317"/>
 </g>
 <g transform="rotate(180)">
  <use xlink:href="#d" fill="#a84954"/>
  <use xlink:href="#c" fill="#a12229"/>
  <use xlink:href="#b" fill="#9d1e18"/>
  <use xlink:href="#a" fill="#87170f"/>
 </g>
 <g transform="rotate(240)">
  <use xlink:href="#d" fill="#b48a4f"/>
  <use xlink:href="#c" fill="#a34031"/>
  <use xlink:href="#b" fill="#422e29"/>
  <use xlink:href="#a" fill="#3f1514"/>
 </g>
 <g transform="rotate(300)">
  <use xlink:href="#d" fill="#64a17c"/>
  <use xlink:href="#c" fill="#486443"/>
  <use xlink:href="#b" fill="#3f4b2b"/>
  <use xlink:href="#a" fill="#38231b"/>
 </g>

<!-- initial chain links, scaled up -->
<path fill="#fff" d="M410.606-543.146C710.526-10.029,521.478,665.285-11.64,965.205
	c-533.122,299.915-1208.436,110.866-1508.35-422.252C-1819.909,9.831-1630.86-665.478-1097.737-965.396
	c299.519-168.5,660.288-188.422,976.535-53.912c-138.267,90.953-256.661,209.001-348.028,346.993
	c-375.031-46.951-717.112,219.014-764.058,594.041c-46.945,375.034,219.022,717.112,594.05,764.058
	c375.025,46.945,717.106-219.014,764.052-594.048c16.055-128.252-4.535-258.428-59.396-375.457
	C142.513-411.665,266.271-504.679,410.606-543.146"/>
<path fill="#fff" d="M-410.613,551.816C-710.527,18.692-521.479-656.615,11.64-956.535
	c533.123-299.92,1208.428-110.871,1508.351,422.252C1819.909-1.162,1630.86,674.148,1097.735,974.066
	c-299.518,168.499-660.285,188.417-976.535,53.912c138.266-90.959,256.656-209,348.029-346.992
	c375.027,46.945,717.105-219.02,764.057-594.048c46.945-375.027-219.02-717.107-594.047-764.057
        C264.212-724.064-77.866-458.099-124.817-83.072c-16.057,128.252,4.541,258.428,59.4,375.464
        C-142.513,420.335-266.277,513.343-410.613,551.816"/>

<!-- hand fitting the radii to tidy integers, given this scale -->
<g opacity="0.2">
 <circle fill="#000" cx="-555" r="1220" opacity=".8"/>
 <circle fill="#fff" cx="-555" r="1110"/>
 <circle fill="#ccc" cx="-555" r="666"/>
 <circle fill="#000" cx="-555" r="577" opacity=".2"/>
</g>
<!-- our original chain link path:
 <path id="l" fill="#fff" d="M23-30A61.5 61.5 0 1 1-6.53-56.44 68 68 0 0 0-25.855-37.1725 38 38 0 1 0 3.8325-15.595 32 32 0 0 1 23-30"/>
 <use xlink:href="#l" transform="rotate(180 .2 .4)"/>
-->
</svg>
