<svg viewBox="-3160 -3340 6330 6680" xmlns="http://www.w3.org/2000/svg" xmlns:xlink="http://www.w3.org/1999/xlink">
 <defs>
  <circle id="e" r="2e3" cy="-1340"/>
  <path id="d" _points="0-2299 742-1286 1991-1150 1522-2637"
        d="M0-2299
L742-1286A
2e3 2e3 0 0 1 1991-1150
2e3 2e3 0 0 0 1522-2637
2e3 2e3 0 0 0 0-2299
"/>
  <path id="c" _points="0-2299 742-1286 0-959 -742-1286"
        d="M0-2299A
2e3 2e3 0 0 1 742-1286
L0-959A
2e3 2e3 0 0 0 -742-1286
2e3 2e3 0 0 1 0-2299
"/>
  <path id="b" _points="0-959 362-627 831-480 742-1286"
        d="M0-962
L362-627A
2e3 2e3 0 0 1 835-480
2e3 2e3 0 0 0 748-1286
2e3 2e3 0 0 0 0-962
"/>
  <path id="a" _points="0-959 362-627 -362-627"
        d="M0-965A
2e3 2e3 0 0 1 362-627
2e3 2e3 0 0 0 -370-627
2e3 2e3 0 0 1 0-965
"/>
 </defs>
 <use xlink:href="#e" fill="#f8df92" transform="rotate(300)"/>
 <use xlink:href="#e" fill="#b99e89" transform="rotate(240)"/>
 <use xlink:href="#e" fill="#dbc2a6" transform="rotate(60)"/>
 <use xlink:href="#e" fill="#f4777c" transform="rotate(120)"/>
 <use xlink:href="#e" fill="#e8779d" transform="rotate(180)"/>
 <use xlink:href="#e" fill="#67b8d9"/>
 <rect fill="#37100d" x="-725" y="-666" width="1450" height="1332"/>
 <use xlink:href="#d" fill="#588b8d"/>
 <use xlink:href="#c" fill="#567a50"/>
 <use xlink:href="#b" fill="#533928"/>
 <use xlink:href="#a" fill="#3c2315"/>
 <g transform="rotate(60)">
  <use xlink:href="#d" fill="#d25a51"/>
  <use xlink:href="#c" fill="#554145"/>
  <use xlink:href="#b" fill="#4d1e2b"/>
  <use xlink:href="#a" fill="#4b1a18"/>
 </g>
 <g transform="rotate(120)">
  <use xlink:href="#d" fill="#de374c"/>
  <use xlink:href="#c" fill="#bf2a32"/>
  <use xlink:href="#b" fill="#8a1a1b"/>
  <use xlink:href="#a" fill="#381317"/>
 </g>
 <g transform="rotate(180)">
  <use xlink:href="#d" fill="#a84954"/>
  <use xlink:href="#c" fill="#a12229"/>
  <use xlink:href="#b" fill="#9d1e18"/>
  <use xlink:href="#a" fill="#87170f"/>
 </g>
 <g transform="rotate(240)">
  <use xlink:href="#d" fill="#b48a4f"/>
  <use xlink:href="#c" fill="#a34031"/>
  <use xlink:href="#b" fill="#422e29"/>
  <use xlink:href="#a" fill="#3f1514"/>
 </g>
 <g transform="rotate(300)">
  <use xlink:href="#d" fill="#64a17c"/>
  <use xlink:href="#c" fill="#486443"/>
  <use xlink:href="#b" fill="#3f4b2b"/>
  <use xlink:href="#a" fill="#38231b"/>
 </g>
 <path id="l" fill="#fff"
       _points="-121-1019 r1110 411-543 r577 65-284 r666 -469-672 r1220"
       d="M-121-1019A
1110 1110 0 1 0 411-543
 577  577 0 0 0 65-284
 666  666 0 1 1-469-672
1220 1220 0 0 1-121-1019"/>
 <use xlink:href="#l" transform="rotate(180)"/>
</svg>
