<svg viewBox="-175 -184.5 350 369" xmlns="http://www.w3.org/2000/svg" xmlns:xlink="http://www.w3.org/1999/xlink">
 <defs>
  <path id="a" d="m20.236-35.042c-6.036-7.075-12.847-13.246-20.233-18.459-7.386 5.214-14.198 11.384-20.233 18.46 6.561-1.212 13.322-1.852 20.233-1.852s13.673 0.639 20.233 1.851z"/>
  <path id="b" d="m20.236-35.042c9.145 1.689 17.895 4.503 26.103 8.293 1.386-15.171-0.396-30.391-5.089-44.69-14.73 3.086-28.802 9.152-41.247 17.938 7.386 5.213 14.197 11.384 20.233 18.459z"/>
  <path id="c" d="m41.25-71.439c-7.205-21.956-21.268-41.735-41.247-55.829-19.979 14.093-34.042 33.873-41.247 55.829 14.73 3.086 28.802 9.152 41.247 17.938 12.445-8.787 26.517-14.853 41.247-17.938z"/>
  <path id="d" d="m8.564-132.752c-2.966 1.712-5.816 3.547-8.562 5.484 19.979 14.093 34.042 33.873 41.247 55.829 22.617-4.738 46.778-2.449 68.973 7.807 0.304-3.345 0.468-6.731 0.468-10.156 0-27.459-10.003-52.579-26.558-71.925-25.031-4.665-51.787-0.768-75.568 12.961z"/>
  <path id="e" d="m0-127.268a111 111 0 0 1 84.13-18.446a111 111 0 0 0 -168.26 0a111 111 0 0 1 84.13 18.446z"/>
 </defs>

 <path fill="#37100d" d="m40.469 .197c-2.23-6.288-5.058-12.463-8.513-18.448s-7.39-11.521-11.719-16.597c-6.561-1.212-13.322-1.851-20.233-1.851-6.912 0-13.673 0.639-20.233 1.852-4.33 5.075-8.264 10.611-11.72 16.596s-6.283 12.161-8.513 18.448c2.23 6.287 5.058 12.462 8.513 18.448s7.39 11.521 11.72 16.597c6.561 1.212 13.322 1.851 20.233 1.851s13.672-0.639 20.232-1.851c4.33-5.076 8.265-10.612 11.72-16.597s6.282-12.161 8.513-18.448z"/>

 <use xlink:href="#a" fill="#3c2315"/>
 <use xlink:href="#a" fill="#4b1a18" transform="rotate(60)"/>
 <use xlink:href="#a" fill="#381317" transform="rotate(120)"/>
 <use xlink:href="#a" fill="#87170f" transform="rotate(180)"/>
 <use xlink:href="#a" fill="#3f1514" transform="rotate(240)"/>
 <use xlink:href="#a" fill="#38231b" transform="rotate(300)"/>

 <use xlink:href="#b" fill="#533928"/>
 <use xlink:href="#b" fill="#4d1e2b" transform="rotate(60)"/>
 <use xlink:href="#b" fill="#8a1a1b" transform="rotate(120)"/>
 <use xlink:href="#b" fill="#9d1e18" transform="rotate(180)"/>
 <use xlink:href="#b" fill="#422e29" transform="rotate(240)"/>
 <use xlink:href="#b" fill="#3f4b2b" transform="rotate(300)"/>

 <use xlink:href="#c" fill="#567a50"/>
 <use xlink:href="#c" fill="#554145" transform="rotate(60)"/>
 <use xlink:href="#c" fill="#bf2a32" transform="rotate(120)"/>
 <use xlink:href="#c" fill="#a12229" transform="rotate(180)"/>
 <use xlink:href="#c" fill="#a34031" transform="rotate(240)"/>
 <use xlink:href="#c" fill="#486443" transform="rotate(300)"/>

 <use xlink:href="#d" fill="#588b8d"/>
 <use xlink:href="#d" fill="#d25a51" transform="rotate(60)"/>
 <use xlink:href="#d" fill="#de374c" transform="rotate(120)"/>
 <use xlink:href="#d" fill="#a84954" transform="rotate(180)"/>
 <use xlink:href="#d" fill="#b48a4f" transform="rotate(240)"/>
 <use xlink:href="#d" fill="#64a17c" transform="rotate(300)"/>

 <use xlink:href="#e" fill="#67b8d9"/>
 <use xlink:href="#e" fill="#dbc2a6" transform="rotate(60)"/>
 <use xlink:href="#e" fill="#f4777c" transform="rotate(120)"/>
 <use xlink:href="#e" fill="#e8779d" transform="rotate(180)"/>
 <use xlink:href="#e" fill="#b99e89" transform="rotate(240)"/>
 <use xlink:href="#e" fill="#f8df92" transform="rotate(300)"/>

 <g fill="#fff" transform="scale(2.5 2.5) translate(12.5 0.2)">
  <path id="l" d="m0 0c0-4.436-1.181-8.59-3.235-12.191-3.271 0.834-6.03 2.959-7.712 5.793 0.91 1.946 1.421 4.111 1.421 6.398 0 8.346-6.794 15.142-15.143 15.142-8.35 0-15.143-6.796-15.143-15.142 0-8.352 6.792-15.145 15.143-15.145 0.627 0 1.243 0.04 1.847 0.116 2.035-3.059 4.665-5.685 7.73-7.707-2.946-1.248-6.184-1.937-9.577-1.937-13.602 0-24.67 11.066-24.67 24.672 0 13.603 11.068 24.665 24.67 24.665 13.603 0.001 24.669-11.061 24.669-24.664z"/>
  <use xlink:href="#l" transform="rotate(180 -12.4 0)"/>
 </g>
</svg>
