<svg viewBox="0 0 1000 936" xmlns="http://www.w3.org/2000/svg" xmlns:xlink="http://www.w3.org/1999/xlink">
 <radialGradient id="f" gradientUnits="userSpaceOnUse" cy="438.46" cx="503.24" r="498.32">
  <stop stop-color="#fff" stop-opacity=".6" offset=".638"/>
  <stop stop-color="#fffaee" stop-opacity=".6385" offset=".6729"/>
  <stop stop-color="#fff2cd" stop-opacity=".7133" offset=".7406"/>
  <stop stop-color="#ffe698" stop-opacity=".8169" offset=".8343"/>
  <stop stop-color="#fed848" stop-opacity=".9441" offset=".9494"/>
  <stop stop-color="#fed208" offset="1"/>
 </radialGradient>
 <path fill="url(#f)" d="m2 391 a 500 500 1 1 0 996 0 z"/>
 <circle fill="#fedb2f" cx="500" cy="508" r="230"/>
 <g id="l">
  <path fill="#4ec6f2" id="b" d="m69.091 235.52c15.505-15.5 32.537-28.412 50.821-38.626l306.03-174.1c-6.392 4.408-12.469 9.446-18.156 15.144-19.295 19.295-31.233 43.167-35.806 68.126l-93.45 340.15c-5.702 20.155-8.624 41.324-8.624 63.263 0 39.559 9.95 76.781 27.457 109.3-78.38 23.35-166.66 4.1-228.54-57.77-89.903-89.91-89.724-235.48.271-325.48z"/>
  <path fill="#0795c5" d="m278.52 446.21l93.457-340.15c-5.35 29.276-.585 60.029 14.325 86.645-.055-.014-.078-.023-.078-.023L500 392 432.924 509.902c-10.301 18.198-23.03 35.408-38.539 50.912-28.061 28.061-61.524 47.378-97.028 57.958-17.507-32.522-27.457-69.745-27.457-109.3.01-21.94 2.93-43.11 8.63-63.26z"/>
 </g>
 <use xlink:href="#l" transform="translate(1000)scale(-1 1)"/>
 <path fill="#0a529e" d="m500 392 114-199.31a130 130 0 1 0-228 0"/>
</svg>
