<svg viewBox="0 0 1000 936" xmlns="http://www.w3.org/2000/svg" xmlns:xlink="http://www.w3.org/1999/xlink">
 <radialGradient id="f" gradientUnits="userSpaceOnUse" cy="438.46" cx="503.24" r="498.32">
  <stop stop-color="#fff" stop-opacity=".6" offset=".638"/>
  <stop stop-color="#fffaee" stop-opacity=".6385" offset=".6729"/>
  <stop stop-color="#fff2cd" stop-opacity=".7133" offset=".7406"/>
  <stop stop-color="#ffe698" stop-opacity=".8169" offset=".8343"/>
  <stop stop-color="#fed848" stop-opacity=".9441" offset=".9494"/>
  <stop stop-color="#fed208" offset="1"/>
 </radialGradient>
 <path fill="url(#f)" d="m2 391 a 500 500 1 1 0 996 0 z"/>
 <circle fill="#fedb2f" cx="500" cy="508" r="230"/>
 <g id="l">
  <path fill="#4ec6f2" d="m297.363 618.777a230 230 0 0 1 -177.451 -421.883l306.03-174.1"/>
  <path fill="#0795c5" d="m371.977 106.06 128.023 285.94-67.076 117.902a230 230 0 0 1 -135.567 108.87 230 230 0 0 1 -18.837 -172.562z"/>
 </g>
 <use xlink:href="#l" transform="translate(1000)scale(-1 1)"/>
 <path fill="#0a529e" d="m500 392 114-199.31a130 130 0 1 0-228 0"/>
</svg>
