<svg viewBox="0.328 0 26.7 29" xmlns="http://www.w3.org/2000/svg" xmlns:xlink="http://www.w3.org/1999/xlink">
 <path id="x" d="m21 0-1.59 1.727-2.323-.33 1.151 2.045-1.032 2.108 2.302-.463 1.686 1.633.271-2.332 2.074-1.099-2.135-.977"/>
 <use xlink:href="#x" transform="matrix(.4-.06.06.4-4 5)"/>
 <use xlink:href="#x" transform="matrix(.5.4-.4.5 .7-3)"/>
 <use xlink:href="#x" transform="matrix(.6.02-.02.6 13 14)"/>
 <path d="m15 11c-.588-.368-1.172-.618-1.692-.729-.492-.089-1.039-.149-1.425.374l-11.555 18.355h6.672l9.677-15.349c.303-.576.012-1.041-.283-1.447-.325-.417-.806-.835-1.394-1.204m-3.621 9.215c-.254-.396-.740-.857-1.373-1.254-.632-.396-1.258-.634-1.726-.690l4.421-7.052c.064-.013.262-.021.543.066.346.092.785.285 1.225.562.504.313.908.677 1.133.970.113.145.178.271.195.335.002.006.004.011.004.015l-4.422 7.048"/>
</svg>
