<svg viewBox="2 2 25 29" xmlns="http://www.w3.org/2000/svg" xmlns:xlink="http://www.w3.org/1999/xlink">
 <path d="m23.043 4.649l-.404-2.312-1.59 1.727-2.323-.330 1.151 2.045-1.032 2.108 2.302-.463 1.686 1.633.271-2.332 2.074-1.099-2.135-.977z"/>
 <path d="m26.217 18.198l-.182-1.25-.882.905-1.245-.214.588 1.118-.588 1.118 1.245-.214.882.905.182-1.25 1.133-.560-1.133-.558z"/>
 <path d="m4.92 7.672l.948-.372.844.569-.062-1.016.802-.627-.985-.256-.349-.957-.547.859-1.018.036.647.786-.280.978z"/>
 <path d="m10.439 10.505l1.021-1.096 1.481.219-.727-1.31.667-1.341-1.47.287-1.069-1.048-.182 1.487-1.328.693 1.358.632.249 1.477z"/>
 <path d="m17.234 12.721c-.588-.368-1.172-.618-1.692-.729-.492-.089-1.039-.149-1.425.374l-11.555 18.422h6.68l9.669-15.416c.303-.576.012-1.041-.283-1.447-.325-.417-.806-.835-1.394-1.204zm-3.621 9.215c-.254-.396-.740-.857-1.373-1.254-.632-.396-1.258-.634-1.726-.690l4.421-7.052c.064-.013.262-.021.543.066.346.092.785.285 1.225.562.504.313.908.677 1.133.970.113.145.178.271.195.335.002.006.004.011.004.015l-4.422 7.048z"/>
</svg>
