<svg xmlns="http://www.w3.org/2000/svg" viewBox="0 0 257.719 257.717">
  <path fill="#3c5a99" d="M14.224,257.719c-7.8557,0 -14.224,-6.3683 -14.224,-14.224l0,-229.271c0,-7.8557 6.3683,-14.224 14.224,-14.224l229.271,0c7.8557,0 14.224,6.3683 14.224,14.224l0,229.271c0,7.8557 -6.3683,14.224 -14.224,14.224l-65.673,0l0,-99.803l33.498,0l5.016,-38.895l-38.514,0l0,-24.833c0,-11.26 3.126,-18.935 19.274,-18.935l20.596,-0.01l0,-34.785c-3.562,-0.474 -15.788,-1.533 -30.012,-1.533c-29.695,0 -50.025,18.126 -50.025,51.413l0,28.684l-33.585,0l0,38.894l33.585,0l0,99.803l40.166,0z"/>
</svg>
