<svg xmlns="http://www.w3.org/2000/svg" viewBox="0 0 257.719 257.717">
  <path fill="#3c5a99" d="m 243.494 257.719 c 7.854 0 14.223 -6.37 14.223 -14.225 v -229.27 c 0 -7.857 -6.368 -14.224 -14.223 -14.224 h -229.27 c -7.857 0 -14.224 6.367 -14.224 14.224 v 229.27 c 0 7.855 6.366 14.225 14.224 14.225 h 229.27 z"/>
  <path fill="#fff" d="m 177.822 257.719 v -99.803 h 33.498 l 5.016 -38.895 h -38.514 v -24.833 c 0 -11.26 3.126 -18.935 19.274 -18.935 l 20.596 -0.01 v -34.785 c -3.562 -0.474 -15.788 -1.533 -30.012 -1.533 c -29.695 0 -50.025 18.126 -50.025 51.413 v 28.684 h -33.585 v 38.894 h 33.585 v 99.803 h 40.166 z"/>
</svg>
