<svg xmlns="http://www.w3.org/2000/svg" viewBox="0 2160 10000 4419.076">
 <g id="github" class="collegiate-regular">
  <path d="m1281.235 3349.375c154.701 0 333.573-38.678 536.653-116.027v497.979c-45.146 16.125-109.604 33.826-193.421 53.184 25.783 74.119 38.676 143.43 38.676 207.889 0 206.312-62.055 385.969-186.127 539.057-124.068 153.088-284.452 244.201-481.063 273.176-128.917 19.359-193.38 88.67-193.38 207.93 0 41.908 20.937 83.777 62.844 125.686 54.804 61.27 135.386 99.945 241.756 116.068 460.96 70.887 691.397 262.689 691.397 575.33 0 499.637-298.131 749.432-894.438 749.432-244.987 0-446.448-43.525-604.346-130.535-199.886-109.44-299.786-281.843-299.786-517.13 0-270.732 149.896-456.068 449.642-555.971v-9.66c-109.604-67.693-164.364-170.828-164.364-309.447 0-180.488 51.57-293.324 154.705-338.424v-9.66c-103.135-35.441-195.036-116.068-275.579-241.754-90.286-135.428-135.387-280.473-135.387-435.176 0-232.098 82.202-425.477 246.562-580.18 157.939-145.045 346.507-217.588 565.67-217.588 157.939 0 304.6 38.676 439.987 116.027v-.206zm19.359 2543.154c0-164.404-135.387-246.564-406.116-246.564-261.074 0-391.611 85.436-391.611 256.266 0 167.594 141.812 251.371 425.478 251.371 248.136 0 372.249-87.01 372.249-261.073zm-744.583-1856.605c0 222.395 101.52 333.615 304.596 333.615 196.616 0 294.941-112.834 294.941-338.465 0-93.477-22.552-174.064-67.693-241.758-54.8-74.117-130.537-111.217-227.248-111.217-203.076.042-304.596 119.303-304.596 357.825z"/>
  <path d="m2330.58 2880.374c-191.709 0-338.422-171.597-338.422-357.782 0-187.885 143.407-362.592 338.422-362.592 192.958 0 333.617 178.361 333.617 362.632 0 182.628-143.929 357.742-333.617 357.742"/>
  <path d="m2055.001 5404.211c6.424-64.459 9.659-174.021 9.659-328.766v-1503.672c0-151.471-3.234-256.266-9.659-314.258h546.352c-6.469 61.266-9.659 162.787-9.659 304.598v1484.314c0 164.404 3.235 283.666 9.659 357.783h-546.352z"/>
  <path d="m3601.785 3257.516h420.624v469c-16.124 0-45.931-1.615-89.456-4.85-43.526-3.232-84.604-4.85-123.279-4.85h-207.889v899.285c0 215.973 70.883 323.916 212.738 323.916 99.941 0 190.146-27.359 270.77-82.158v483.467c-119.259 64.502-262.689 96.711-430.324 96.711-235.287 0-398.076-83.777-488.317-251.373-67.693-125.727-101.56-323.916-101.56-594.73v-865.418h4.85v-9.656l-72.543-4.809c-41.911 0-96.711 4.809-164.364 14.508v-469.043h236.907v-188.571c0-90.244-4.85-162.787-14.51-217.587h560.821c-9.659 61.267-14.509 130.535-14.509 207.887v198.271h.041z"/>
  <path d="m5300.203 3243.007c-138.576 0-283.622 48.376-435.133 145.044v-846.101c0-183.722 3.234-304.599 9.659-362.633h-551.161c9.658 51.567 14.508 172.445 14.508 362.633v2557.663c0 148.234-4.85 249.795-14.508 304.598h560.861c0-9.658-3.235-49.164-9.66-118.434-6.424-69.309-9.658-131.365-9.658-186.125v-1189.414c112.834-106.369 222.398-159.555 328.768-159.555 122.493 0 215.969 61.227 280.428 183.721 48.336 96.709 72.543 217.588 72.543 362.633l-4.85 652.68c0 109.645-8.039 261.115-24.167 454.494h584.987c-12.893-80.545-19.317-228.863-19.317-444.795v-662.379c0-280.432-62.844-518.953-188.567-715.564-141.771-225.631-339.916-338.466-594.44-338.466h-.293z"/>
  <path d="m7011.808 5423.568c-254.649 0-443.177-112.836-565.67-338.465-96.711-183.721-145.046-423.857-145.046-720.375v-662.381c0-219.203-6.424-367.439-19.318-444.792h580.18c-9.659 70.886-16.124 222.397-19.358 454.495l-4.81 652.721c0 183.721 20.938 315.873 62.844 396.416 48.375 99.943 137.002 149.896 265.924 149.896 90.242 0 191.762-53.186 304.596-159.555v-1189.415c0-54.801-3.23-117.645-9.654-188.57-6.469-70.927-9.659-109.604-9.659-116.027h560.82c-6.429 54.799-9.659 156.32-9.659 304.598v1479.465c0 190.145 3.23 311.023 9.659 362.59h-527.287v-174.02c-148.401 128.92-306.341 193.42-473.81 193.42h.248z"/>
  <path d="m9187.684 5418.678c-174.019 0-319.064-62.842-435.133-188.529v174.02h-512.485c9.659-54.76 14.549-156.32 14.549-304.598v-2557.662c0-190.188-4.85-311.024-14.549-362.634h551.202c-6.465 57.993-9.659 178.872-9.659 362.634v841.251c148.239-93.478 293.325-140.236 435.137-140.236 254.646 0 454.491 112.836 599.537 338.465 122.453 196.613 183.718 435.137 183.718 715.566 0 286.855-64.459 536.652-193.377 749.391-155.036 248.264-361.473 372.332-619.312 372.332h.372zm-72.543-1667.994c-106.365 0-217.585 53.186-333.613 159.555v836.441c103.135 99.902 204.695 149.895 304.596 149.895 125.688 0 220.783-69.311 285.282-207.93 51.569-109.602 77.353-240.137 77.353-391.607 0-364.248-111.094-546.354-333.698-546.354h.080z"/>
 </g>
 <g id="social" class="futura-heavy">
  <path d="m2431.683 5867.615c-30.673-41.619-70.094-67.942-123.777-67.942-51.484 0-100.774 39.464-100.774 93.146 0 139.117 327.565 81.04 327.565 358.238 0 165.438-102.969 282.629-271.684 282.629-113.956 0-197.194-65.704-254.152-161.046l104.091-101.893c21.888 63.548 79.963 120.504 148.984 120.504 65.702 0 106.244-55.879 106.244-119.427 0-85.476-78.887-109.56-143.512-134.724-106.284-43.857-184.054-97.538-184.054-225.671 0-136.961 101.893-247.6 241.012-247.6 73.413 0 175.306 36.148 225.669 92.027l-75.612 111.881v-.122z"/>
  <path d="m2988.07 6533.727c-251.994 0-408.646-192.8-408.646-436.046 0-245.403 162.166-433.807 408.646-433.807s408.646 188.403 408.646 433.807c.001 243.289-156.652 436.046-408.646 436.046zm0-711.005c-152.259 0-242.128 134.723-242.128 268.409 0 127.054 63.548 283.748 242.128 283.748 178.581 0 242.085-156.651 242.085-283.748.044-133.77-89.784-268.492-242.085-268.492v.083z"/>
  <path d="m4027.591 5904.881c-44.895-54.76-112.835-87.631-181.856-87.631-154.494 0-243.205 142.433-243.205 284.865 0 139.117 92.027 278.234 242.129 278.234 69.021 0 138.038-36.147 182.977-87.59v191.679c-60.272 28.521-120.506 49.288-187.369 49.288-232.264 0-404.254-200.467-404.254-428.336 0-234.46 165.441-441.477 407.57-441.477 64.624 0 128.172 17.534 184.053 48.169v192.798h-.045z"/>
  <path d="m4294.964 6511.757h-161.044v-825.954h161.044v825.954z"/>
  <path d="m4580.578 6337.652l-67.945 174.188h-169.791l322.092-847.927h124.898l313.344 847.927h-171.986l-63.549-174.188h-287.063zm139.281-431.692h-2.199l-90.945 300.203h196.113l-103.216-300.203h.247z"/>
  <path d="m5313.47 6371.645h227.866v140.236h-388.914v-825.955h161.048v685.844-.125z"/>
 </g>
 <g id="coding" class="futura-heavy">
  <path d="m6461.311 5904.881c-44.895-54.76-112.839-87.631-181.855-87.631-154.499 0-243.206 142.433-243.206 284.865 0 139.117 92.022 278.234 242.129 278.234 69.017 0 138.038-36.147 182.973-87.59v191.679c-60.272 28.521-120.506 49.288-187.369 49.288-232.264 0-404.249-200.467-404.249-428.336 0-234.46 165.436-441.477 407.564-441.477 64.625 0 128.173 17.534 184.054 48.169v192.798h-.041z"/>
  <path d="m6936.775 6533.727c-251.994 0-408.646-192.8-408.646-436.046 0-245.403 162.166-433.807 408.646-433.807s408.605 188.403 408.605 433.807c0 243.289-156.692 436.046-408.728 436.046h.123zm0-711.005c-152.297 0-242.125 134.723-242.125 268.409 0 127.054 63.544 283.748 242.125 283.748 178.58 0 242.129-156.651 242.129-283.748 0-133.77-89.955-268.492-242.085-268.492l-.044.083z"/>
  <path d="m7424.268 5685.801h230.105c238.812 0 398.74 178.58 398.74 414.076 0 232.304-164.323 411.962-399.857 411.962h-228.948v-825.955l-.040-.083zm160.836 685.844h26.28c198.271 0 275.004-109.56 275.004-272.804 0-179.657-92.026-272.762-275.004-272.762h-26.28v545.566z"/>
  <path d="m8292.711 6511.757h-161.088v-825.954h161.088v825.954z"/>
  <path d="m8410.023 5663.874h116.154l434.926 577.358h2.194v-555.432h161.048v842.455h-116.109l-434.433-577.444h-2.194v560.903h-161.088v-847.884l-.498.044z"/>
  <path d="m9970.736 6072.518v20.81c0 233.34-119.426 440.399-375.73 440.399-241.012 0-393.308-203.742-393.308-431.611 0-235.578 156.651-438.201 403.173-438.201 140.236 0 262.936 71.218 326.484 197.192l-142.435 76.688c-32.871-74.49-102.97-131.448-188.446-131.448-155.57 0-232.26 158.85-232.26 295.812 0 136.919 77.766 289.217 233.341 289.217 100.812 0 185.171-87.631 188.446-187.367h-175.307v-131.449h355.668l.374-.042z"/>
 </g>
</svg>
