<svg xmlns="http://www.w3.org/2000/svg" viewBox="0 0 10000 4419">
 <g id="github" class="collegiate-regular">
  <path d="m 1281 1189 c 155 0 334 -39 537 -116 v 498 c -45 16 -110 34 -193 53 c 26 74 39 143 39 208 c 0 206 -62 386 -186 539 c -124 153 -285 244 -481 273 c -129 19 -193 89 -193 208 c 0 42 21 84 63 126 c 55 61 135 100 242 116 c 461 71 691 263 691 575 c 0 500 -298 749 -894 749 c -245 0 -447 -44 -604 -131 c -200 -109 -300 -282 -300 -517 c 0 -271 150 -456 450 -556 v -10 c -110 -68 -164 -171 -164 -310 c 0 -181 52 -293 155 -338 v -10 c -103 -35 -195 -116 -276 -242 c -90 -135 -135 -281 -135 -435 c 0 -232 82 -426 247 -580 c 158 -145 347 -218 566 -218 c 158 0 305 39 440 116 v 0 Z m 19 2543 c 0 -164 -135 -247 -406 -247 c -261 0 -392 85 -392 256 c 0 168 142 251 426 251 c 248 0 372 -87 372 -261 Z m -745 -1857 c 0 222 102 334 305 334 c 197 0 295 -113 295 -339 c 0 -94 -23 -174 -68 -242 c -55 -74 -131 -111 -227 -111 c -203 0 -305 119 -305 358"/>
  <circle r="360" cx="2331" cy="360"/>
  <path d="m 2055 3244 c 6 -65 10 -174 10 -329 v -1504 c 0 -152 -3 -256 -10 -314 h 546 c -7 61 -10 163 -10 305 v 1484 c 0 164 3 284 10 358"/>
  <path d="m 3602 1098 h 421 v 469 c -16 0 -46 -2 -90 -5 c -44 -3 -85 -5 -123 -5 h -208 v 899 c 0 216 71 324 213 324 c 100 0 190 -27 271 -82 v 484 c -119 65 -263 97 -430 97 c -235 0 -398 -84 -488 -251 c -68 -126 -102 -324 -102 -595 v -865 h 5 v -10 l -73 -5 c -42 0 -97 5 -164 15 v -469 h 237 v -189 c 0 -90 -5 -163 -15 -218 h 561 c -10 61 -15 131 -15 208"/>
  <path d="m 5300 1083 c -139 0 -284 48 -435 145 v -846 c 0 -184 3 -305 10 -363 h -551 c 10 52 15 172 15 363 v 2558 c 0 148 -5 250 -15 305 h 561 c 0 -10 -3 -49 -10 -118 c -6 -69 -10 -131 -10 -186 v -1189 c 113 -106 222 -160 329 -160 c 123 0 216 61 280 184 c 48 97 73 218 73 363 l -5 653 c 0 110 -8 261 -24 455 h 585 c -13 -81 -19 -229 -19 -445 v -662 c 0 -280 -63 -519 -189 -716 c -142 -226 -340 -339 -594 -339"/>
  <path d="m 7012 3264 c -255 0 -443 -113 -566 -339 c -97 -184 -145 -424 -145 -720 v -662 c 0 -219 -6 -367 -19 -445 h 580 c -10 71 -16 222 -19 455 l -5 653 c 0 184 21 316 63 396 c 48 100 137 150 266 150 c 90 0 192 -53 305 -160 v -1189 c 0 -55 -3 -118 -10 -189 c -7 -71 -10 -110 -10 -116 h 561 c -6 55 -10 156 -10 305 v 1480 c 0 190 3 311 10 363 h -527 v -174 c -148 129 -306 193 -474 193"/>
  <path d="m 9188 3259 c -174 0 -319 -63 -435 -189 v 174 h -513 c 10 -55 15 -156 15 -305 v -2558 c 0 -190 -5 -311 -15 -363 h 551 c -7 58 -10 179 -10 363 v 841 c 148 -94 293 -140 435 -140 c 255 0 455 113 600 339 c 122 197 184 435 184 716 c 0 287 -65 537 -193 749 c -155 248 -362 372 -619 372 h 0 Z m -73 -1668 c -106 0 -218 53 -334 160 v 836 c 103 100 205 150 305 150 c 126 0 221 -69 285 -208 c 52 -110 77 -240 77 -392 c 0 -364 -111 -546 -334 -546"/>
 </g>
 <g id="social" class="futura-heavy">
  <path d="m 2432 3708 c -31 -42 -70 -68 -124 -68 c -52 0 -101 40 -101 93 c 0 139 328 81 328 358 c 0 165 -103 283 -272 283 c -114 0 -197 -66 -254 -161 l 104 -102 c 22 64 80 121 149 121 c 66 0 106 -56 106 -119 c 0 -86 -79 -110 -144 -135 c -106 -44 -184 -98 -184 -226 c 0 -137 102 -248 241 -248 c 73 0 175 36 226 92 l -76 112"/>
  <path d="m 2988 4374 c -252 0 -409 -193 -409 -436 c 0 -245 162 -434 409 -434 s 409 188 409 434 c 0 243 -157 436 -409 436 Z m 0 -711 c -152 0 -242 135 -242 268 c 0 127 64 284 242 284 c 179 0 242 -157 242 -284 c 0 -134 -90 -269 -242 -269"/>
  <path d="m 4028 3745 c -45 -55 -113 -88 -182 -88 c -155 0 -243 142 -243 285 c 0 139 92 278 242 278 c 69 0 138 -36 183 -88 v 192 c -60 29 -121 49 -187 49 c -232 0 -404 -201 -404 -428 c 0 -235 165 -442 408 -442 c 65 0 128 18 184 48"/>
  <path d="m 4295 4352 h -161 v -826 h 161"/>
  <path d="m 4581 4178 l -68 174 h -170 l 322 -848 h 125 l 313 848 h -172 l -64 -174 h -287 Z m 139 -432 h -2 l -91 300 h 196 l -103 -300"/>
  <path d="m 5314 4212 h 228 v 140 h -389 v -826 h 161"/>
 </g>
 <g id="coding" class="futura-heavy">
  <path d="m 6461 3745 c -45 -55 -113 -88 -182 -88 c -155 0 -243 142 -243 285 c 0 139 92 278 242 278 c 69 0 138 -36 183 -88 v 192 c -60 29 -121 49 -187 49 c -232 0 -404 -201 -404 -428 c 0 -235 165 -442 408 -442 c 65 0 128 18 184 48"/>
  <path d="m 6937 4374 c -252 0 -409 -193 -409 -436 c 0 -245 162 -434 409 -434 s 409 188 409 434 c 0 243 -157 436 -409 436 h 0 Z m 0 -711 c -152 0 -242 135 -242 268 c 0 127 64 284 242 284 c 179 0 242 -157 242 -284 c 0 -134 -90 -269 -242 -269"/>
  <path d="m 7424 3526 h 230 c 239 0 399 179 399 414 c 0 232 -164 412 -400 412 h -229 v -826 l 0 0 Z m 161 686 h 26 c 198 0 275 -110 275 -273 c 0 -180 -92 -273 -275 -273 h -26"/>
  <path d="m 8293 4352 h -161 v -826 h 161"/>
  <path d="m 8410 3504 h 116 l 435 577 h 2 v -555 h 161 v 843 h -116 l -434 -577 h -2 v 561 h -161"/>
  <path d="m 9971 3913 v 21 c 0 233 -119 440 -376 440 c -241 0 -393 -204 -393 -432 c 0 -236 157 -438 403 -438 c 140 0 263 71 327 197 l -142 77 c -33 -75 -103 -131 -188 -131 c -156 0 -232 159 -232 296 c 0 137 78 289 233 289 c 101 0 185 -88 188 -187 h -175 v -131"/>
 </g>
</svg>
