<svg xmlns="http://www.w3.org/2000/svg" viewBox="-0.147 -0.544 242 108">
 <g id="github" class="collegiate-regular">
  <path d="m30.908 28.692c3.732 0 8.047-.933 12.946-2.799v12.013c-1.089.389-2.644.816-4.666 1.283.622 1.788.933 3.46.933 5.015 0 4.977-1.497 9.311-4.49 13.004s-6.862 5.891-11.605 6.59c-3.11.467-4.665 2.139-4.665 5.016 0 1.011.505 2.021 1.516 3.032 1.322 1.478 3.266 2.411 5.832 2.8 11.12 1.71 16.679 6.337 16.679 13.879 0 12.053-7.192 18.079-21.577 18.079-5.91 0-10.77-1.05-14.579-3.149-4.822-2.64-7.232-6.799-7.232-12.475 0-6.531 3.616-11.002 10.847-13.412v-.233c-2.644-1.633-3.965-4.121-3.965-7.465 0-4.354 1.244-7.076 3.732-8.164v-.233c-2.488-.855-4.705-2.8-6.648-5.832-2.178-3.267-3.266-6.766-3.266-10.498 0-5.599 1.983-10.264 5.948-13.996 3.81-3.499 8.359-5.249 13.646-5.249 3.81 0 7.348.933 10.614 2.799zm.467 61.35c0-3.966-3.266-5.948-9.797-5.948-6.298 0-9.447 2.061-9.447 6.182 0 4.043 3.421 6.064 10.264 6.064 5.986 0 8.98-2.099 8.98-6.298zm-17.962-44.788c0 5.365 2.449 8.048 7.348 8.048 4.743 0 7.115-2.722 7.115-8.165 0-2.255-.544-4.199-1.633-5.832-1.322-1.788-3.149-2.683-5.482-2.683-4.899.001-7.348 2.878-7.348 8.632zm0 0"/>
  <path d="m56.222 17.378c-2.255 0-4.179-.855-5.773-2.566-1.594-1.71-2.391-3.732-2.391-6.065 0-2.411.797-4.471 2.391-6.182 1.594-1.71 3.518-2.565 5.773-2.565 2.177 0 4.063.855 5.657 2.566s2.391 3.771 2.391 6.182c0 2.333-.797 4.354-2.391 6.065-1.594 1.71-3.48 2.565-5.657 2.565zm0 0"/>
  <path d="m49.574 78.262c.155-1.555.233-4.198.233-7.931v-36.274c0-3.654-.078-6.182-.233-7.581h13.18c-.156 1.478-.233 3.927-.233 7.348v35.807c0 3.966.078 6.843.233 8.631h-13.18zm0 0"/>
  <path d="m86.888 26.476h10.147v11.314c-.389 0-1.108-.039-2.158-.117s-2.041-.117-2.974-.117h-5.015v21.694c0 5.21 1.71 7.814 5.132 7.814 2.411 0 4.587-.66 6.532-1.982v11.663c-2.877 1.556-6.337 2.333-10.381 2.333-5.676 0-9.603-2.021-11.78-6.064-1.633-3.033-2.45-7.814-2.45-14.347v-20.877h.117v-.233l-1.75-.116c-1.011 0-2.333.116-3.965.35v-11.315h5.715v-4.549c0-2.177-.117-3.927-.35-5.249h13.529c-.233 1.478-.35 3.149-.35 5.015v4.783zm0 0"/>
  <path d="m127.86 26.126c-3.343 0-6.842 1.167-10.497 3.499v-20.411c0-4.432.078-7.348.233-8.748h-13.296c.233 1.244.35 4.16.35 8.748v61.7c0 3.576-.117 6.026-.35 7.348h13.53c0-.233-.078-1.186-.233-2.857-.155-1.672-.233-3.169-.233-4.49v-28.693c2.722-2.566 5.365-3.849 7.931-3.849 2.955 0 5.21 1.477 6.765 4.432 1.166 2.333 1.75 5.249 1.75 8.748l-.117 15.745c0 2.645-.194 6.299-.583 10.964h14.112c-.311-1.943-.466-5.521-.466-10.73v-15.979c0-6.765-1.516-12.519-4.549-17.262-3.42-5.443-8.2-8.165-14.34-8.165zm0 0"/>
  <path d="m169.15 78.729c-6.143 0-10.691-2.722-13.646-8.165-2.333-4.432-3.499-10.225-3.499-17.378v-15.979c0-5.288-.155-8.864-.466-10.73h13.996c-.233 1.71-.389 5.365-.467 10.964l-.116 15.746c0 4.432.505 7.62 1.516 9.563 1.167 2.411 3.305 3.616 6.415 3.616 2.177 0 4.626-1.283 7.348-3.849v-28.693c0-1.322-.078-2.838-.233-4.549-.156-1.711-.233-2.644-.233-2.799h13.529c-.155 1.322-.233 3.771-.233 7.348v35.69c0 4.587.078 7.503.233 8.747h-12.72v-4.198c-3.58 3.11-7.39 4.666-11.43 4.666zm0 0"/>
  <path d="m221.64 78.611c-4.198 0-7.697-1.516-10.497-4.548v4.198h-12.363c.233-1.321.351-3.771.351-7.348v-61.7c0-4.588-.117-7.503-.351-8.748h13.297c-.156 1.399-.233 4.315-.233 8.748v20.294c3.576-2.255 7.076-3.383 10.497-3.383 6.143 0 10.964 2.722 14.463 8.165 2.954 4.743 4.432 10.497 4.432 17.262 0 6.92-1.555 12.946-4.665 18.078-3.74 5.989-8.72 8.982-14.94 8.982zm-1.75-40.238c-2.566 0-5.249 1.283-8.048 3.849v20.178c2.488 2.41 4.938 3.616 7.348 3.616 3.032 0 5.326-1.672 6.882-5.016 1.244-2.644 1.866-5.793 1.866-9.447 0-8.787-2.68-13.18-8.05-13.18zm0 0"/>
 </g>
 <g id="social" class="futura-heavy">
  <path d="m58.661 89.441c-.74-1.004-1.691-1.639-2.986-1.639-1.242 0-2.431.952-2.431 2.247 0 3.356 7.902 1.955 7.902 8.642 0 3.991-2.484 6.818-6.554 6.818-2.749 0-4.757-1.585-6.131-3.885l2.511-2.458c.528 1.533 1.929 2.907 3.594 2.907 1.585 0 2.563-1.348 2.563-2.881 0-2.062-1.903-2.643-3.462-3.25-2.564-1.058-4.44-2.353-4.44-5.444 0-3.304 2.458-5.973 5.814-5.973 1.771 0 4.229.872 5.444 2.22l-1.824 2.699z"/>
  <path d="m72.083 105.51c-6.079 0-9.858-4.651-9.858-10.519 0-5.92 3.912-10.465 9.858-10.465s9.858 4.545 9.858 10.465c0 5.869-3.779 10.519-9.858 10.519zm0-17.152c-3.673 0-5.841 3.25-5.841 6.475 0 3.065 1.533 6.845 5.841 6.845s5.84-3.779 5.84-6.845c.001-3.227-2.166-6.477-5.84-6.477z"/>
  <path d="m97.16 90.34c-1.083-1.321-2.722-2.114-4.387-2.114-3.727 0-5.867 3.436-5.867 6.872 0 3.356 2.22 6.712 5.841 6.712 1.665 0 3.33-.872 4.414-2.113v4.624c-1.454.688-2.907 1.189-4.52 1.189-5.603 0-9.752-4.836-9.752-10.333 0-5.656 3.991-10.65 9.832-10.65 1.559 0 3.092.423 4.44 1.162v4.651z"/>
  <path d="m103.61 104.98h-3.885v-19.925h3.885v19.925z"/>
  <path d="m110.5 100.78l-1.639 4.202h-4.096l7.77-20.455h3.013l7.559 20.455h-4.149l-1.533-4.202h-6.92zm3.36-10.414h-.053l-2.194 7.242h4.731l-2.49-7.242z"/>
  <path d="m128.18 101.6h5.497v3.383h-9.382v-19.925h3.885v16.545z"/>
 </g>
 <g id="coding" class="futura-heavy">
  <path d="m155.87 90.34c-1.083-1.321-2.722-2.114-4.387-2.114-3.727 0-5.867 3.436-5.867 6.872 0 3.356 2.22 6.712 5.841 6.712 1.665 0 3.33-.872 4.414-2.113v4.624c-1.454.688-2.907 1.189-4.52 1.189-5.603 0-9.752-4.836-9.752-10.333 0-5.656 3.991-10.65 9.832-10.65 1.559 0 3.092.423 4.44 1.162v4.651z"/>
  <path d="m167.34 105.51c-6.079 0-9.858-4.651-9.858-10.519 0-5.92 3.912-10.465 9.858-10.465s9.857 4.545 9.857 10.465c0 5.869-3.78 10.519-9.86 10.519zm0-17.152c-3.674 0-5.841 3.25-5.841 6.475 0 3.065 1.533 6.845 5.841 6.845s5.841-3.779 5.841-6.845c0-3.227-2.17-6.477-5.84-6.477z"/>
  <path d="m179.1 85.055h5.551c5.761 0 9.619 4.308 9.619 9.989 0 5.604-3.964 9.938-9.646 9.938h-5.523v-19.925zm3.88 16.545h.634c4.783 0 6.634-2.643 6.634-6.581 0-4.334-2.22-6.58-6.634-6.58h-.634v13.161z"/>
  <path d="m200.05 104.98h-3.886v-19.925h3.886v19.925z"/>
  <path d="m202.88 84.526h2.802l10.492 13.928h.053v-13.399h3.885v20.323h-2.801l-10.48-13.93h-.053v13.531h-3.886v-20.454z"/>
  <path d="m240.53 94.384v.502c0 5.629-2.881 10.624-9.064 10.624-5.814 0-9.488-4.915-9.488-10.412 0-5.683 3.779-10.571 9.726-10.571 3.383 0 6.343 1.718 7.876 4.757l-3.436 1.85c-.793-1.797-2.484-3.171-4.546-3.171-3.753 0-5.603 3.832-5.603 7.136 0 3.303 1.876 6.977 5.629 6.977 2.432 0 4.467-2.114 4.546-4.52h-4.229v-3.171h8.58z"/>
 </g>
</svg>
