<svg xmlns="http://www.w3.org/2000/svg" viewBox="0 0 379 334">
 <g fill="#9cdaf1">
  <ellipse cx="191" cy="296" rx="106" ry="37.5"/>
  <path d="m69.569 187.12l-3.066 10.683s-.8 3.861 2.84 4.546c3.8-.074 3.486-3.627 3.223-4.781z"/>
 </g>
 <g fill="#7dbbe6">
  <path d="m162.05 332.22v-26.5c0-3.422-.619-6.284-1.653-8.701 6.853 5.322 7.316 18.695 7.316 18.695v17.004c6.166.481 12.534.773 19.053.861l-.172-16.92c-.944-23.13-20.769-25.961-20.769-25.961-7.245-1.645-7.137 1.991-6.409 4.34-7.108-12.122-26.158-10.556-26.158-10.556-6.611 2.357-.475 6.607-.475 6.607 10.387 3.775 11.33 15.105 11.33 15.105v23.622c5.72.98 11.71 1.79 17.94 2.4z"/>
  <path d="m245.6 284.48s-19.053-1.566-26.16 10.559c.728-2.35.839-5.989-6.408-4.343 0 0-19.824 2.832-20.768 25.961l-.174 16.946c6.509-.025 12.876-.254 19.054-.671v-17.219s.465-13.373 7.316-18.695c-1.034 2.417-1.653 5.278-1.653 8.701v26.775c6.214-.544 12.211-1.279 17.937-2.188v-24.113s.944-11.33 11.33-15.105c0-.01 6.13-4.26-.48-6.62z"/>
 </g>
 <path d="m378.38 142.32l.28-1.389c-31.162-6.231-63.141-6.294-82.487-5.49c3.178-11.451 4.134-24.627 4.134-39.32c0-21.073-7.917-37.931-20.77-50.759c2.246-7.25 5.246-23.351-2.996-43.963c0 0-14.541-4.617-47.431 17.396c-12.884-3.22-26.596-4.81-40.328-4.81c-15.109 0-30.376 1.924-44.615 5.83c-33.94-23.154-48.923-18.411-48.923-18.411c-9.78 24.457-3.733 42.566-1.896 47.063c-11.495 12.406-18.513 28.243-18.513 47.659c0 14.658 1.669 27.808 5.745 39.237c-19.511-0.71-50.323-0.437-80.373 5.572l.276 1.389c30.231-6.046 61.237-6.256 80.629-5.522c.898 2.366 1.899 4.661 3.021 6.879c-19.177 .618-51.922 3.062-83.303 11.915l.387 1.36c31.629-8.918 64.658-11.301 83.649-11.882c11.458 21.358 34.048 35.152 74.236 39.484c-5.704 3.833-11.523 10.349-13.881 21.374c-7.773 3.718-32.379 12.793-47.142-12.599c0 0-8.264-15.109-24.082-16.292c0 0-15.344-0.235-1.059 9.562c0 0 10.267 4.838 17.351 23.019c0 0 9.241 31.01 53.835 21.061v32.032s-0.943 11.33-11.33 15.105c0 0-6.137 4.249 .475 6.606c0 0 28.792 2.361 28.792-21.238v-34.929s-1.142-13.852 5.663-18.667v57.371s-0.47 13.688-7.551 18.881c0 0-4.723 8.494 5.663 6.137c0 0 19.824-2.832 20.769-25.961l.449-58.06h4.765l.453 58.06c.943 23.129 20.768 25.961 20.768 25.961c10.383 2.357 5.663-6.137 5.663-6.137c-7.08-5.193-7.551-18.881-7.551-18.881v-56.876c6.801 5.296 5.663 18.171 5.663 18.171v34.929c0 23.6 28.793 21.238 28.793 21.238c6.606-2.357 .474-6.606 .474-6.606c-10.386-3.775-11.33-15.105-11.33-15.105v-45.786c0-17.854-7.518-27.309-14.87-32.3c42.859-4.25 63.426-18.089 72.903-39.591c18.773 .516 52.557 2.803 84.873 11.919l.384-1.36c-32.131-9.063-65.692-11.408-84.655-11.96c.898-2.172 1.682-4.431 2.378-6.755c19.25-0.8 51.38-0.79 82.66 5.46z"/>
 <path fill="#f4cbb2" d="m258.39 95.132c9.231 8.363 14.631 18.462 14.631 29.343 0 50.804-37.872 52.181-84.585 52.181-46.721 0-84.589-7.035-84.589-52.181 0-10.809 5.324-20.845 14.441-29.174 15.208-13.881 40.946-6.531 70.147-6.531 29.07-.004 54.72-7.429 69.95 6.357z"/>
 <path fill="#fff" d="m160.3 127.06c0 13.994-7.88 25.336-17.6 25.336s-17.6-11.342-17.6-25.336c0-13.992 7.88-25.33 17.6-25.33 9.72.01 17.6 11.34 17.6 25.33zm94.43 0c0 13.994-7.88 25.336-17.6 25.336s-17.6-11.342-17.6-25.336c0-13.992 7.88-25.33 17.6-25.33 9.72.01 17.6 11.34 17.6 25.33z"/>
 <g fill="#ad5c51">
  <ellipse cx="142.93" cy="127.38" rx="11.73" ry="16.887"/>
  <ellipse cx="237.35" cy="127.38" rx="11.73" ry="16.887"/>
  <circle cy="148.56" cx="188.5" r="4.401"/>
  <path d="m178.43 160.69c-.26-.738.128-1.545.861-1.805.737-.26 1.546.128 1.805.861 1.134 3.198 4.167 5.346 7.551 5.346s6.417-2.147 7.551-5.346c.26-.738 1.067-1.121 1.805-.861s1.121 1.067.862 1.805c-1.529 4.324-5.639 7.229-10.218 7.229s-8.68-2.89-10.21-7.22z"/>
 </g>
 <path fill="#c3e4d8" d="m80.841 180.82c0 1.174-1.376 2.122-3.07 2.122-1.693 0-3.07-.948-3.07-2.122 0-1.175 1.377-2.127 3.07-2.127 1.694 0 3.07.95 3.07 2.13zm8.5 4.72c0 1.174-1.376 2.122-3.07 2.122-1.693 0-3.07-.948-3.07-2.122 0-1.175 1.377-2.127 3.07-2.127 1.694 0 3.07.95 3.07 2.13zm5.193 6.14c0 1.174-1.376 2.122-3.07 2.122-1.693 0-3.07-.948-3.07-2.122 0-1.175 1.377-2.127 3.07-2.127 1.694 0 3.07.95 3.07 2.13zm4.72 7.08c0 1.174-1.376 2.122-3.07 2.122-1.693 0-3.07-.948-3.07-2.122 0-1.175 1.377-2.127 3.07-2.127 1.694 0 3.07.95 3.07 2.13zm5.188 6.61c0 1.174-1.376 2.122-3.07 2.122-1.693 0-3.07-.948-3.07-2.122 0-1.175 1.377-2.127 3.07-2.127 1.694 0 3.07.95 3.07 2.13zm7.09 5.66c0 1.174-1.376 2.122-3.07 2.122-1.693 0-3.07-.948-3.07-2.122 0-1.175 1.377-2.127 3.07-2.127 1.694 0 3.07.95 3.07 2.13zm9.91 3.78c0 1.174-1.376 2.122-3.07 2.122-1.693 0-3.07-.948-3.07-2.122 0-1.175 1.377-2.127 3.07-2.127 1.694 0 3.07.95 3.07 2.13zm9.87 0c0 1.174-1.376 2.122-3.07 2.122-1.693 0-3.07-.948-3.07-2.122 0-1.175 1.377-2.127 3.07-2.127 1.694 0 3.07.95 3.07 2.13zm10.01-1.64c0 1.174-1.376 2.122-3.07 2.122-1.693 0-3.07-.948-3.07-2.122 0-1.175 1.377-2.127 3.07-2.127 1.694 0 3.07.95 3.07 2.13z"/>
</svg>
