<svg xmlns="http://www.w3.org/2000/svg" viewBox="0 0 10000 4419">
 <g id="github" class="collegiate-regular">
  <path d="m1281 1189c155 0 334-39 537-116v498c-45 16-110 34-193 53 26 74 39 143 39 208 0 206-62 386-186 539s-285 244-481 273c-129 19-193 89-193 208 0 42 21 84 63 126 55 61 135 100 242 116 461 71 691 263 691 575 0 500-298 749-894 749-245 0-447-44-604-131-200-109-300-282-300-517 0-271 150-456 450-556v-10c-110-68-164-171-164-310 0-181 52-293 155-338v-10c-103-35-195-116-276-242-90-135-135-281-135-435 0-232 82-426 247-580 158-145 347-218 566-218 158 0 305 39 440 116zm19 2543c0-164-135-247-406-247-261 0-392 85-392 256 0 168 142 251 426 251 248 0 372-87 372-261zm-745-1857c0 222 102 334 305 334 197 0 295-113 295-339 0-94-23-174-68-242-55-74-131-111-227-111-203 0-305 119-305 358"/>
  <circle cx="2331" cy="360" r="360"/>
  <path d="m2055 3244c6-65 10-174 10-329v-1504c0-152-3-256-10-314h546c-7 61-10 163-10 305v1484c0 164 3 284 10 358"/>
  <path d="m3602 1098h421v469c-16 0-46-2-90-5s-85-5-123-5h-208v899c0 216 71 324 213 324 100 0 190-27 271-82v484c-119 65-263 97-430 97-235 0-398-84-488-251-68-126-102-324-102-595v-865h5v-10l-73-5c-42 0-97 5-164 15v-469h237v-189c0-90-5-163-15-218h561c-10 61-15 131-15 208"/>
  <path d="m5300 1083c-139 0-284 48-435 145v-846c0-184 3-305 10-363h-551c10 52 15 172 15 363v2558c0 148-5 250-15 305h561c0-10-3-49-10-118-6-69-10-131-10-186v-1189c113-106 222-160 329-160 123 0 216 61 280 184 48 97 73 218 73 363l-5 653c0 110-8 261-24 455h585c-13-81-19-229-19-445v-662c0-280-63-519-189-716-142-226-340-339-594-339"/>
  <path d="m7012 3264c-255 0-443-113-566-339-97-184-145-424-145-720v-662c0-219-6-367-19-445h580c-10 71-16 222-19 455l-5 653c0 184 21 316 63 396 48 100 137 150 266 150 90 0 192-53 305-160v-1189c0-55-3-118-10-189s-10-110-10-116h561c-6 55-10 156-10 305v1480c0 190 3 311 10 363h-527v-174c-148 129-306 193-474 193"/>
  <path d="m9188 3259c-174 0-319-63-435-189v174h-513c10-55 15-156 15-305v-2558c0-190-5-311-15-363h551c-7 58-10 179-10 363v841c148-94 293-140 435-140 255 0 455 113 600 339 122 197 184 435 184 716 0 287-65 537-193 749-155 248-362 372-619 372zm-73-1668c-106 0-218 53-334 160v836c103 100 205 150 305 150 126 0 221-69 285-208 52-110 77-240 77-392 0-364-111-546-334-546"/>
 </g>
 <g id="social" class="futura-heavy">
  <path d="m2432 3708c-31-42-70-68-124-68-52 0-101 40-101 93 0 139 328 81 328 358 0 165-103 283-272 283-114 0-197-66-254-161l104-102c22 64 80 121 149 121 66 0 106-56 106-119 0-86-79-110-144-135-106-44-184-98-184-226 0-137 102-248 241-248 73 0 175 36 226 92l-76 112"/>
  <path d="m2988 4374c-252 0-409-193-409-436 0-245 162-434 409-434s409 188 409 434c0 243-157 436-409 436zm0-711c-152 0-242 135-242 268 0 127 64 284 242 284 179 0 242-157 242-284 0-134-90-269-242-269"/>
  <path d="m4028 3745c-45-55-113-88-182-88-155 0-243 142-243 285 0 139 92 278 242 278 69 0 138-36 183-88v192c-60 29-121 49-187 49-232 0-404-201-404-428 0-235 165-442 408-442 65 0 128 18 184 48"/>
  <path d="m4295 4352h-161v-826h161"/>
  <path d="m4581 4178l-68 174h-170l322-848h125l313 848h-172l-64-174h-287zm139-432h-2l-91 300h196l-103-300"/>
  <path d="m5314 4212h228v140h-389v-826h161"/>
 </g>
 <g id="coding" class="futura-heavy">
  <path d="m6461 3745c-45-55-113-88-182-88-155 0-243 142-243 285 0 139 92 278 242 278 69 0 138-36 183-88v192c-60 29-121 49-187 49-232 0-404-201-404-428 0-235 165-442 408-442 65 0 128 18 184 48"/>
  <path d="m6937 4374c-252 0-409-193-409-436 0-245 162-434 409-434s409 188 409 434c0 243-157 436-409 436zm0-711c-152 0-242 135-242 268 0 127 64 284 242 284 179 0 242-157 242-284 0-134-90-269-242-269"/>
  <path d="m7424 3526h230c239 0 399 179 399 414 0 232-164 412-400 412h-229v-826zm161 686h26c198 0 275-110 275-273 0-180-92-273-275-273h-26"/>
  <path d="m8293 4352h-161v-826h161"/>
  <path d="m8410 3504h116l435 577h2v-555h161v843h-116l-434-577h-2v561h-161"/>
  <path d="m9971 3913v21c0 233-119 440-376 440-241 0-393-204-393-432 0-236 157-438 403-438 140 0 263 71 327 197l-142 77c-33-75-103-131-188-131-156 0-232 159-232 296s78 289 233 289c101 0 185-88 188-187h-175v-131"/>
 </g>
</svg>
