<svg xmlns="http://www.w3.org/2000/svg" viewBox="0 0 10000 4419.08">
 <g id="github" class="collegiate-regular">
  <path d="m 1281.23 1189.38 c 154.701 0 333.573 -38.678 536.653 -116.027 v 497.979 c -45.146 16.125 -109.604 33.826 -193.421 53.184 c 25.783 74.119 38.676 143.43 38.676 207.889 c 0 206.312 -62.055 385.969 -186.127 539.057 c -124.068 153.088 -284.452 244.201 -481.063 273.176 c -128.917 19.359 -193.38 88.67 -193.38 207.93 c 0 41.908 20.937 83.777 62.844 125.686 c 54.804 61.27 135.386 99.945 241.756 116.068 c 460.96 70.887 691.397 262.689 691.397 575.33 c 0 499.637 -298.131 749.432 -894.438 749.432 c -244.987 0 -446.448 -43.525 -604.346 -130.535 c -199.886 -109.44 -299.786 -281.843 -299.786 -517.13 c 0 -270.732 149.896 -456.068 449.642 -555.971 v -9.66 c -109.604 -67.693 -164.364 -170.828 -164.364 -309.447 c 0 -180.488 51.57 -293.324 154.705 -338.424 v -9.66 c -103.135 -35.441 -195.036 -116.068 -275.579 -241.754 c -90.286 -135.428 -135.387 -280.473 -135.387 -435.176 c 0 -232.098 82.202 -425.477 246.562 -580.18 c 157.939 -145.045 346.507 -217.588 565.67 -217.588 c 157.939 0 304.6 38.676 439.987 116.027 v -0.206 Z m 19.359 2543.15 c 0 -164.404 -135.387 -246.564 -406.116 -246.564 c -261.074 0 -391.611 85.436 -391.611 256.266 c 0 167.594 141.812 251.371 425.478 251.371 c 248.136 0 372.249 -87.01 372.249 -261.073 Z m -744.583 -1856.6 c 0 222.395 101.52 333.615 304.596 333.615 c 196.616 0 294.941 -112.834 294.941 -338.465 c 0 -93.477 -22.552 -174.064 -67.693 -241.758 c -54.8 -74.117 -130.537 -111.217 -227.248 -111.217 c -203.076 0.042 -304.596 119.303 -304.596 357.825 Z"/>
  <path d="m 2330.58 720.374 c -191.709 0 -338.422 -171.597 -338.422 -357.782 c 0 -187.885 143.407 -362.592 338.422 -362.592 c 192.958 0 333.617 178.361 333.617 362.632 c 0 182.628 -143.929 357.742 -333.617 357.742"/>
  <path d="m 2055 3244.21 c 6.424 -64.459 9.659 -174.021 9.659 -328.766 v -1503.67 c 0 -151.471 -3.234 -256.266 -9.659 -314.258 h 546.352 c -6.469 61.266 -9.659 162.787 -9.659 304.598 v 1484.31 c 0 164.404 3.235 283.666 9.659 357.783 h -546.352 Z"/>
  <path d="m 3601.78 1097.52 h 420.624 v 469 c -16.124 0 -45.931 -1.615 -89.456 -4.85 c -43.526 -3.232 -84.604 -4.85 -123.279 -4.85 h -207.889 v 899.285 c 0 215.973 70.883 323.916 212.738 323.916 c 99.941 0 190.146 -27.359 270.77 -82.158 v 483.467 c -119.259 64.502 -262.689 96.711 -430.324 96.711 c -235.287 0 -398.076 -83.777 -488.317 -251.373 c -67.693 -125.727 -101.56 -323.916 -101.56 -594.73 v -865.418 h 4.85 v -9.656 l -72.543 -4.809 c -41.911 0 -96.711 4.809 -164.364 14.508 v -469.043 h 236.907 v -188.571 c 0 -90.244 -4.85 -162.787 -14.51 -217.587 h 560.821 c -9.659 61.267 -14.509 130.535 -14.509 207.887 v 198.271 h 0.041 Z"/>
  <path d="m 5300.2 1083.01 c -138.576 0 -283.622 48.376 -435.133 145.044 v -846.101 c 0 -183.722 3.234 -304.599 9.659 -362.633 h -551.161 c 9.658 51.567 14.508 172.445 14.508 362.633 v 2557.66 c 0 148.234 -4.85 249.795 -14.508 304.598 h 560.861 c 0 -9.658 -3.235 -49.164 -9.66 -118.434 c -6.424 -69.309 -9.658 -131.365 -9.658 -186.125 v -1189.41 c 112.834 -106.369 222.398 -159.555 328.768 -159.555 c 122.493 0 215.969 61.227 280.428 183.721 c 48.336 96.709 72.543 217.588 72.543 362.633 l -4.85 652.68 c 0 109.645 -8.039 261.115 -24.167 454.494 h 584.987 c -12.893 -80.545 -19.317 -228.863 -19.317 -444.795 v -662.379 c 0 -280.432 -62.844 -518.953 -188.567 -715.564 c -141.771 -225.631 -339.916 -338.466 -594.44 -338.466 h -0.293 Z"/>
  <path d="m 7011.81 3263.57 c -254.649 0 -443.177 -112.836 -565.67 -338.465 c -96.711 -183.721 -145.046 -423.857 -145.046 -720.375 v -662.381 c 0 -219.203 -6.424 -367.439 -19.318 -444.792 h 580.18 c -9.659 70.886 -16.124 222.397 -19.358 454.495 l -4.81 652.721 c 0 183.721 20.938 315.873 62.844 396.416 c 48.375 99.943 137.002 149.896 265.924 149.896 c 90.242 0 191.762 -53.186 304.596 -159.555 v -1189.42 c 0 -54.801 -3.23 -117.645 -9.654 -188.57 c -6.469 -70.927 -9.659 -109.604 -9.659 -116.027 h 560.82 c -6.429 54.799 -9.659 156.32 -9.659 304.598 v 1479.46 c 0 190.145 3.23 311.023 9.659 362.59 h -527.287 v -174.02 c -148.401 128.92 -306.341 193.42 -473.81 193.42 h 0.248 Z"/>
  <path d="m 9187.68 3258.68 c -174.019 0 -319.064 -62.842 -435.133 -188.529 v 174.02 h -512.485 c 9.659 -54.76 14.549 -156.32 14.549 -304.598 v -2557.66 c 0 -190.188 -4.85 -311.024 -14.549 -362.634 h 551.202 c -6.465 57.993 -9.659 178.872 -9.659 362.634 v 841.251 c 148.239 -93.478 293.325 -140.236 435.137 -140.236 c 254.646 0 454.491 112.836 599.537 338.465 c 122.453 196.613 183.718 435.137 183.718 715.566 c 0 286.855 -64.459 536.652 -193.377 749.391 c -155.036 248.264 -361.473 372.332 -619.312 372.332 h 0.372 Z m -72.543 -1667.99 c -106.365 0 -217.585 53.186 -333.613 159.555 v 836.441 c 103.135 99.902 204.695 149.895 304.596 149.895 c 125.688 0 220.783 -69.311 285.282 -207.93 c 51.569 -109.602 77.353 -240.137 77.353 -391.607 c 0 -364.248 -111.094 -546.354 -333.698 -546.354 h 0.08 Z"/>
 </g>
 <g id="social" class="futura-heavy">
  <path d="m 2431.68 3707.62 c -30.673 -41.619 -70.094 -67.942 -123.777 -67.942 c -51.484 0 -100.774 39.464 -100.774 93.146 c 0 139.117 327.565 81.04 327.565 358.238 c 0 165.438 -102.969 282.629 -271.684 282.629 c -113.956 0 -197.194 -65.704 -254.152 -161.046 l 104.091 -101.893 c 21.888 63.548 79.963 120.504 148.984 120.504 c 65.702 0 106.244 -55.879 106.244 -119.427 c 0 -85.476 -78.887 -109.56 -143.512 -134.724 c -106.284 -43.857 -184.054 -97.538 -184.054 -225.671 c 0 -136.961 101.893 -247.6 241.012 -247.6 c 73.413 0 175.306 36.148 225.669 92.027 l -75.612 111.881 v -0.122 Z"/>
  <path d="m 2988.07 4373.73 c -251.994 0 -408.646 -192.8 -408.646 -436.046 c 0 -245.403 162.166 -433.807 408.646 -433.807 s 408.646 188.403 408.646 433.807 c 0.001 243.289 -156.652 436.046 -408.646 436.046 Z m 0 -711.005 c -152.259 0 -242.128 134.723 -242.128 268.409 c 0 127.054 63.548 283.748 242.128 283.748 c 178.581 0 242.085 -156.651 242.085 -283.748 c 0.044 -133.77 -89.784 -268.492 -242.085 -268.492 v 0.083 Z"/>
  <path d="m 4027.59 3744.88 c -44.895 -54.76 -112.835 -87.631 -181.856 -87.631 c -154.494 0 -243.205 142.433 -243.205 284.865 c 0 139.117 92.027 278.234 242.129 278.234 c 69.021 0 138.038 -36.147 182.977 -87.59 v 191.679 c -60.272 28.521 -120.506 49.288 -187.369 49.288 c -232.264 0 -404.254 -200.467 -404.254 -428.336 c 0 -234.46 165.441 -441.477 407.57 -441.477 c 64.624 0 128.172 17.534 184.053 48.169 v 192.798 h -0.045 Z"/>
  <path d="m 4294.96 4351.76 h -161.044 v -825.954 h 161.044 v 825.954 Z"/>
  <path d="m 4580.58 4177.65 l -67.945 174.188 h -169.791 l 322.092 -847.927 h 124.898 l 313.344 847.927 h -171.986 l -63.549 -174.188 h -287.063 Z m 139.281 -431.692 h -2.199 l -90.945 300.203 h 196.113 l -103.216 -300.203 h 0.247 Z"/>
  <path d="m 5313.47 4211.65 h 227.866 v 140.236 h -388.914 v -825.955 h 161.048 v 685.844 v -0.125 Z"/>
 </g>
 <g id="coding" class="futura-heavy">
  <path d="m 6461.31 3744.88 c -44.895 -54.76 -112.839 -87.631 -181.855 -87.631 c -154.499 0 -243.206 142.433 -243.206 284.865 c 0 139.117 92.022 278.234 242.129 278.234 c 69.017 0 138.038 -36.147 182.973 -87.59 v 191.679 c -60.272 28.521 -120.506 49.288 -187.369 49.288 c -232.264 0 -404.249 -200.467 -404.249 -428.336 c 0 -234.46 165.436 -441.477 407.564 -441.477 c 64.625 0 128.173 17.534 184.054 48.169 v 192.798 h -0.041 Z"/>
  <path d="m 6936.77 4373.73 c -251.994 0 -408.646 -192.8 -408.646 -436.046 c 0 -245.403 162.166 -433.807 408.646 -433.807 s 408.605 188.403 408.605 433.807 c 0 243.289 -156.692 436.046 -408.728 436.046 h 0.123 Z m 0 -711.005 c -152.297 0 -242.125 134.723 -242.125 268.409 c 0 127.054 63.544 283.748 242.125 283.748 c 178.58 0 242.129 -156.651 242.129 -283.748 c 0 -133.77 -89.955 -268.492 -242.085 -268.492 l -0.044 0.083 Z"/>
  <path d="m 7424.27 3525.8 h 230.105 c 238.812 0 398.74 178.58 398.74 414.076 c 0 232.304 -164.323 411.962 -399.857 411.962 h -228.948 v -825.955 l -0.04 -0.083 Z m 160.836 685.844 h 26.28 c 198.271 0 275.004 -109.56 275.004 -272.804 c 0 -179.657 -92.026 -272.762 -275.004 -272.762 h -26.28 v 545.566 Z"/>
  <path d="m 8292.71 4351.76 h -161.088 v -825.954 h 161.088 v 825.954 Z"/>
  <path d="m 8410.02 3503.87 h 116.154 l 434.926 577.358 h 2.194 v -555.432 h 161.048 v 842.455 h -116.109 l -434.433 -577.444 h -2.194 v 560.903 h -161.088 v -847.884 l -0.498 0.044 Z"/>
  <path d="m 9970.74 3912.52 v 20.81 c 0 233.34 -119.426 440.399 -375.73 440.399 c -241.012 0 -393.308 -203.742 -393.308 -431.611 c 0 -235.578 156.651 -438.201 403.173 -438.201 c 140.236 0 262.936 71.218 326.484 197.192 l -142.435 76.688 c -32.871 -74.49 -102.97 -131.448 -188.446 -131.448 c -155.57 0 -232.26 158.85 -232.26 295.812 c 0 136.919 77.766 289.217 233.341 289.217 c 100.812 0 185.171 -87.631 188.446 -187.367 h -175.307 v -131.449 h 355.668 l 0.374 -0.042 Z"/>
 </g>
</svg>
