<svg xmlns="http://www.w3.org/2000/svg" viewBox="0 0 379 334"
     xmlns:xlink="http://www.w3.org/1999/xlink">
 <g fill="#9cdaf1">
  <ellipse id="pool" cx="191" cy="296" rx="106" ry="37.5"/>
  <path d="m69.569 187.12l-3.066 10.683s-.8 3.861 2.84 4.546c3.8-.074 3.486-3.627 3.223-4.781z"/>
 </g>
 <clipPath id="mask"><use xlink:href="#pool"/></clipPath>
 <g clip-path="url(#mask)">
  <g fill="#7dbbe6" transform="translate(0 582)scale(1-1)">
   <use xlink:href="#l2"/>
   <use xlink:href="#l3"/>
   <g transform="translate(0 13.5)">
    <use xlink:href="#l1"/>
    <use xlink:href="#l4"/>
   </g>
  </g>
 </g>
 <use id="l1" xlink:href="#l4" transform="translate(379 0)scale(-1 1)"/>
 <use id="l2" xlink:href="#l3" transform="translate(379 0)scale(-1 1)"/>
 <path id="l3" d="m192 207.2l.453 58.06c.943 23.129 20.768 25.961 20.768 25.961c10.383 2.357 5.663-6.137 5.663-6.137c-7.08-5.193-7.551-18.881-7.551-18.881v-56.876"/>
 <path id="l4" d="m216.8 228v34.929c0 23.6 28.793 21.238 28.793 21.238c6.606-2.357 .474-6.606 .474-6.606c-10.386-3.775-11.33-15.105-11.33-15.105v-45.786"/>
 <path id="cat" d="m378.38 142.32l.28-1.389c-31.162-6.231-63.141-6.294-82.487-5.49c3.178-11.451 4.134-24.627 4.134-39.32c0-21.073-7.917-37.931-20.77-50.759c2.246-7.25 5.246-23.351-2.996-43.963c0 0-14.541-4.617-47.431 17.396c-12.884-3.22-26.596-4.81-40.328-4.81c-15.109 0-30.376 1.924-44.615 5.83c-33.94-23.154-48.923-18.411-48.923-18.411c-9.78 24.457-3.733 42.566-1.896 47.063c-11.495 12.406-18.513 28.243-18.513 47.659c0 14.658 1.669 27.808 5.745 39.237c-19.511-0.71-50.323-0.437-80.373 5.572l.276 1.389c30.231-6.046 61.237-6.256 80.629-5.522c.898 2.366 1.899 4.661 3.021 6.879c-19.177 .618-51.922 3.062-83.303 11.915l.387 1.36c31.629-8.918 64.658-11.301 83.649-11.882c11.458 21.358 34.048 35.152 74.236 39.484c-5.704 3.833-11.523 10.349-13.881 21.374c-7.773 3.718-32.379 12.793-47.142-12.599c0 0-8.264-15.109-24.082-16.292c0 0-15.344-0.235-1.059 9.562c0 0 10.267 4.838 17.351 23.019c0 0 9.241 31.01 53.835 21.061l18-2.5s-1.142-13.852 5.663-18.667l19.4-2h4.765l19.2 2.4c6.801 5.296 5.663 18.171 5.663 18.171l18-11c0-17.854-7.518-27.309-14.87-32.3c42.859-4.25 63.426-18.089 72.903-39.591c18.773 .516 52.557 2.803 84.873 11.919l.384-1.36c-32.131-9.063-65.692-11.408-84.655-11.96c.898-2.172 1.682-4.431 2.378-6.755c19.25-0.8 51.38-0.79 82.66 5.46
z"/>
 <path fill="#f4cbb2" d="m258.39 95.132c9.231 8.363 14.631 18.462 14.631 29.343 0 50.804-37.872 52.181-84.585 52.181-46.721 0-84.589-7.035-84.589-52.181 0-10.809 5.324-20.845 14.441-29.174 15.208-13.881 40.946-6.531 70.147-6.531 29.07-.004 54.72-7.429 69.95 6.357z"/>
 <path fill="#fff" d="m160.3 127.06c0 13.994-7.88 25.336-17.6 25.336s-17.6-11.342-17.6-25.336c0-13.992 7.88-25.33 17.6-25.33 9.72.01 17.6 11.34 17.6 25.33zm94.43 0c0 13.994-7.88 25.336-17.6 25.336s-17.6-11.342-17.6-25.336c0-13.992 7.88-25.33 17.6-25.33 9.72.01 17.6 11.34 17.6 25.33z"/>
 <g fill="#ad5c51">
  <path d="m154.66 127.38c0 9.328-5.26 16.887-11.734 16.887s-11.733-7.559-11.733-16.887c0-9.331 5.255-16.894 11.733-16.894 6.47 0 11.73 7.56 11.73 16.89zm94.42 0c0 9.328-5.26 16.887-11.734 16.887s-11.733-7.559-11.733-16.887c0-9.331 5.255-16.894 11.733-16.894 6.47 0 11.73 7.56 11.73 16.89z"/>
  <circle cy="148.56" cx="188.5" r="4.401"/>
  <path d="m178.43 160.69c-.26-.738.128-1.545.861-1.805.737-.26 1.546.128 1.805.861 1.134 3.198 4.167 5.346 7.551 5.346s6.417-2.147 7.551-5.346c.26-.738 1.067-1.121 1.805-.861s1.121 1.067.862 1.805c-1.529 4.324-5.639 7.229-10.218 7.229s-8.68-2.89-10.21-7.22z"/>
 </g>
 <path fill="#c3e4d8" d="m80.841 180.82c0 1.174-1.376 2.122-3.07 2.122-1.693 0-3.07-.948-3.07-2.122 0-1.175 1.377-2.127 3.07-2.127 1.694 0 3.07.95 3.07 2.13zm8.5 4.72c0 1.174-1.376 2.122-3.07 2.122-1.693 0-3.07-.948-3.07-2.122 0-1.175 1.377-2.127 3.07-2.127 1.694 0 3.07.95 3.07 2.13zm5.193 6.14c0 1.174-1.376 2.122-3.07 2.122-1.693 0-3.07-.948-3.07-2.122 0-1.175 1.377-2.127 3.07-2.127 1.694 0 3.07.95 3.07 2.13zm4.72 7.08c0 1.174-1.376 2.122-3.07 2.122-1.693 0-3.07-.948-3.07-2.122 0-1.175 1.377-2.127 3.07-2.127 1.694 0 3.07.95 3.07 2.13zm5.188 6.61c0 1.174-1.376 2.122-3.07 2.122-1.693 0-3.07-.948-3.07-2.122 0-1.175 1.377-2.127 3.07-2.127 1.694 0 3.07.95 3.07 2.13zm7.09 5.66c0 1.174-1.376 2.122-3.07 2.122-1.693 0-3.07-.948-3.07-2.122 0-1.175 1.377-2.127 3.07-2.127 1.694 0 3.07.95 3.07 2.13zm9.91 3.78c0 1.174-1.376 2.122-3.07 2.122-1.693 0-3.07-.948-3.07-2.122 0-1.175 1.377-2.127 3.07-2.127 1.694 0 3.07.95 3.07 2.13zm9.87 0c0 1.174-1.376 2.122-3.07 2.122-1.693 0-3.07-.948-3.07-2.122 0-1.175 1.377-2.127 3.07-2.127 1.694 0 3.07.95 3.07 2.13zm10.01-1.64c0 1.174-1.376 2.122-3.07 2.122-1.693 0-3.07-.948-3.07-2.122 0-1.175 1.377-2.127 3.07-2.127 1.694 0 3.07.95 3.07 2.13z"/>
</svg>
