<?xml version="1.0" encoding="utf-8"?>
<!-- Generator: Adobe Illustrator 14.0.0, SVG Export Plug-In . SVG Version: 6.00 Build 43363)  -->
<!DOCTYPE svg PUBLIC "-//W3C//DTD SVG 1.0//EN" "http://www.w3.org/TR/2001/REC-SVG-20010904/DTD/svg10.dtd">
<svg version="1.0" id="Layer_1" xmlns="http://www.w3.org/2000/svg" xmlns:xlink="http://www.w3.org/1999/xlink" x="0px" y="0px"
	 width="576px" height="576px" viewBox="0 0 576 576" enable-background="new 0 0 576 576" xml:space="preserve">
<g>
	<defs>
		<rect id="SVGID_1_" width="576" height="576"/>
	</defs>
	<clipPath id="SVGID_2_">
		<use xlink:href="#SVGID_1_"  overflow="visible"/>
	</clipPath>
	<path clip-path="url(#SVGID_2_)" fill-rule="evenodd" clip-rule="evenodd" d="M115.783,240.982c7.175,0,15.468-1.787,24.882-5.375
		v23.086c-2.094,0.743-5.084,1.562-8.967,2.462c1.195,3.442,1.796,6.65,1.796,9.644c0,9.556-2.879,17.89-8.633,24.994
		c-5.751,7.09-13.185,11.316-22.302,12.664c-5.976,0.888-8.965,4.104-8.965,9.632c0,1.945,0.972,3.89,2.913,5.835
		c2.538,2.833,6.275,4.633,11.21,5.375c21.367,3.286,32.048,12.175,32.048,26.678c0,23.154-13.821,34.747-41.466,34.747
		c-11.36,0-20.698-2.029-28.021-6.056c-9.262-5.078-13.898-13.079-13.898-23.99c0-12.55,6.949-21.148,20.846-25.773v-0.452
		c-5.076-3.132-7.618-7.917-7.618-14.342c0-8.376,2.392-13.599,7.174-15.688v-0.452c-4.782-1.639-9.043-5.383-12.775-11.21
		c-4.185-6.271-6.275-12.998-6.275-20.169c0-10.761,3.809-19.724,11.428-26.898c7.324-6.723,16.064-10.085,26.225-10.085
		C102.709,235.607,109.509,237.396,115.783,240.982 M116.683,358.886c0-7.626-6.279-11.432-18.833-11.432
		c-12.105,0-18.154,3.958-18.154,11.884c0,7.764,6.573,11.646,19.72,11.646C110.925,370.984,116.683,366.956,116.683,358.886
		 M82.161,272.813c0,10.31,4.709,15.463,14.12,15.463c9.115,0,13.672-5.222,13.672-15.686c0-4.333-1.042-8.074-3.136-11.209
		c-2.538-3.434-6.049-5.153-10.536-5.153C86.87,256.229,82.161,261.756,82.161,272.813"/>
	<path clip-path="url(#SVGID_2_)" fill-rule="evenodd" clip-rule="evenodd" d="M164.433,219.237c-4.33,0-8.032-1.643-11.095-4.924
		c-3.063-3.292-4.594-7.175-4.594-11.661c0-4.629,1.531-8.588,4.594-11.88c3.063-3.285,6.765-4.931,11.095-4.931
		c4.181,0,7.813,1.646,10.869,4.931c3.067,3.292,4.594,7.251,4.594,11.88c0,4.486-1.527,8.369-4.594,11.661
		C172.246,217.594,168.614,219.237,164.433,219.237"/>
	<polygon clip-path="url(#SVGID_2_)" fill-rule="evenodd" clip-rule="evenodd" points="152.104,336.244 152.104,321.007 
		152.104,251.293 152.104,236.722 176.535,236.722 176.535,250.845 176.535,319.659 176.535,336.244 	"/>
	<path clip-path="url(#SVGID_2_)" fill-rule="evenodd" clip-rule="evenodd" d="M223.368,236.722h19.499v21.298h-4.146h-5.716h-9.637
		v41.693c0,10.015,3.289,15.022,9.862,15.022c4.629,0,8.818-1.271,12.547-3.813v22.404c-5.529,3.002-12.171,4.487-19.947,4.487
		c-10.903,0-18.453-3.882-22.634-11.653c-3.14-5.827-4.709-15.016-4.709-27.573v-40.119v-0.448h-3.14h-7.622v-21.298h10.984v-8.736
		v-10.089h24.659v9.637V236.722z"/>
	<path clip-path="url(#SVGID_2_)" fill-rule="evenodd" clip-rule="evenodd" d="M302.098,236.048c-6.416,0-13.139,2.248-20.172,6.734
		v-39.23v-16.815H257.5v16.815v118.58v14.112h24.426v-5.557v-8.556V266.99c5.234-4.935,10.303-7.4,15.249-7.4
		c5.681,0,10.015,2.833,13.001,8.515c2.244,4.486,3.361,10.084,3.361,16.81l-0.12,30.265v21.064h24.998v-20.621v-30.708
		c0-12.998-2.909-24.058-8.736-33.17C323.102,241.281,313.913,236.048,302.098,236.048"/>
	<path clip-path="url(#SVGID_2_)" fill-rule="evenodd" clip-rule="evenodd" d="M381.455,337.14
		c-11.807,0-20.543-5.229-26.225-15.682c-4.479-8.529-6.723-19.647-6.723-33.399v-30.716v-20.621h24.948v21.072l-0.071,30.265
		c0,8.515,0.973,14.64,2.918,18.377c2.243,4.64,6.362,6.952,12.327,6.952c4.188,0,8.897-2.466,14.112-7.404v-55.138v-8.737v-5.387
		h24.671v14.124v68.591v16.807h-23.981v-8.062C396.54,334.153,389.228,337.14,381.455,337.14"/>
	<path clip-path="url(#SVGID_2_)" fill-rule="evenodd" clip-rule="evenodd" d="M482.337,336.918c-8.071,0-14.794-2.918-20.169-8.736
		v8.062h-23.086v-14.112v-118.58v-16.815h24.434v16.815v39.005c6.868-4.334,13.592-6.509,20.169-6.509
		c11.792,0,21.071,5.233,27.795,15.697c5.682,9.112,8.507,20.172,8.507,33.17c0,13.304-2.986,24.882-8.959,34.744
		C503.86,331.168,494.289,336.918,482.337,336.918 M478.976,259.59c-4.924,0-10.085,2.465-15.46,7.4v38.772
		c4.778,4.64,9.487,6.952,14.112,6.952c5.826,0,10.229-3.216,13.231-9.64c2.389-5.077,3.575-11.131,3.575-18.159
		C494.435,268.031,489.273,259.59,478.976,259.59"/>
	<path clip-path="url(#SVGID_2_)" d="M169.118,357.737c-1.42-1.93-3.246-3.155-5.735-3.155c-2.393,0-4.674,1.838-4.674,4.319
		c0,6.447,15.18,3.752,15.18,16.608c0,7.664-4.771,13.101-12.592,13.101c-5.283,0-9.143-3.048-11.784-7.466l4.827-4.725
		c1.015,2.956,3.706,5.59,6.911,5.59c3.04,0,4.927-2.588,4.927-5.543c0-3.951-3.66-5.069-6.658-6.233
		c-4.927-2.036-8.534-4.525-8.534-10.467c0-6.355,4.725-11.478,11.172-11.478c3.407,0,8.128,1.669,10.463,4.257L169.118,357.737z"/>
	<path clip-path="url(#SVGID_2_)" d="M194.915,388.61c-11.685,0-18.947-8.943-18.947-20.215c0-11.378,7.523-20.106,18.947-20.106
		c11.428,0,18.943,8.729,18.943,20.106C213.858,379.667,206.592,388.61,194.915,388.61 M194.915,355.654
		c-7.056,0-11.226,6.248-11.226,12.436c0,5.896,2.949,13.162,11.226,13.162c8.281,0,11.222-7.267,11.222-13.162
		C206.137,361.902,201.975,355.654,194.915,355.654"/>
	<path clip-path="url(#SVGID_2_)" d="M243.108,359.468c-2.087-2.55-5.233-4.073-8.431-4.073c-7.167,0-11.275,6.6-11.275,13.216
		c0,6.439,4.262,12.895,11.218,12.895c3.201,0,6.401-1.684,8.488-4.058v8.881c-2.795,1.326-5.59,2.282-8.683,2.282
		c-10.77,0-18.745-9.296-18.745-19.854c0-10.865,7.669-20.467,18.898-20.467c2.994,0,5.942,0.811,8.53,2.228V359.468z"/>
	<rect x="248.024" y="349.299" clip-path="url(#SVGID_2_)" width="7.473" height="38.301"/>
	<path clip-path="url(#SVGID_2_)" d="M268.744,379.529l-3.144,8.07h-7.875l14.939-39.311h5.789L292.97,387.6H285l-2.941-8.07
		H268.744z M275.199,359.506h-0.1l-4.215,13.928h9.089L275.199,359.506z"/>
	<polygon clip-path="url(#SVGID_2_)" points="302.733,381.099 313.285,381.099 313.285,387.6 295.253,387.6 295.253,349.299 
		302.733,349.299 	"/>
	<path clip-path="url(#SVGID_2_)" d="M355.95,359.468c-2.091-2.55-5.237-4.073-8.438-4.073c-7.167,0-11.271,6.6-11.271,13.216
		c0,6.439,4.266,12.895,11.218,12.895c3.201,0,6.401-1.684,8.492-4.058v8.881c-2.788,1.326-5.598,2.282-8.684,2.282
		c-10.773,0-18.752-9.296-18.752-19.854c0-10.865,7.673-20.467,18.89-20.467c3.002,0,5.949,0.811,8.546,2.228V359.468z"/>
	<path clip-path="url(#SVGID_2_)" d="M377.986,388.61c-11.684,0-18.951-8.943-18.951-20.215c0-11.378,7.52-20.106,18.951-20.106
		c11.417,0,18.937,8.729,18.937,20.106C396.923,379.667,389.656,388.61,377.986,388.61 M377.986,355.654
		c-7.066,0-11.232,6.248-11.232,12.436c0,5.896,2.948,13.162,11.232,13.162c8.27,0,11.218-7.267,11.218-13.162
		C389.204,361.902,385.039,355.654,377.986,355.654"/>
	<path clip-path="url(#SVGID_2_)" d="M400.567,349.299h10.682c11.057,0,18.483,8.285,18.483,19.195
		c0,10.782-7.626,19.105-18.538,19.105h-10.627V349.299z M408.049,381.099h1.201c9.212,0,12.765-5.076,12.765-12.642
		c0-8.338-4.272-12.649-12.765-12.649h-1.201V381.099z"/>
	<rect x="433.378" y="349.299" clip-path="url(#SVGID_2_)" width="7.466" height="38.301"/>
	<polygon clip-path="url(#SVGID_2_)" points="446.271,348.289 451.662,348.289 471.816,375.05 471.923,375.05 471.923,349.299 
		479.389,349.299 479.389,388.365 474.014,388.365 453.837,361.597 453.753,361.597 453.753,387.6 446.271,387.6 	"/>
	<path clip-path="url(#SVGID_2_)" d="M518.654,367.232v0.965c0,10.818-5.536,20.413-17.42,20.413c-11.188,0-18.247-9.448-18.247-20
		c0-10.927,7.259-20.321,18.69-20.321c6.509,0,12.19,3.3,15.139,9.142l-6.593,3.554c-1.531-3.454-4.786-6.096-8.737-6.096
		c-7.213,0-10.773,7.358-10.773,13.722c0,6.34,3.6,13.399,10.828,13.399c4.67,0,8.575-4.065,8.713-8.683h-8.124v-6.095H518.654z"/>
</g>
</svg>
