<svg xmlns="http://www.w3.org/2000/svg" viewBox="0 0 379 334">
 <g fill="#9cdaf1">
  <path d="m 297.14 296.43 c 0 20.533 -47.56 37.176 -106.22 37.176 c -58.67 0 -106.23 -16.643 -106.23 -37.176 s 47.558 -37.18 106.23 -37.18 c 58.66 0 106.22 16.65 106.22 37.18 Z"/>
  <path d="m 69.569 187.12 l -3.066 10.683 s -0.8 3.861 2.84 4.546 c 3.8 -0.074 3.486 -3.627 3.223 -4.781 Z"/>
 </g>
 <g fill="#7dbbe6">
  <path d="m 162.05 332.22 v -26.5 c 0 -3.422 -0.619 -6.284 -1.653 -8.701 c 6.853 5.322 7.316 18.695 7.316 18.695 v 17.004 c 6.166 0.481 12.534 0.773 19.053 0.861 l -0.172 -16.92 c -0.944 -23.13 -20.769 -25.961 -20.769 -25.961 c -7.245 -1.645 -7.137 1.991 -6.409 4.34 c -7.108 -12.122 -26.158 -10.556 -26.158 -10.556 c -6.611 2.357 -0.475 6.607 -0.475 6.607 c 10.387 3.775 11.33 15.105 11.33 15.105 v 23.622 c 5.72 0.98 11.71 1.79 17.94 2.4 Z"/>
  <path d="m 245.6 284.48 s -19.053 -1.566 -26.16 10.559 c 0.728 -2.35 0.839 -5.989 -6.408 -4.343 c 0 0 -19.824 2.832 -20.768 25.961 l -0.174 16.946 c 6.509 -0.025 12.876 -0.254 19.054 -0.671 v -17.219 s 0.465 -13.373 7.316 -18.695 c -1.034 2.417 -1.653 5.278 -1.653 8.701 v 26.775 c 6.214 -0.544 12.211 -1.279 17.937 -2.188 v -24.113 s 0.944 -11.33 11.33 -15.105 c 0 -0.01 6.13 -4.26 -0.48 -6.62 Z"/>
 </g>
 <path d="m 378.38 142.32 l 0.28 -1.389 c -31.162 -6.231 -63.141 -6.294 -82.487 -5.49 c 3.178 -11.451 4.134 -24.627 4.134 -39.32 c 0 -21.073 -7.917 -37.931 -20.77 -50.759 c 2.246 -7.25 5.246 -23.351 -2.996 -43.963 c 0 0 -14.541 -4.617 -47.431 17.396 c -12.884 -3.22 -26.596 -4.81 -40.328 -4.81 c -15.109 0 -30.376 1.924 -44.615 5.83 c -33.94 -23.154 -48.923 -18.411 -48.923 -18.411 c -9.78 24.457 -3.733 42.566 -1.896 47.063 c -11.495 12.406 -18.513 28.243 -18.513 47.659 c 0 14.658 1.669 27.808 5.745 39.237 c -19.511 -0.71 -50.323 -0.437 -80.373 5.572 l 0.276 1.389 c 30.231 -6.046 61.237 -6.256 80.629 -5.522 c 0.898 2.366 1.899 4.661 3.021 6.879 c -19.177 0.618 -51.922 3.062 -83.303 11.915 l 0.387 1.36 c 31.629 -8.918 64.658 -11.301 83.649 -11.882 c 11.458 21.358 34.048 35.152 74.236 39.484 c -5.704 3.833 -11.523 10.349 -13.881 21.374 c -7.773 3.718 -32.379 12.793 -47.142 -12.599 c 0 0 -8.264 -15.109 -24.082 -16.292 c 0 0 -15.344 -0.235 -1.059 9.562 c 0 0 10.267 4.838 17.351 23.019 c 0 0 9.241 31.01 53.835 21.061 v 32.032 s -0.943 11.33 -11.33 15.105 c 0 0 -6.137 4.249 0.475 6.606 c 0 0 28.792 2.361 28.792 -21.238 v -34.929 s -1.142 -13.852 5.663 -18.667 v 57.371 s -0.47 13.688 -7.551 18.881 c 0 0 -4.723 8.494 5.663 6.137 c 0 0 19.824 -2.832 20.769 -25.961 l 0.449 -58.06 h 4.765 l 0.453 58.06 c 0.943 23.129 20.768 25.961 20.768 25.961 c 10.383 2.357 5.663 -6.137 5.663 -6.137 c -7.08 -5.193 -7.551 -18.881 -7.551 -18.881 v -56.876 c 6.801 5.296 5.663 18.171 5.663 18.171 v 34.929 c 0 23.6 28.793 21.238 28.793 21.238 c 6.606 -2.357 0.474 -6.606 0.474 -6.606 c -10.386 -3.775 -11.33 -15.105 -11.33 -15.105 v -45.786 c 0 -17.854 -7.518 -27.309 -14.87 -32.3 c 42.859 -4.25 63.426 -18.089 72.903 -39.591 c 18.773 0.516 52.557 2.803 84.873 11.919 l 0.384 -1.36 c -32.131 -9.063 -65.692 -11.408 -84.655 -11.96 c 0.898 -2.172 1.682 -4.431 2.378 -6.755 c 19.25 -0.8 51.38 -0.79 82.66 5.46 Z"/>
 <path fill="#f4cbb2" d="m 258.39 95.132 c 9.231 8.363 14.631 18.462 14.631 29.343 c 0 50.804 -37.872 52.181 -84.585 52.181 c -46.721 0 -84.589 -7.035 -84.589 -52.181 c 0 -10.809 5.324 -20.845 14.441 -29.174 c 15.208 -13.881 40.946 -6.531 70.147 -6.531 c 29.07 -0.004 54.72 -7.429 69.95 6.357 Z"/>
 <path fill="#fff" d="m 160.3 127.06 c 0 13.994 -7.88 25.336 -17.6 25.336 c -9.72 0 -17.6 -11.342 -17.6 -25.336 c 0 -13.992 7.88 -25.33 17.6 -25.33 c 9.72 0.01 17.6 11.34 17.6 25.33 Z m 94.43 0 c 0 13.994 -7.88 25.336 -17.6 25.336 c -9.72 0 -17.6 -11.342 -17.6 -25.336 c 0 -13.992 7.88 -25.33 17.6 -25.33 c 9.72 0.01 17.6 11.34 17.6 25.33 Z"/>
 <g fill="#ad5c51">
   <path d="m 154.66 127.38 c 0 9.328 -5.26 16.887 -11.734 16.887 s -11.733 -7.559 -11.733 -16.887 c 0 -9.331 5.255 -16.894 11.733 -16.894 c 6.47 0 11.73 7.56 11.73 16.89 Z m 94.42 0 c 0 9.328 -5.26 16.887 -11.734 16.887 s -11.733 -7.559 -11.733 -16.887 c 0 -9.331 5.255 -16.894 11.733 -16.894 c 6.47 0 11.73 7.56 11.73 16.89 Z"/>
   <circle cx="188.5" cy="148.56" r="4.401"/>
   <path d="m 178.43 160.69 c -0.26 -0.738 0.128 -1.545 0.861 -1.805 c 0.737 -0.26 1.546 0.128 1.805 0.861 c 1.134 3.198 4.167 5.346 7.551 5.346 s 6.417 -2.147 7.551 -5.346 c 0.26 -0.738 1.067 -1.121 1.805 -0.861 s 1.121 1.067 0.862 1.805 c -1.529 4.324 -5.639 7.229 -10.218 7.229 s -8.68 -2.89 -10.21 -7.22 Z"/>
 </g>
 <path fill="#c3e4d8" d="m 80.841 180.82 c 0 1.174 -1.376 2.122 -3.07 2.122 c -1.693 0 -3.07 -0.948 -3.07 -2.122 c 0 -1.175 1.377 -2.127 3.07 -2.127 c 1.694 0 3.07 0.95 3.07 2.13 Z m 8.5 4.72 c 0 1.174 -1.376 2.122 -3.07 2.122 c -1.693 0 -3.07 -0.948 -3.07 -2.122 c 0 -1.175 1.377 -2.127 3.07 -2.127 c 1.694 0 3.07 0.95 3.07 2.13 Z m 5.193 6.14 c 0 1.174 -1.376 2.122 -3.07 2.122 c -1.693 0 -3.07 -0.948 -3.07 -2.122 c 0 -1.175 1.377 -2.127 3.07 -2.127 c 1.694 0 3.07 0.95 3.07 2.13 Z m 4.72 7.08 c 0 1.174 -1.376 2.122 -3.07 2.122 c -1.693 0 -3.07 -0.948 -3.07 -2.122 c 0 -1.175 1.377 -2.127 3.07 -2.127 c 1.694 0 3.07 0.95 3.07 2.13 Z m 5.188 6.61 c 0 1.174 -1.376 2.122 -3.07 2.122 c -1.693 0 -3.07 -0.948 -3.07 -2.122 c 0 -1.175 1.377 -2.127 3.07 -2.127 c 1.694 0 3.07 0.95 3.07 2.13 Z m 7.09 5.66 c 0 1.174 -1.376 2.122 -3.07 2.122 c -1.693 0 -3.07 -0.948 -3.07 -2.122 c 0 -1.175 1.377 -2.127 3.07 -2.127 c 1.694 0 3.07 0.95 3.07 2.13 Z m 9.91 3.78 c 0 1.174 -1.376 2.122 -3.07 2.122 c -1.693 0 -3.07 -0.948 -3.07 -2.122 c 0 -1.175 1.377 -2.127 3.07 -2.127 c 1.694 0 3.07 0.95 3.07 2.13 Z m 9.87 0 c 0 1.174 -1.376 2.122 -3.07 2.122 c -1.693 0 -3.07 -0.948 -3.07 -2.122 c 0 -1.175 1.377 -2.127 3.07 -2.127 c 1.694 0 3.07 0.95 3.07 2.13 Z m 10.01 -1.64 c 0 1.174 -1.376 2.122 -3.07 2.122 c -1.693 0 -3.07 -0.948 -3.07 -2.122 c 0 -1.175 1.377 -2.127 3.07 -2.127 c 1.694 0 3.07 0.95 3.07 2.13 Z"/>
</svg>
