<svg xmlns="http://www.w3.org/2000/svg" viewBox="269.75 185.25 123.25 89.75">
  <circle stroke="#4C4C4C" stroke-miterlimit="10" cx="340.25" cy="250.25" r="13"/>
  <path fill="#fe0002" d="M331.5,185.25c-33.965,0-61.75,27.535-61.75,61.5c0,9.887,2.25,19.216,6.25,27.492V275h0.622h33.56H338v-10.366c-6-0.735-10.521-5.634-11.871-10.634h-28.966c-0.428-3-0.663-4.689-0.663-7c0-19.33,15.67-35.125,35-35.125s35,15.857,35,35.188c0,11.305-5.364,20.938-13.682,27.938h33.561c4.225-9,6.621-18.012,6.621-28C393,213.035,365.466,185.25,331.5,185.25z"/>
</svg>
