<?xml version="1.0" encoding="utf-8"?>
<!-- Generator: Adobe Illustrator 15.0.2, SVG Export Plug-In . SVG Version: 6.00 Build 0)  -->
<!DOCTYPE svg PUBLIC "-//W3C//DTD SVG 1.1//EN" "http://www.w3.org/Graphics/SVG/1.1/DTD/svg11.dtd">
<svg version="1.1" id="Layer_1" xmlns="http://www.w3.org/2000/svg" xmlns:xlink="http://www.w3.org/1999/xlink" x="0px" y="0px"
	 width="666px" height="558px" viewBox="0 0 666 558" enable-background="new 0 0 666 558" xml:space="preserve">
<circle stroke="#4C4C4C" stroke-miterlimit="10" cx="340.25" cy="250.25" r="13"/>
<g>
	<g>
		<path fill="#ED1E24" d="M331.5,185.25c-33.965,0-61.75,27.535-61.75,61.5c0,9.887,2.25,19.216,6.25,27.492V275h0.622h33.56H338
			v-10.366c-6-0.735-10.521-5.634-11.871-10.634h-28.966c-0.428-3-0.663-4.689-0.663-7c0-19.33,15.67-35.125,35-35.125
			s35,15.857,35,35.188c0,11.305-5.364,20.938-13.682,27.938h33.561c4.225-9,6.621-18.012,6.621-28
			C393,213.035,365.466,185.25,331.5,185.25z"/>
	</g>
	<g>
		<path fill="none" stroke="#4C4C4C" stroke-miterlimit="10" d="M331.5,185.25c-33.965,0-61.5,27.535-61.5,61.5
			c0,9.887,2.354,19.216,6.5,27.492v0.258h0.122h33.56H338.5v-9.866c-6.098-0.735-11.021-5.248-12.371-11.134h-28.966
			c-0.428-2.185-0.663-4.439-0.663-6.75c0-19.33,15.67-35,35-35s35,15.67,35,35c0,11.305-5.364,21.351-13.682,27.75h33.561
			c4.225-8.339,6.621-17.762,6.621-27.75C393,212.785,365.466,185.25,331.5,185.25z"/>
	</g>
</g>
</svg>
