<?xml version="1.0" encoding="UTF-8"?>
<svg xmlns="http://www.w3.org/2000/svg" version="1.1" viewBox="0 0 166.25168 166.29857">
	<rect fill="#dc4e41" x="0" y="0" width="166.25168" height="166.29857" rx="9"/>
	<path fill="#fff" d="m78.532175,68.86758 c-5.0778,-3.086 -11.1934,-5.438 -17.1289,-3.349 -9.5747,2.726 -15.3719,14.03 -11.8297,23.397 2.9332,9.782 14.832,15.151 24.1574,11.041 4.8289,-1.729 8.0113,-6.184 9.4086,-10.972 h-16.6031 v-9.866 h27.7133 c0.5672,8.066 -0.6227,16.7 -5.8664,23.175 -7.1809,9.243 -20.4496,11.955 -31.2418,8.33 -11.4563,-3.764 -19.7856,-15.303 -19.5364,-27.396 -0.5675,-14.943 12.5215,-28.751 27.4782,-28.931 7.6238,-0.65 15.0398,2.311 20.8093,7.14 z"/>
	<path fill="#fff" d="m112.22277,70.62458 h8.246 v8.274 h8.274 v8.246 h-8.274 v8.274 h-8.246 v-8.274 h-8.274 v-8.246 h8.274 z"/>
</svg>
