<?xml version="1.0" encoding="UTF-8"?>
<svg xmlns="http://www.w3.org/2000/svg" version="1.1" viewBox="0 0 166.25168 166.29857">
	<path fill="#dc4e41" d="m 112.22277,70.62458 c -0.027,2.753 -0.055,5.52 -0.069,8.274 -2.767,0.027 -5.521,0.041 -8.274,0.055 0,2.754 0,5.493 0,8.246 2.753,0.014 5.521,0.028 8.274,0.056 0.028,2.753 0.028,5.507 0.055,8.274 2.74,0 5.493,-0.014 8.247,0 0.014,-2.767 0.027,-5.521 0.055,-8.288 2.753,-0.014 5.521,-0.028 8.274,-0.042 0,-2.753 0,-5.492 0,-8.246 -2.753,-0.014 -5.521,-0.028 -8.274,-0.055 -0.014,-2.754 -0.041,-5.521 -0.055,-8.274 -2.754,0 -5.493,0 -8.233,0 z m -74.631295,12.452 c -0.2492,12.093 8.0801,23.632 19.5364,27.396 10.7922,3.625 24.0609,0.913 31.2418,-8.33 5.2437,-6.475 6.4336,-15.109 5.8664,-23.175 -9.2422,-0.083 -18.4848,-0.055 -27.7133,-0.042 -0.0141,3.293 0,6.573 0.0137,9.866 5.5343,0.152 11.0687,0.083 16.6031,0.193 -1.3973,4.788 -4.5797,9.243 -9.4086,10.972 -9.3254,4.11 -21.2242,-1.259 -24.1574,-11.041 -3.5422,-9.367 2.255,-20.671 11.8297,-23.397 5.9355,-2.089 12.0511,0.263 17.1289,3.349 2.5738,-2.408 4.9808,-4.981 7.3468,-7.582 -5.7695,-4.829 -13.1855,-7.79 -20.8093,-7.14 -14.9567,0.18 -28.0457,13.988 -27.4782,28.931 z M 4.8274447,0.79358 c 1.99258,-0.788 4.17853,-0.678 6.2679303,-0.761 48.4817,0.056 96.963395,0 145.444395,0.028 5.382,-0.664 10.253,4.234 9.616,9.602 0.111,48.938 0.042,97.89 0.042,146.842 0.622,5.424 -4.234,10.28 -9.658,9.755 -48.938,0.013 -97.890095,0.013 -146.8279953,0 -5.42378,0.525 -10.280422,-4.331 -9.65777,-9.769 0,-48.938 -0.08281,-97.89 0.0418,-146.828 -0.304686,-3.597 1.61875,-7.084 4.73164,-8.869"/>
	<path fill="#fff" d="m 37.591475,83.07658 c -0.5675,-14.943 12.5215,-28.751 27.4782,-28.931 7.6238,-0.65 15.0398,2.311 20.8093,7.14 -2.366,2.601 -4.773,5.174 -7.3468,7.582 -5.0778,-3.086 -11.1934,-5.438 -17.1289,-3.349 -9.5747,2.726 -15.3719,14.03 -11.8297,23.397 2.9332,9.782 14.832,15.151 24.1574,11.041 4.8289,-1.729 8.0113,-6.184 9.4086,-10.972 -5.5344,-0.11 -11.0688,-0.041 -16.6031,-0.193 -0.0137,-3.293 -0.0278,-6.573 -0.0137,-9.866 9.2285,-0.013 18.4711,-0.041 27.7133,0.042 0.5672,8.066 -0.6227,16.7 -5.8664,23.175 -7.1809,9.243 -20.4496,11.955 -31.2418,8.33 -11.4563,-3.764 -19.7856,-15.303 -19.5364,-27.396"/>
	<path fill="#fff" d="m 112.22277,70.62458 c 2.74,0 5.479,0 8.233,0 0.014,2.753 0.041,5.52 0.055,8.274 2.753,0.027 5.521,0.041 8.274,0.055 0,2.754 0,5.493 0,8.246 -2.753,0.014 -5.521,0.028 -8.274,0.042 -0.028,2.767 -0.041,5.521 -0.055,8.288 -2.754,-0.014 -5.507,0 -8.247,0 -0.027,-2.767 -0.027,-5.521 -0.055,-8.274 -2.753,-0.028 -5.521,-0.042 -8.274,-0.056 0,-2.753 0,-5.492 0,-8.246 2.753,-0.014 5.507,-0.028 8.274,-0.055 0.014,-2.754 0.042,-5.521 0.069,-8.274"/>
</svg>
