<?xml version="1.0" encoding="UTF-8"?>
<svg xmlns="http://www.w3.org/2000/svg" version="1.1" viewBox="0 0 166.25168 166.29857">
	<rect fill="#dc4e41" x="0" y="0" width="166.25168" height="166.29857" rx="9"/>
	<path fill="#fff" d="m 37.591475,83.07658 c -0.5675,-14.943 12.5215,-28.751 27.4782,-28.931 7.6238,-0.65 15.0398,2.311 20.8093,7.14 l -7.3468,7.582 c -5.0778,-3.086 -11.1934,-5.438 -17.1289,-3.349 -9.5747,2.726 -15.3719,14.03 -11.8297,23.397 2.9332,9.782 14.832,15.151 24.1574,11.041 4.8289,-1.729 8.0113,-6.184 9.4086,-10.972 l -16.6031,-0.193 -0.0137,-9.866 27.7133,0.042 c 0.5672,8.066 -0.6227,16.7 -5.8664,23.175 -7.1809,9.243 -20.4496,11.955 -31.2418,8.33 -11.4563,-3.764 -19.7856,-15.303 -19.5364,-27.396"/>
	<path fill="#fff" d="m 112.22277,70.62458 8.233,0 0.055,8.274 8.274,0.055 0,8.246 -8.274,0.042 -0.055,8.288 -8.247,0 -0.055,-8.274 -8.274,-0.056 0,-8.246 8.274,-0.055 0.069,-8.274"/>
</svg>
