<svg viewBox="0 0 166.25 166.25" xmlns="http://www.w3.org/2000/svg">
	<rect fill="#dc4e41" width="100%" height="100%" rx="9"/>
	<path fill="#fff" d="M78.532 68.868c-5.0778-3.086-11.193-5.438-17.129-3.349-9.5747 2.726-15.372 14.03-11.83 23.397 2.9332 9.782 14.832 15.151 24.157 11.041 4.8289-1.729 8.0113-6.184 9.4086-10.972h-16.603v-9.866h27.713c0.5672 8.066-0.6227 16.7-5.8664 23.175-7.1809 9.243-20.45 11.955-31.242 8.33-11.456-3.764-19.786-15.303-19.536-27.396-0.5675-14.943 12.522-28.751 27.478-28.931 7.6238-0.65 15.04 2.311 20.809 7.14M112.22 70.625h8.246v8.274h8.274v8.246h-8.274v8.274h-8.246v-8.274h-8.274v-8.246h8.274"/>
</svg>
