<svg xmlns="http://www.w3.org/2000/svg" viewBox="0 0 300.75 132.374">
 <polygon fill="#bcbec0" opacity=".2" stroke="#636466" stroke-width=".75" points=".375 .375 300.375 .375 300.375 102.231 22.514 131.963"/>
 <linearGradient id="i" y2="85.3975" gradientUnits="userSpaceOnUse" y1="-45.4399" x2="164.1086" x1="141.8384">
  <stop stop-color="#545757" offset="0"/>
  <stop stop-color="#1f2323" offset="1"/>
 </linearGradient>
 <polygon fill="url(#i)" points="292.165 94.788 29.388 122.9 10.228 8.659 292.165 8.743"/>
 <polygon fill="#fff" opacity=".3" points="14.467 80.358 .972 .805 107.84 .921 .443 .375"/>
 <linearGradient id="j" gradientUnits="userSpaceOnUse" x1="49.624" x2="49.624" y1="37.1523" y2="73.1164">
  <stop stop-color="#fff" offset="0"/>
  <stop stop-color="#dcddde" offset="1"/>
 </linearGradient>
 <path fill="url(#j)" d="m49.65 74.638c-5.577 0-10.329-2.034-14.123-6.046-3.585-3.798-5.403-8.551-5.403-14.127 0-5.269 1.998-10.023 5.776-13.749 3.782-3.727 8.444-5.617 13.857-5.617 8.196 0 15.166 4.953 18.233 12.94h-10.479c-2.358-2.521-4.885-3.713-7.861-3.713-5.59 0-10.139 4.572-10.139 10.191 0 5.905 4.643 10.894 10.139 10.894 3.667 0 6.847-1.907 8.724-5.231l.105-.187h-11.019v-7.396h21.563c.052.837.1 1.653.1 2.406 0 4.275-1.067 7.916-3.262 11.129-3.659 5.326-9.719 8.506-16.211 8.506z"/>
 <path fill="#fff" d="m49.758 35.224c8.084 0 14.969 4.853 18.05 12.69h-10.19c-2.451-2.533-4.985-3.713-7.967-3.713-5.659 0-10.264 4.628-10.264 10.316 0 5.973 4.7 11.019 10.264 11.019 3.713 0 6.933-1.93 8.833-5.295l.21-.373h-11.108v-7.146h21.321c.047.769.092 1.555.092 2.281 0 4.25-1.06 7.867-3.24 11.058-3.636 5.292-9.657 8.453-16.108 8.453-5.542 0-10.263-2.021-14.032-6.007-3.563-3.774-5.369-8.498-5.369-14.042 0-5.234 1.984-9.958 5.739-13.659 3.758-3.704 8.39-5.582 13.769-5.582m0-.250c-5.437 0-10.175 1.938-13.945 5.653-3.768 3.715-5.813 8.561-5.813 13.838 0 5.653 1.83 10.392 5.437 14.213 3.769 3.985 8.561 6.085 14.214 6.085 6.515 0 12.652-3.23 16.314-8.561 2.208-3.231 3.284-6.892 3.284-11.199 0-.807-.054-1.669-.107-2.531h-21.807v7.646h10.93c-1.885 3.338-5.062 5.168-8.615 5.168-5.277 0-10.014-4.684-10.014-10.769 0-5.491 4.415-10.066 10.014-10.066 3.015 0 5.492 1.237 7.861 3.713h10.661c-3.069-8.183-10.23-13.19-18.414-13.19z"/>
 <linearGradient id="k" gradientUnits="userSpaceOnUse" x1="85.6934" x2="85.6934" y1="37.1558" y2="73.1115">
  <stop stop-color="#fff" offset="0"/>
  <stop stop-color="#dcddde" offset="1"/>
 </linearGradient>
 <path fill="url(#k)" d="m88.381 73.884l-7.519-12.662v12.662h-9.118v-38.032h12.582c4.233 0 7.165.34 9.618 2.079 3.396 2.369 5.117 5.939 5.117 10.612 0 6.156-3.206 10.719-8.576 12.208l-.172.048 9.331 13.086h-11.263zm-7.519-20.372h1.955c4.984 0 7.017-1.377 7.017-4.754 0-3.178-1.931-4.595-6.262-4.595h-2.709v9.349z"/>
 <path fill="#fff" d="m84.326 35.977c4.208 0 7.119.336 9.547 2.057 3.359 2.344 5.063 5.88 5.063 10.509 0 6.096-3.172 10.615-8.485 12.088l-.344.095.207.291 9.086 12.742h-10.948l-7.25-12.208-.465-.783v12.992h-8.868v-37.783h12.457m-3.589 17.66h2.08c5.006 0 7.142-1.459 7.142-4.879 0-3.264-1.97-4.72-6.387-4.72h-2.834v9.599m3.588-17.91h-12.707v38.282h9.368v-12.331l7.322 12.331h11.576l-9.368-13.138c5.437-1.507 8.668-6.137 8.668-12.329 0-4.739-1.776-8.346-5.169-10.714-2.584-1.83-5.653-2.101-9.69-2.101zm-3.339 17.66v-9.099h2.584c4.146 0 6.137 1.293 6.137 4.47 0 3.446-2.261 4.629-6.892 4.629h-1.829z"/>
 <linearGradient id="l" gradientUnits="userSpaceOnUse" x1="120.3188" x2="120.3188" y1="37.1523" y2="73.115">
  <stop stop-color="#fff" offset="0"/>
  <stop stop-color="#dcddde" offset="1"/>
 </linearGradient>
 <path fill="url(#l)" d="m120.345 74.583c-5.648 0-10.417-2.016-14.176-5.991-3.586-3.799-5.404-8.552-5.404-14.127 0-5.27 1.998-10.023 5.778-13.749 3.745-3.691 8.407-5.563 13.857-5.563 5.085 0 9.911 1.995 13.586 5.617 3.796 3.743 5.887 8.664 5.887 13.856 0 5.458-1.906 10.306-5.511 14.02-3.669 3.829-8.647 5.937-14.017 5.937zm.107-30.204c-5.776 0-10.3 4.478-10.3 10.193 0 5.846 4.668 10.784 10.193 10.784 5.75 0 10.086-4.636 10.086-10.784 0-5.62-4.477-10.193-9.979-10.193z"/>
 <path fill="#fff" d="m120.399 35.278c5.052 0 9.846 1.982 13.499 5.582 3.772 3.719 5.849 8.608 5.849 13.767 0 5.424-1.893 10.242-5.477 13.934-3.645 3.804-8.59 5.898-13.926 5.898-5.612 0-10.351-2.003-14.085-5.952-3.563-3.775-5.37-8.499-5.37-14.042 0-5.235 1.985-9.958 5.74-13.659 3.722-3.668 8.355-5.528 13.77-5.528m-.054 30.203c5.821 0 10.211-4.69 10.211-10.909 0-5.689-4.532-10.318-10.104-10.318-5.846 0-10.425 4.532-10.425 10.318 0 5.914 4.725 10.909 10.318 10.909m.054-30.453c-5.438 0-10.176 1.884-13.945 5.599-3.77 3.715-5.815 8.561-5.815 13.837 0 5.653 1.831 10.392 5.438 14.213 3.768 3.985 8.614 6.03 14.267 6.03 5.33 0 10.392-2.099 14.107-5.976 3.607-3.716 5.546-8.615 5.546-14.106 0-5.222-2.047-10.123-5.924-13.945-3.714-3.659-8.559-5.652-13.674-5.652zm-.054 30.203c-5.276 0-10.068-4.629-10.068-10.659 0-5.601 4.469-10.068 10.175-10.068 5.384 0 9.854 4.468 9.854 10.068 0 6.244-4.47 10.659-9.961 10.659z"/>
 <linearGradient id="m" gradientUnits="userSpaceOnUse" x1="156.5" x2="156.5" y1="37.1563" y2="73.1145">
  <stop stop-color="#fff" offset="0"/>
  <stop stop-color="#dcddde" offset="1"/>
 </linearGradient>
 <path fill="url(#m)" d="m156.312 74.475c-8.748 0-13.766-5.39-13.766-14.788v-23.835h9.171v23.458c0 4.529 1.477 6.639 4.647 6.639 3.345 0 4.971-2.171 4.971-6.639v-23.458h9.118v23.835c0 9.122-5.419 14.788-14.141 14.788z"/>
 <path fill="#fff" d="m170.328 35.977v23.71c0 9.045-5.371 14.663-14.017 14.663-8.669 0-13.641-5.345-13.641-14.663v-23.71h8.921v23.333c0 4.551 1.562 6.764 4.772 6.764 3.429 0 5.096-2.212 5.096-6.764v-23.333h8.869m.250-.250h-9.368v23.583c0 4.36-1.561 6.514-4.846 6.514-3.177 0-4.522-2.208-4.522-6.514v-23.583h-9.421v23.96c0 9.584 5.222 14.913 13.891 14.913 8.561 0 14.267-5.544 14.267-14.913v-23.96h-.001z"/>
 <linearGradient id="n" gradientUnits="userSpaceOnUse" x1="187.0635" x2="187.0635" y1="37.1558" y2="73.1115">
  <stop stop-color="#fff" offset="0"/>
  <stop stop-color="#dcddde" offset="1"/>
 </linearGradient>
 <path fill="url(#n)" d="m173.405 73.884v-38.032h12.582c4.233 0 7.165.34 9.618 2.079 3.396 2.37 5.116 5.958 5.116 10.666 0 4.833-2.195 8.934-6.023 11.252-2.367 1.419-5.336 1.704-9.358 1.704h-2.816v12.331h-9.119zm9.226-20.372h1.848c4.983 0 7.017-1.377 7.017-4.754 0-3.178-1.932-4.595-6.263-4.595h-2.602v9.349z"/>
 <path fill="#fff" d="m185.987 35.977c4.209 0 7.12.336 9.547 2.057 3.359 2.344 5.063 5.898 5.063 10.563 0 4.788-2.174 8.85-5.963 11.145-2.342 1.404-5.293 1.687-9.294 1.687h-2.941v12.331h-8.868v-37.783h12.456m-3.481 17.66h1.973c5.006 0 7.142-1.459 7.142-4.879 0-3.264-1.97-4.72-6.388-4.72h-2.727v9.599m3.481-17.91h-12.707v38.282h9.368v-12.331h2.691c3.984 0 6.999-.269 9.423-1.722 3.822-2.315 6.084-6.406 6.084-11.359 0-4.793-1.776-8.4-5.169-10.768-2.583-1.831-5.653-2.102-9.69-2.102zm-3.231 17.66v-9.099h2.477c4.146 0 6.138 1.293 6.138 4.47 0 3.446-2.261 4.629-6.892 4.629h-1.723z"/>
 <linearGradient id="o" y2="73.115" gradientUnits="userSpaceOnUse" y1="37.1523" x2="221.7637" x1="221.7637">
  <stop stop-color="#fff" offset="0"/>
  <stop stop-color="#dcddde" offset="1"/>
 </linearGradient>
 <path fill="url(#o)" d="m221.79 74.583c-5.648 0-10.418-2.016-14.176-5.991-3.586-3.799-5.404-8.552-5.404-14.127 0-5.269 1.998-10.023 5.777-13.749 3.746-3.691 8.408-5.563 13.857-5.563 5.085 0 9.91 1.995 13.586 5.617 3.796 3.743 5.887 8.664 5.887 13.856 0 5.458-1.905 10.306-5.511 14.02-3.668 3.829-8.646 5.937-14.016 5.937zm.107-30.204c-5.775 0-10.3 4.478-10.3 10.193 0 5.846 4.668 10.784 10.192 10.784 5.75 0 10.086-4.636 10.086-10.784.001-5.62-4.476-10.193-9.978-10.193z"/>
 <path fill="#fff" d="m221.845 35.278c5.052 0 9.846 1.982 13.498 5.582 3.827 3.772 5.85 8.533 5.85 13.767 0 5.424-1.894 10.242-5.477 13.934-3.645 3.804-8.59 5.898-13.926 5.898-5.612 0-10.352-2.003-14.085-5.952-3.563-3.775-5.37-8.499-5.37-14.042 0-5.234 1.984-9.958 5.74-13.659 3.722-3.668 8.355-5.528 13.77-5.528m-.055 30.203c5.821 0 10.211-4.69 10.211-10.909 0-5.689-4.532-10.318-10.104-10.318-5.846 0-10.425 4.532-10.425 10.318.001 5.914 4.725 10.909 10.318 10.909m.055-30.453c-5.438 0-10.176 1.884-13.945 5.599s-5.814 8.561-5.814 13.837c0 5.653 1.831 10.392 5.438 14.213 3.768 3.985 8.613 6.03 14.267 6.03 5.33 0 10.392-2.099 14.106-5.976 3.607-3.716 5.546-8.615 5.546-14.106 0-5.222-2.047-10.123-5.924-13.945-3.715-3.659-8.559-5.652-13.674-5.652zm-.055 30.203c-5.276 0-10.067-4.629-10.067-10.659 0-5.601 4.469-10.068 10.175-10.068 5.385 0 9.854 4.468 9.854 10.068-.001 6.244-4.47 10.659-9.962 10.659z"/>
 <linearGradient id="p" y2="73.1115" gradientUnits="userSpaceOnUse" y1="37.1558" x2="259.2139" x1="259.2139">
  <stop stop-color="#fff" offset="0"/>
  <stop stop-color="#dcddde" offset="1"/>
 </linearGradient>
 <polygon fill="url(#p)" points="266.979 73.884 252.521 52.276 252.521 73.884 243.402 73.884 243.402 35.852 251.662 35.852 265.907 57.41 265.907 35.852 275.025 35.852 275.025 73.884"/>
 <path fill="#fff" d="m274.9 35.977v37.782h-7.854l-14.193-21.21-.458-.684v21.894h-8.868v-37.782h8.067l13.979 21.155.459.694v-21.849h8.868m.250-.250h-9.368v21.267l-14.053-21.267h-8.452v38.282h9.368v-21.321l14.268 21.321h8.237v-38.282z"/>
</svg>
