<svg xmlns="http://www.w3.org/2000/svg" xmlns:xlink="http://www.w3.org/1999/xlink" viewBox="0 0 2406 1059">
 <path fill="#bcbec0" opacity=".2" stroke="#636466" stroke-width="6" d="M
3
3
H
2403
V
818
L
180
1056
Z"/>
 <linearGradient id="i" gradientUnits="userSpaceOnUse" x1="1135" x2="1313" y1="-364" y2="683">
  <stop stop-color="#545757"/>
  <stop stop-color="#1f2323" offset="1"/>
 </linearGradient>
 <path fill="url(#i)" d="M
2337
758
235
983
82
69
2337
70
Z"/>
 <path fill="#fff" opacity=".3" d="M
116
643
8
6
863
7
4
3
Z"/>
 <linearGradient id="t" gradientUnits="userSpaceOnUse" x2="0" y1="297" y2="585">
  <stop stop-color="#fff"/>
  <stop stop-color="#dcddde" offset="1"/>
 </linearGradient>
 <g fill="url(#t)" stroke="#fff" stroke-width="2">
  <path d="M
397
597
C
353
597
315
581
284
549
C
256
518
241
480
241
436
C
241
394
257
356
287
326
C
317
296
355
281
398
281
C
464
281
519
320
544
384
H
460
C
441
364
421
355
397
355
C
352
355
316
391
316
436
C
316
483
353
523
397
523
C
427
523
452
508
467
481
L
468
480
H
380
V
421
H
552
C
553
427
553
434
553
440
C
553
474
544
503
527
529
C
498
572
449
597
397
597
Z"/>
  <path d="M
707
591
L
647
490
V
591
H
574
V
287
H
675
C
708
287
732
290
752
303
C
779
322
792
351
792
388
C
792
438
767
474
724
486
L
723
486
L
797
591
H
707
Z M
647
428
H
663
C
702
428
719
417
719
390
C
719
365
703
353
669
353
H
647
V
428
Z"/>
  <path id="o" d="M
963
283
C
875
283
805
354
805
441
S
875
599
963
599
S
1121
528
1121
441
S
1050
283
963
283
M
963
358
C
1009
358
1046
395
1046
441
S
1009
525
963
525
S
879
487
879
441
S
917
358
963
358
Z"/>
  <path d="M
1251
596
C
1181
596
1140
553
1140
478
V
287
H
1214
V
474
C
1214
511
1226
528
1251
528
C
1278
528
1291
510
1291
474
V
287
H
1364
V
478
C
1364
550
1320
596
1251
596
Z"/>
  <path d="M
1387
591
V
287
H
1488
C
1522
287
1545
290
1565
303
C
1592
322
1606
351
1606
389
C
1606
427
1588
460
1558
479
C
1539
490
1515
492
1483
492
H
1460
V
591
H
1387
Z M
1461
428
H
1476
C
1516
428
1532
417
1532
390
C
1532
365
1517
353
1482
353
H
1461
V
428
Z"/>
  <use xlink:href="#o" transform="translate(
812
)"/>
  <path d="M
2136
591
L
2020
418
V
591
H
1947
V
287
H
2013
L
2127
459
V
287
H
2200
V
591
Z"/>
 </g>
</svg>
