<svg xmlns="http://www.w3.org/2000/svg" xmlns:xlink="http://www.w3.org/1999/xlink" viewBox="0 0 2406 1059">
 <path fill="#bcbec0" opacity=".2" stroke="#636466" stroke-width="6" d="M
3
3
H
2403
V
817.85
L
180.11
1055.7
Z"/>
 <linearGradient id="i" gradientUnits="userSpaceOnUse" x1="1134.71" x2="1312.87" y1="-363.519" y2="683.18">
  <stop stop-color="#545757"/>
  <stop stop-color="#1f2323" offset="1"/>
 </linearGradient>
 <path fill="url(#i)" d="M
2337.32
758.3
235.1
983.2
81.82
69.27
2337.32
69.94
Z"/>
 <path fill="#fff" opacity=".3" d="M
115.74
642.86
7.78
6.44
862.72
7.37
3.54
3
Z"/>
 <linearGradient id="t" gradientUnits="userSpaceOnUse" x2="0" y1="297.22" y2="584.93">
  <stop stop-color="#fff"/>
  <stop stop-color="#dcddde" offset="1"/>
 </linearGradient>
 <g fill="url(#t)" stroke="#fff" stroke-width="2">
  <path d="M
397.2
597.1
C
352.58
597.1
314.57
580.83
284.22
548.74
C
255.54
518.35
240.99
480.33
240.99
435.72
C
240.99
393.57
256.98
355.54
287.2
325.73
C
317.46
295.91
354.75
280.79
398.06
280.79
C
463.62
280.79
519.38
320.42
543.92
384.31
H
460.09
C
441.22
364.14
421.01
354.61
397.2
354.61
C
352.48
354.61
316.09
391.18
316.09
436.14
C
316.09
483.38
353.23
523.29
397.2
523.29
C
426.54
523.29
451.98
508.03
466.99
481.44
L
467.83
479.94
H
379.68
V
420.78
H
552.18
C
552.6
427.47
552.98
434
552.98
440.02
C
552.98
474.22
544.45
503.35
526.89
529.06
C
497.62
571.66
449.14
597.1
397.2
597.1
Z"/>
  <path d="M
707.05
591.07
L
646.9
489.78
V
591.07
H
573.95
V
286.82
H
674.61
C
708.47
286.82
731.93
289.54
751.55
303.45
C
778.72
322.4
792.49
350.96
792.49
388.34
C
792.49
437.59
766.84
474.1
723.88
486.01
L
722.5
486.39
L
797.15
591.08
H
707.05
Z M
646.9
428.1
H
662.54
C
702.41
428.1
718.67
417.08
718.67
390.06
C
718.67
364.64
703.22
353.3
668.58
353.3
H
646.9
V
428.1
Z"/>
  <path id="o" d="M
962.76
282.92
C
875.42
282.92
804.61
353.73
804.61
441.07
S
875.42
599.22
962.76
599.22
S
1120.91
528.42
1120.91
441.07
S
1050.1
282.92
962.76
282.92
M
962.76
357.6
C
1008.86
357.6
1046.24
394.98
1046.24
441.08
S
1008.86
524.56
962.76
524.56
S
879.28
487.18
879.28
441.08
S
916.66
357.6
962.76
357.6
Z"/>
  <path d="M
1250.5
595.8
C
1180.51
595.8
1140.37
552.68
1140.37
477.5
V
286.82
H
1213.74
V
474.48
C
1213.74
510.71
1225.55
527.59
1250.91
527.59
C
1277.67
527.59
1290.68
510.22
1290.68
474.48
V
286.82
H
1363.62
V
477.5
C
1363.62
550.47
1320.27
595.8
1250.5
595.8
Z"/>
  <path d="M
1387.24
591.07
V
286.82
H
1487.9
C
1521.76
286.82
1545.22
289.54
1564.84
303.45
C
1592.01
322.41
1605.77
351.11
1605.77
388.78
C
1605.77
427.44
1588.21
460.25
1557.58
478.79
C
1538.65
490.14
1514.9
492.42
1482.72
492.42
H
1460.19
V
591.07
H
1387.24
Z M
1461.05
428.1
H
1475.83
C
1515.7
428.1
1531.97
417.08
1531.97
390.06
C
1531.97
364.64
1516.51
353.3
1481.86
353.3
H
1461.05
V
428.1
Z"/>
  <use xlink:href="#o" transform="translate(
811.56
)"/>
  <path d="M
2135.83
591.07
L
2020.17
418.21
V
591.07
H
1947.22
V
286.82
H
2013.3
L
2127.26
459.28
V
286.82
H
2200.2
V
591.07
Z"/>
 </g>
</svg>
