<svg viewBox="0 0 774 854" xmlns="http://www.w3.org/2000/svg">
	<path fill="#00acbd" d="
		M774,854
		l-88,-82
		h-564
		c-64,0 -122,-58 -122,-122
		v-528
		c0,-64 58,-122 122,-122
		h528
		c64,0 122,58 122,122
		v425
		c0,17 -16,33 -33,33
		c-17,0 -33,-16 -33,-33
		v-421
		c0,-33 -27,-60 -60,-60
		h-520
		c-33,0 -60,27 -60,60
		v520
		c0,33 27,60 60,60
		h615
		c17,0 33,16 33,33
		z"/>
	<path stroke="#1e143f" stroke-width="66" stroke-linecap="round" d="
		M148,172 h94
		M192,278 h338
		M192,384 h392
		M192,490 h326
		M148,596 h226
	"/>
</svg>
