<svg xmlns="http://www.w3.org/2000/svg" viewBox="0 0 512 512">
 <title>HTML5 Logo</title>
 <polygon points="107.644 470.877 74.633 100.62 437.367 100.62 404.321 470.819 255.778 512" fill="#E44D26"/>
 <polygon points="256 480.523 376.03 447.246 404.27 130.894 256 130.894" fill="#F16529"/>
 <polygon points="256 268.217 195.91 268.217 191.76 221.716 256 221.716 256 176.305 255.843 176.305 142.132 176.305 143.219 188.488 154.38 313.627 256 313.627" fill="#EBEBEB"/>
 <polygon points="256 386.153 255.801 386.206 205.227 372.55 201.994 336.333 177.419 336.333 156.409 336.333 162.771 407.634 255.791 433.457 256 433.399" fill="#EBEBEB"/>
 <path d="m108.382 0h23.077v22.8h21.11v-22.8h23.078v69.044h-23.077v-23.12h-21.11v23.12h-23.077v-69.044z"/>
 <path d="m205.994 22.896h-20.316v-22.896h63.72v22.896h-20.325v46.148h-23.078v-46.148z"/>
 <path d="m259.511 0h24.063l14.802 24.26 14.787-24.26h24.072v69.044h-22.982v-34.222l-15.877 24.549h-.397l-15.888-24.549v34.222h-22.58v-69.044z"/>
 <path d="m348.72 0h23.084v46.222h32.453v22.822h-55.537v-69.044z"/>
 <polygon points="255.843 268.217 255.843 313.627 311.761 313.627 306.49 372.521 255.843 386.191 255.843 433.435 348.937 407.634 349.62 399.962 360.291 280.411 361.399 268.217 349.162 268.217" fill="#fff"/>
 <polygon points="255.843 176.305 255.843 204.509 255.843 221.605 255.843 221.716 365.385 221.716 365.385 221.716 365.531 221.716 366.442 211.509 368.511 188.488 369.597 176.305" fill="#fff"/>
</svg>
