<svg xmlns="http://www.w3.org/2000/svg" viewBox="0 0 10000 14115">
  <path fill="#e44d26" d="m910.1 12980l-910.1-10210h1e4l-911 10210-4095 1135z"/>
  <path fill="#f16529" d="m5e3 13250l3309-917.4 778.5-8721h-4088z"/>
  <path fill="#ebebeb" d="m5e3 7394h-1657l-114.4-1282h1771v-1252h-3139l29.96 335.9 307.7 3450h2801m0 2004l-5.484 1.457-1394-376.5-89.13-998.4h-1258l175.4 1966 2564 711.9 5.756-1.605z"/>
  <path d="m930.4 0h636.2v628.6h582v-628.6h636.2v1903h-636.2v-637.4h-582v637.4h-636.6v-1903zm2691 631.2h-560.1v-631.2h1757v631.2h-560.3v1272h-636.2v-1272l-1 .2zm1476-631.2h663.4l408.1 668.8 408-668.8h663.6v1903h-633.6v-943l-437.7 676.8h-10.94l-438-676.8v943.4h-622.5v-1904h1zm2459 0h636.4v1274h894.7v629.2h-1531v-1903z"/>
  <path fill="#fff" d="m4996 7394v1252h1541l-145.3 1624-1396 376.9v1302l2566-711.3 18.82-211.5 294.2-3296 30.53-336.2h-337.3m-2573-2538v1252h3024l25.1-281.4 57.04-634.7 29.94-335.9z"/>
</svg>
