<svg xmlns="http://www.w3.org/2000/svg" viewBox="0 0 10000 14115">
  <path fill="#e44d26" d="m910 12980l-910-10210h1e4l-911 10210-4095 1135"/>
  <path fill="#f16529" d="m5e3 13250l3309-917 779-8721h-4088"/>
  <path fill="#ebebeb" d="m5e3 7394h-1657l-114-1282h1771v-1252h-3139l30 336 308 3450h2801m0 2004l-5 1-1394-376-89-998h-1258l175 1966 2564 712"/>
  <path d="m930 0h636v629h582v-629h636v1903h-636v-637h-582v637h-637zm2691 631h-560v-631h1757v631h-560v1272h-636v-1272zm1476-631h663l408 669 408-669h664v1903h-634v-943l-438 677h-11l-438-677v943h-623v-1904zm2459 0h636v1274h895v629h-1531"/>
  <path fill="#fff" d="m4996 7394v1252h1541l-145 1624-1396 377v1302l2566-711 19-212 294-3296 31-336h-337m-2573-2538v1252h3024l25-281 57-635 30-336"/>
</svg>
