<svg xmlns="http://www.w3.org/2000/svg" viewBox="0 0 109.40017 100.77499">
 <defs>
  <radialGradient id="c" gradientUnits="userSpaceOnUse" cy="169.83791" cx="157.0107" gradientTransform="matrix(.869 .4949 -.4095 .7191 90.1259 -29.9967)" r="175.4256">
   <stop stop-color="#3dc5f1" offset=".4713"/>
   <stop stop-color="#31a5dc" offset=".7905"/>
   <stop stop-color="#1e71b8" offset="1"/>
  </radialGradient>
  <radialGradient id="b" gradientUnits="userSpaceOnUse" cy="195.98" cx="171.77879" gradientTransform="matrix(.7101 .7041 -1.8774 1.8936 417.7134 -296.0714)" r="78.793503">
   <stop stop-color="#ffcc09" offset=".638"/>
   <stop stop-color="#f2ed7e" stop-opacity=".96" offset=".8712"/>
   <stop stop-color="#f3ec79" stop-opacity=".8057" offset=".8919"/>
   <stop stop-color="#f4e76a" stop-opacity=".6187" offset=".917"/>
   <stop stop-color="#f7e051" stop-opacity=".4146" offset=".9444"/>
   <stop stop-color="#fbd730" stop-opacity=".2" offset=".9732"/>
   <stop stop-color="#ffcc09" stop-opacity="0" offset="1"/>
  </radialGradient>
  <radialGradient id="a" gradientUnits="userSpaceOnUse" cy="204.3584" cx="188.8398" gradientTransform="matrix(.7015 .7127 -1.8844 1.8549 441.4625 -309.2913)" r="89.172897">
   <stop stop-color="#f2ed7e" stop-opacity="0" offset=".5583"/>
   <stop stop-color="#ffcc09" offset=".7398"/>
   <stop stop-color="#f2ed7e" stop-opacity=".96" offset=".8712"/>
   <stop stop-color="#f3eb77" stop-opacity=".8174" offset=".8903"/>
   <stop stop-color="#f5e562" stop-opacity=".6033" offset=".919"/>
   <stop stop-color="#f9dc40" stop-opacity=".3442" offset=".9538"/>
   <stop stop-color="#fecf12" stop-opacity=".0522" offset=".993"/>
   <stop stop-color="#ffcc09" stop-opacity="0" offset="1"/>
  </radialGradient>
 </defs>
 <g transform="translate(15.74869,-265.30153)">
  <g transform="matrix(.38462212 0 0 .38462212 -30.92626 239.595)">
   <path fill="url(#c)" d="m204.013 271.924c-20.214 0-37.787-11.293-46.766-27.908-4.052-7.502-6.356-16.09-6.356-25.215v-.244h171.061c.508-4.504.795-9.072.795-13.711 0-66.792-54.145-120.935-120.936-120.935-66.792 0-120.937 54.144-120.937 120.935s54.145 120.936 120.937 120.936c53.076 0 98.134-34.207 114.413-81.766h-65.447c-8.977 16.615-26.552 27.908-46.764 27.908zm-2.201-133.177c27.136 0 49.306 21.229 50.829 47.983h-101.66c1.523-26.754 23.694-47.983 50.831-47.983z"/>
   <g stroke-width="1.46889997" fill="none" stroke-miterlimit="10">
    <path opacity=".5" stroke="#fff" d="m204.429 273.173c-20.213 0-37.786-11.293-46.766-27.908-4.052-7.502-6.356-16.09-6.356-25.215v-.244h171.06c.508-4.504.795-9.072.795-13.711 0-66.792-54.145-120.935-120.936-120.935s-120.934 54.143-120.934 120.935c0 66.791 54.145 120.936 120.936 120.936 53.076 0 98.134-34.207 114.413-81.766h-65.447c-8.978 16.615-26.553 27.908-46.765 27.908zm-2.201-133.177c27.136 0 49.306 21.229 50.829 47.983h-101.66c1.524-26.754 23.694-47.983 50.831-47.983z"/>
    <path stroke="#0f5ea8" d="m204.013 271.924c-20.214 0-37.787-11.293-46.766-27.908-4.052-7.502-6.356-16.09-6.356-25.215v-.244h171.061c.508-4.504.795-9.072.795-13.711 0-66.792-54.145-120.935-120.936-120.935-66.792 0-120.937 54.144-120.937 120.935s54.145 120.936 120.937 120.936c53.076 0 98.134-34.207 114.413-81.766h-65.447c-8.977 16.615-26.552 27.908-46.764 27.908zm-2.201-133.177c27.136 0 49.306 21.229 50.829 47.983h-101.66c1.523-26.754 23.694-47.983 50.831-47.983z"/>
    <path opacity=".1" stroke="#231f20" d="m203.597 271.508c-20.214 0-37.787-11.293-46.767-27.908-4.052-7.502-6.356-16.09-6.356-25.215v-.244h171.061c.508-4.504.795-9.072.795-13.711 0-66.792-54.145-120.936-120.936-120.936-66.792 0-120.937 54.144-120.937 120.936 0 66.791 54.145 120.936 120.937 120.936 53.076 0 98.134-34.207 114.413-81.766h-65.447c-8.976 16.615-26.551 27.908-46.763 27.908zm-2.201-133.177c27.136 0 49.306 21.229 50.829 47.983h-101.66c1.523-26.755 23.693-47.983 50.831-47.983z"/>
   </g>
   <path opacity=".25" fill="url(#b)" d="m139.395 309.66c-26.71 12.176-48.584 14.281-59.485 3.379-22.308-22.309 9.694-90.48 71.479-152.265 61.785-61.784 129.958-93.787 152.265-71.479 9.521 9.522 9.119 27.415.759 49.583 1.224 1.896 2.398 3.824 3.518 5.789 11.229-29.285 11.103-54.192-3.663-68.957-22.891-22.891-127.825 11.614-194.547 78.338-66.721 66.72-83.358 140.643-60.715 163.286 17.253 17.254 62.211 14.289 98.166-3.396-2.649-1.334-5.241-2.764-7.777-4.278z"/>
   <path fill="#ffcc09" d="m139.395 309.66c-26.71 12.176-48.584 14.281-59.485 3.379-22.308-22.309 9.694-90.48 71.479-152.265 61.785-61.784 129.958-93.787 152.265-71.479 9.521 9.522 9.119 27.415.759 49.583 1.224 1.896 2.398 3.824 3.518 5.789 11.229-29.285 11.103-54.192-3.663-68.957-22.891-22.891-109.786-1.605-176.507 65.118-66.723 66.723-87.764 153.861-65.12 176.506 17.253 17.254 48.578 14.289 84.533-3.396-2.651-1.334-5.243-2.764-7.779-4.278z"/>
   <path fill="url(#a)" d="m139.395 309.66c-26.71 12.176-48.584 14.281-59.485 3.379-22.308-22.309 9.694-90.48 71.479-152.265 61.785-61.784 129.958-93.787 152.265-71.479 9.521 9.522 9.119 27.415.759 49.583 1.224 1.896 2.398 3.824 3.518 5.789 11.229-29.285 11.103-54.192-3.663-68.957-22.891-22.891-109.786-1.605-176.507 65.118-66.723 66.723-87.764 153.861-65.12 176.506 17.253 17.254 48.578 14.289 84.533-3.396-2.651-1.334-5.243-2.764-7.779-4.278z"/>
  </g>
 </g>
</svg>
