<?xml version="1.0" encoding="utf-8"?>
<!-- Generator: Adobe Illustrator 13.0.0, SVG Export Plug-In . SVG Version: 6.00 Build 14948)  -->
<!DOCTYPE svg PUBLIC "-//W3C//DTD SVG 1.1//EN" "http://www.w3.org/Graphics/SVG/1.1/DTD/svg11.dtd">
<svg version="1.1" id="Layer_1" xmlns="http://www.w3.org/2000/svg" xmlns:xlink="http://www.w3.org/1999/xlink" x="0px" y="0px"
	 width="300px" height="300px" viewBox="0 0 300 300" enable-background="new 0 0 300 300" xml:space="preserve">
<rect x="2.225" y="2.025" fill="#FFFFFF" width="296.431" height="296.422"/>
<path fill="#FFFF00" d="M278.93,125.244c-0.5,9.238-3.433,20.744-6.021,28.43c-10.427,30.973-22.512,50.163-50.491,50.163
	c-8.237,0-22.865-2.182-28.238-16.836l-1.286-3.485l-2.293,2.907c-8.747,11.092-21.754,17.491-35.675,17.553
	c-10.678,0.051-19.265-3.528-24.81-10.342l-1.527-1.881l-1.618,1.785c-5.934,6.547-16.258,10.299-28.333,10.299
	c-9.479,0-17.665-3.208-23.051-9.056l-1.466-1.604l-1.531,1.552c-5.985,6.038-15.417,9.083-27.281,8.815
	c-14.396-0.345-23.158-8.384-23.438-21.502c-0.436-20.228,19.139-62.792,27.247-75.73c5.266-8.642,12.498-12.834,22.124-12.834
	c6.555,0,11.031,1.371,13.701,4.192c2.419,2.57,2.902,4.735,3.113,9.936l0.285,6.728l3.549-5.719
	c8.595-13.852,22.831-15.758,36.946-15.758c9.812,0,18.372,3.605,21.809,9.194l1.272,2.053l1.837-1.562
	c7.271-6.184,17.535-9.591,28.886-9.591c12.395,0,21.407,3.08,26.781,9.169c1.216,1.38,2.026,2.346,3.148,4.701l1.38,2.898
	l2.078-2.45c7.858-9.307,18.605-14.025,31.939-14.025c10.558,0,18.562,2.803,23.805,8.332
	C278.359,108.52,279.3,118.284,278.93,125.244 M2.225,298.447h296.431V2.025H2.225V298.447z"/>
<path fill="#FF0000" d="M287.278,136.621c-1.346,10.781-8.642,30.767-12.506,38.753c-10.402,21.416-24.289,37.873-51.036,37.873
	c-14.291,0-26.048-4.571-32.922-13.317c-10.065,8.815-22.529,13.438-35.941,13.438c-10.346,0-19.476-2.984-26.437-8.505
	c-7.693,5.417-18.061,8.436-29.563,8.436c-9.6,0-18.238-2.631-25.004-7.504c-7.478,4.959-17.28,7.427-28.791,7.15
	c-19.148-0.449-32.37-12.593-32.75-30.223c-0.504-23.427,19.226-66.302,28.528-81.155c6.952-11.428,17.578-17.569,30.585-17.569
	c14.124,0,19.247,4.037,21.761,9.168c10.902-9.263,25.349-9.79,35.63-9.79c11.36,0,18.479,3.01,24.539,7.841
	c8.375-5.021,17.967-7.625,29.404-7.625c14.627,0,25.479,3.398,33.051,10.885c8.833-7.357,19.907-10.705,32.285-10.705
	c16.378,0,27.151,5.909,33.482,14.707C290.504,110.901,288.917,123.407,287.278,136.621 M2.225,298.447h296.431V2.025H2.225V298.447
	z"/>
<path d="M4.316,4.155H296.49v292.17H4.316V4.155z M0.185,300.456h300.438V0.015H0.185V300.456z"/>
<path d="M287.141,83.455c-3.984,0-7.193,3.217-7.193,7.211c0,3.985,3.209,7.185,7.193,7.185c3.994,0,7.211-3.2,7.211-7.185
	C294.352,86.672,291.135,83.455,287.141,83.455 M287.141,84.878c3.199,0,5.805,2.587,5.805,5.788c0,3.182-2.605,5.787-5.805,5.787
	c-3.191,0-5.762-2.605-5.762-5.787C281.379,87.466,283.949,84.878,287.141,84.878z M290.807,94.417l-0.863-1.5
	c-0.75-1.32-0.966-1.518-1.596-1.751v-0.034c1.26-0.147,2.011-0.966,2.011-2.088c0-1.181-0.751-2.078-2.354-2.078h-3.709v7.452
	h1.534v-3.053h0.276c0.655,0,0.924,0.069,1.225,0.371c0.294,0.302,0.751,0.931,1.018,1.466l0.596,1.216H290.807z M285.829,90.166
	V88.13h1.38c1.019,0,1.553,0.354,1.553,1.009c0,0.526-0.336,1.026-1.371,1.026H285.829z"/>
<path d="M249.948,124.649c-0.311,7.677-11.558,38.374-15.551,45.144c-1.733,2.941-3.683,5.365-7.202,5.356
	c-3.07,0-4.434-2.174-4.52-4.657c-0.225-6.927,12.489-41.651,16.837-47.301c1.931-2.976,4.087-3.458,6.555-3.424
	C249.673,119.811,250.034,122.416,249.948,124.649 M270.442,137.182c-2.553,12.722-8.298,27.772-14.543,38.986
	c-10.178,18.302-22.537,20.863-33.327,20.734c-10.781-0.129-22.96-4.113-23.047-20.761c-0.068-11.955,5.089-28.826,9.472-39.883
	c7.624-20.054,15.421-36.398,40.071-36.105C277.808,100.49,272.685,126.055,270.442,137.182z M179.179,119.353
	c-4.166,0-6.883,2.631-8.909,5.477c-4.451,6.253-14.111,31.326-15.611,41.625c-1.018,7.056,2.018,8.487,5.355,8.487
	c5.339,0,11.325-5.649,13.368-14.973c0,0-10.169-0.251-7.365-9.265c2.718-8.754,7.893-10.643,16.457-10.997
	c16.879-0.69,15.207,11.773,13.861,18.415c-4.383,21.581-19.743,38.917-41.471,38.917c-14.874,0-24.103-8.237-24.103-23.399
	c0-10.8,5.361-27.765,9.608-37.692c9.044-21.132,18.531-35.924,42.7-35.924c14.498,0,25.936,5.209,24.254,18.794
	c-1.225,9.971-6.211,15.827-15.275,16.534c-2.536,0.198-12.912-0.069-9.47-9.884C183.776,122.044,184.276,119.353,179.179,119.353z
	 M103.566,156.718c-1,2.699-2.88,8.332-4.398,14.309c4.929-1.225,8.629-2.095,14.969-1.932c7.228,0.172,11.847,3.175,11.847,9.143
	c0,14.481-16.004,18.734-27.109,18.734c-12.196,0-22.9-6.944-22.9-20.27c0-15.638,8.47-39.331,16.418-55.115
	c9.768-19.39,19.748-21.969,36.929-21.969c7.552,0,16.25,3.226,16.25,10.35c0,9.885-8.371,13.654-16.677,14.137
	c-3.541,0.198-8.996,0.396-12.256,0.164c0,0-2.765,4.218-5.706,11.713c15.375-2.165,21.896,1.329,19.299,10.221
	C126.725,158.21,116.31,159.004,103.566,156.718z M54.601,170.612c15.038-2.612,18.821,2.83,18.342,7.85
	c-1.41,15.076-15.241,18.44-27.247,18.164c-8.707-0.207-16.535-4.191-16.754-14.3c-0.379-17.682,17.656-58.591,26.151-72.15
	c3.916-6.442,8.694-9.617,16.315-9.617c7.215,0,9.009,3.7,8.901,8.142C80.028,120.543,60.88,156.545,54.601,170.612z
	 M247.965,91.175c-15.525,0-26.255,6.158-33.518,14.749c-1.225-2.57-2.165-3.7-3.476-5.184c-5.943-6.719-15.509-9.859-28.334-9.859
	c-12.532,0-22.978,3.916-30.231,10.083c-3.769-6.124-12.744-10.187-23.573-10.187c-14.149,0-29.559,2.01-38.709,16.742
	c-0.212-5.305-0.699-8.108-3.683-11.273c-3.623-3.83-9.488-4.839-15.202-4.839c-10.415,0-18.247,4.546-23.884,13.81
	c-8.176,13.067-28.006,56.055-27.553,76.868c0.28,13.455,9.307,23.141,25.453,23.521c12.619,0.302,22.512-3.071,28.808-9.419
	c5.646,6.124,14.266,9.729,24.574,9.729c11.48,0,23.042-3.441,29.869-10.979c5.753,7.055,14.796,11.161,26.428,11.108
	c15.215-0.068,28.566-7.279,37.296-18.337c4.777,13.032,16.922,18.208,30.188,18.208c29.067,0,41.823-19.976,52.458-51.579
	c2.398-7.125,5.59-19.001,6.125-28.98C281.879,108.745,274.85,91.175,247.965,91.175z"/>
</svg>
