<svg xmlns="http://www.w3.org/2000/svg" viewBox="0 0 300.438 300.441">
 <path d="m0 300.441h300.438v-300.441h-300.438z"/>
 <path fill="#f00" d="m4.131 4.14h292.174v292.17h-292.174z"/>
 <path d="m286.956 83.44c-3.983 0-7.192 3.217-7.192 7.211 0 3.985 3.209 7.185 7.192 7.185 3.994 0 7.211-3.2 7.211-7.185 0-3.994-3.217-7.211-7.211-7.211m0 1.423c3.199 0 5.805 2.587 5.805 5.788 0 3.182-2.604 5.787-5.805 5.787-3.19 0-5.762-2.605-5.762-5.787 0-3.2 2.57-5.788 5.762-5.788zm3.666 9.539l-.863-1.5c-.75-1.32-.965-1.518-1.596-1.751v-.034c1.26-.147 2.012-.966 2.012-2.088 0-1.181-.752-2.078-2.354-2.078h-3.709v7.452h1.534v-3.053h.275c.655 0 .924.069 1.226.371.294.302.751.931 1.019 1.466l.596 1.216 1.86-.001zm-4.978-4.251v-2.036h1.38c1.02 0 1.553.354 1.553 1.009 0 .526-.336 1.026-1.371 1.026l-1.562.001z"/>
 <path fill="#ff0" d="m247.926 83.757c-12.379 0-23.452 3.348-32.285 10.705-7.572-7.487-18.424-10.885-33.051-10.885-11.438 0-21.029 2.604-29.404 7.625-6.06-4.831-13.179-7.841-24.539-7.841-10.281 0-24.728.527-35.63 9.79-2.514-5.131-7.637-9.168-21.761-9.168-13.007 0-23.633 6.141-30.585 17.569-9.302 14.853-29.032 57.728-28.528 81.156.38 17.629 13.602 29.773 32.75 30.223 11.511.277 21.313-2.191 28.791-7.15 6.766 4.873 15.404 7.504 25.004 7.504 11.502 0 21.87-3.02 29.563-8.436 6.961 5.521 16.091 8.505 26.437 8.505 13.412 0 25.876-4.623 35.941-13.438 6.873 8.746 18.631 13.317 32.922 13.317 26.746 0 40.634-16.457 51.035-37.873 3.865-7.985 11.16-27.972 12.506-38.753 1.64-13.214 3.227-25.72-5.685-38.142-6.33-8.799-17.103-14.708-33.481-14.708z"/>
 <path d="m278.745 125.229c-.5 9.238-3.433 20.744-6.021 28.43-10.427 30.973-22.513 50.163-50.491 50.163-8.236 0-22.865-2.183-28.238-16.836l-1.285-3.485-2.293 2.907c-8.748 11.093-21.754 17.491-35.676 17.554-10.678.051-19.265-3.528-24.81-10.343l-1.527-1.881-1.618 1.785c-5.934 6.547-16.258 10.299-28.333 10.299-9.479 0-17.665-3.208-23.051-9.056l-1.466-1.604-1.531 1.552c-5.985 6.039-15.417 9.084-27.281 8.815-14.396-.345-23.158-8.384-23.438-21.502-.436-20.228 19.139-62.792 27.247-75.73 5.266-8.642 12.498-12.834 22.124-12.834 6.555 0 11.031 1.371 13.701 4.192 2.419 2.57 2.902 4.735 3.113 9.936l.285 6.728 3.549-5.719c8.595-13.852 22.831-15.758 36.946-15.758 9.812 0 18.372 3.605 21.809 9.194l1.272 2.053 1.837-1.562c7.271-6.184 17.535-9.591 28.887-9.591 12.395 0 21.406 3.08 26.78 9.169 1.216 1.38 2.026 2.346 3.147 4.701l1.381 2.898 2.078-2.45c7.857-9.307 18.604-14.025 31.938-14.025 10.558 0 18.562 2.803 23.806 8.332 6.588 6.944 7.529 16.708 7.159 23.668z"/>
 <g fill="#fff">
  <path d="m191.863 137.337c9.063-.707 14.05-6.563 15.274-16.534 1.683-13.585-9.756-18.794-24.254-18.794-24.168 0-33.655 14.792-42.699 35.924-4.247 9.927-9.608 26.892-9.608 37.692 0 15.161 9.229 23.398 24.103 23.398 21.729 0 37.089-17.336 41.472-38.917 1.347-6.642 3.019-19.105-13.86-18.415-8.564.354-13.74 2.243-16.457 10.997-2.805 9.014 7.364 9.265 7.364 9.265-2.043 9.324-8.028 14.973-13.368 14.973-3.337 0-6.373-1.431-5.354-8.486 1.5-10.299 11.159-35.372 15.61-41.625 2.026-2.846 4.744-5.477 8.91-5.477 5.096 0 4.596 2.691 3.398 6.115-3.443 9.815 6.933 10.082 9.469 9.884z"/>
  <path d="m110.748 137.967c2.941-7.495 5.706-11.713 5.706-11.713 3.26.232 8.715.034 12.256-.164 8.306-.483 16.677-4.252 16.677-14.137 0-7.124-8.698-10.35-16.25-10.35-17.181 0-27.161 2.579-36.929 21.969-7.948 15.784-16.418 39.478-16.418 55.115 0 13.325 10.704 20.271 22.9 20.271 11.105 0 27.109-4.254 27.109-18.734 0-5.969-4.619-8.971-11.847-9.143-6.34-.164-10.04.706-14.969 1.932 1.518-5.978 3.398-11.61 4.398-14.31 12.744 2.286 23.159 1.492 26.666-10.515 2.597-8.892-3.924-12.386-19.299-10.221z"/>
  <path d="m71.223 102.544c-7.621 0-12.399 3.175-16.315 9.617-8.495 13.559-26.53 54.469-26.151 72.15.219 10.109 8.047 14.093 16.754 14.3 12.006.276 25.837-3.088 27.247-18.164.479-5.021-3.304-10.462-18.342-7.851 6.279-14.066 25.427-50.068 25.708-61.91.108-4.442-1.686-8.142-8.901-8.142z"/>
  <path d="m248.883 102.138c-24.65-.293-32.447 16.051-40.071 36.105-4.384 11.057-9.54 27.928-9.472 39.883.086 16.648 12.266 20.633 23.047 20.762 10.789.129 23.148-2.432 33.326-20.734 6.246-11.214 11.99-26.264 14.543-38.986 2.245-11.128 7.368-36.693-21.373-37.03zm.88 24.496c-.312 7.677-11.558 38.375-15.552 45.144-1.732 2.941-3.683 5.365-7.201 5.355-3.07 0-4.434-2.174-4.521-4.656-.225-6.928 12.489-41.651 16.837-47.301 1.932-2.976 4.088-3.458 6.555-3.424 3.607.044 3.968 2.649 3.882 4.882z"/>
 </g>
</svg>
