<svg xmlns="http://www.w3.org/2000/svg" viewBox="182.685 128.515 300.438 300.441">
 <path d="M182.685,428.956h300.438V128.515H182.685z"/>
 <path fill="#f00" d="M186.816 132.655H478.99v292.17H186.816z"/>
 <path d="M469.641,211.955c-3.983,0-7.192,3.217-7.192,7.211c0,3.985,3.209,7.185,7.192,7.185c3.994,0,7.211-3.2,7.211-7.185C476.852,215.172,473.635,211.955,469.641,211.955 M469.641,213.378c3.199,0,5.805,2.587,5.805,5.788c0,3.182-2.604,5.787-5.805,5.787c-3.19,0-5.762-2.605-5.762-5.787C463.879,215.966,466.449,213.378,469.641,213.378z M473.307,222.917l-0.863-1.5c-0.75-1.32-0.965-1.518-1.596-1.751v-0.034c1.26-0.147,2.012-0.966,2.012-2.088c0-1.181-0.752-2.078-2.354-2.078h-3.709v7.452h1.534v-3.053h0.275c0.655,0,0.924,0.069,1.226,0.371c0.294,0.302,0.751,0.931,1.019,1.466l0.596,1.216L473.307,222.917L473.307,222.917z M468.329,218.666v-2.036h1.38c1.02,0,1.553,0.354,1.553,1.009c0,0.526-0.336,1.026-1.371,1.026L468.329,218.666L468.329,218.666z"/>
 <path fill="#ff0" d="M430.611,212.272c-12.379,0-23.452,3.348-32.285,10.705c-7.572-7.487-18.424-10.885-33.051-10.885c-11.438,0-21.029,2.604-29.404,7.625c-6.06-4.831-13.179-7.841-24.539-7.841c-10.281,0-24.728,0.527-35.63,9.79c-2.514-5.131-7.637-9.168-21.761-9.168c-13.007,0-23.633,6.141-30.585,17.569c-9.302,14.853-29.032,57.728-28.528,81.156c0.38,17.629,13.602,29.773,32.75,30.223c11.511,0.277,21.313-2.191,28.791-7.15c6.766,4.873,15.404,7.504,25.004,7.504c11.502,0,21.87-3.02,29.563-8.436c6.961,5.521,16.091,8.505,26.437,8.505c13.412,0,25.876-4.623,35.941-13.438c6.873,8.746,18.631,13.317,32.922,13.317c26.746,0,40.634-16.457,51.035-37.873c3.865-7.985,11.16-27.972,12.506-38.753c1.64-13.214,3.227-25.72-5.685-38.142C457.762,218.181,446.989,212.272,430.611,212.272z"/>
 <path d="M461.43,253.744c-0.5,9.238-3.433,20.744-6.021,28.43c-10.427,30.973-22.513,50.163-50.491,50.163c-8.236,0-22.865-2.183-28.238-16.836l-1.285-3.485l-2.293,2.907c-8.748,11.093-21.754,17.491-35.676,17.554c-10.678,0.051-19.265-3.528-24.81-10.343l-1.527-1.881l-1.618,1.785c-5.934,6.547-16.258,10.299-28.333,10.299c-9.479,0-17.665-3.208-23.051-9.056l-1.466-1.604l-1.531,1.552c-5.985,6.039-15.417,9.084-27.281,8.815c-14.396-0.345-23.158-8.384-23.438-21.502c-0.436-20.228,19.139-62.792,27.247-75.73c5.266-8.642,12.498-12.834,22.124-12.834c6.555,0,11.031,1.371,13.701,4.192c2.419,2.57,2.902,4.735,3.113,9.936l0.285,6.728l3.549-5.719c8.595-13.852,22.831-15.758,36.946-15.758c9.812,0,18.372,3.605,21.809,9.194l1.272,2.053l1.837-1.562c7.271-6.184,17.535-9.591,28.887-9.591c12.395,0,21.406,3.08,26.78,9.169c1.216,1.38,2.026,2.346,3.147,4.701l1.381,2.898l2.078-2.45c7.857-9.307,18.604-14.025,31.938-14.025c10.558,0,18.562,2.803,23.806,8.332C460.859,237.02,461.8,246.784,461.43,253.744z"/>
 <g fill="#fff">
  <path d="M374.548,265.852c9.063-0.707,14.05-6.563,15.274-16.534c1.683-13.585-9.756-18.794-24.254-18.794c-24.168,0-33.655,14.792-42.699,35.924c-4.247,9.927-9.608,26.892-9.608,37.692c0,15.161,9.229,23.398,24.103,23.398c21.729,0,37.089-17.336,41.472-38.917c1.347-6.642,3.019-19.105-13.86-18.415c-8.564,0.354-13.74,2.243-16.457,10.997c-2.805,9.014,7.364,9.265,7.364,9.265c-2.043,9.324-8.028,14.973-13.368,14.973c-3.337,0-6.373-1.431-5.354-8.486c1.5-10.299,11.159-35.372,15.61-41.625c2.026-2.846,4.744-5.477,8.91-5.477c5.096,0,4.596,2.691,3.398,6.115C361.636,265.783,372.012,266.05,374.548,265.852z"/>
  <path d="M293.433,266.482c2.941-7.495,5.706-11.713,5.706-11.713c3.26,0.232,8.715,0.034,12.256-0.164c8.306-0.483,16.677-4.252,16.677-14.137c0-7.124-8.698-10.35-16.25-10.35c-17.181,0-27.161,2.579-36.929,21.969c-7.948,15.784-16.418,39.478-16.418,55.115c0,13.325,10.704,20.271,22.9,20.271c11.105,0,27.109-4.254,27.109-18.734c0-5.969-4.619-8.971-11.847-9.143c-6.34-0.164-10.04,0.706-14.969,1.932c1.518-5.978,3.398-11.61,4.398-14.31c12.744,2.286,23.159,1.492,26.666-10.515C315.329,267.811,308.808,264.317,293.433,266.482z"/>
  <path d="M253.908,231.059c-7.621,0-12.399,3.175-16.315,9.617c-8.495,13.559-26.53,54.469-26.151,72.15c0.219,10.109,8.047,14.093,16.754,14.3c12.006,0.276,25.837-3.088,27.247-18.164c0.479-5.021-3.304-10.462-18.342-7.851c6.279-14.066,25.427-50.068,25.708-61.91C262.917,234.759,261.123,231.059,253.908,231.059z"/>
  <path d="M431.568,230.653c-24.65-0.293-32.447,16.051-40.071,36.105c-4.384,11.057-9.54,27.928-9.472,39.883c0.086,16.648,12.266,20.633,23.047,20.762c10.789,0.129,23.148-2.432,33.326-20.734c6.246-11.214,11.99-26.264,14.543-38.986C455.186,256.555,460.309,230.99,431.568,230.653z M432.448,255.149c-0.312,7.677-11.558,38.375-15.552,45.144c-1.732,2.941-3.683,5.365-7.201,5.355c-3.07,0-4.434-2.174-4.521-4.656c-0.225-6.928,12.489-41.651,16.837-47.301c1.932-2.976,4.088-3.458,6.555-3.424C432.173,250.311,432.534,252.916,432.448,255.149z"/>
 </g>
</svg>
