<svg viewBox="54 0 534 534" fill="#ff0" xmlns="http://www.w3.org/2000/svg" xmlns:xlink="http://www.w3.org/1999/xlink">
 <defs>
  <path id="l" d="M122 338A211 211 0 0 1 400 70"/>
  <path id="u" d="M197 485A250 250 0 0 0 569 235"/>
 </defs>
 <circle r="267" cy="267" cx="321" fill="#000"/>
 <path d="m155 435v-15a35 35 0 0 0 35-35v-235a50 50 0 0 1 50-50h262v15a35 35 0 0 0 -35 35v235a50 50 0 0 1 -50 50M466 115h-140a35 35 0 0 0 -35 35v144a15 30 10 0 1 -15 30h140a35 35 0 0 0 35-35v-144a15 30 10 0 1 15-30"/>
 <text font-family="Helvetica" font-weight="Bold" font-size="50.23">
  <textPath xlink:href="#l" letter-spacing="26">LINKÖPING</textPath>
  <textPath xlink:href="#u" letter-spacing="30">UNIVERSITY</textPath>
 </text>
 <g fill="#000">
  <path d="M216 130h11v49h39v11h-50"/>
  <path d="M216 203h11l14 24 14-24h11l-19.5 33.775v26.225h-11v-26.225z"/>
  <path d="m216 319a17 17 0 0 0 17 17h15a18 18 0 0 0 0 -36h-14.5a6.5 6.5 0 0 1 0-13h15.5a6 6 0 0 1 6 6h11a17 17 0 0 0-17-17h-15.5a17.5 17.5 0 0 0 0 35h14.5a7 7 0 0 1 0 14h-15a6 6 0 0 1-6-6"/>
  <path d="m216 374c0-5 1-14 6-19 6-6 12-6 21-6 7 0 13 0 19 6 4 5 4 12 4 19v35h-11v-24h-28v24h-11m11-35h28s0-13-5-14c-1-2-14-3-19 1-5 5-5 13-4 13"/>
  <path d="M294 360h-19.5v-11h50v11h-19.5v49h-11"/>
  <path d="m391 349c0 0 30 0 37 0s13 7 13 16c0 10-3 12-8 16s-6 0-3 7c3 6 11 21 11 21h-11c0 1-11-21-14-23-1-2-14-1-14-1v24h-11m11-49v14h21c5-1 6-3 7-7-1-5-2-7-7-7"/>
  <ellipse stroke="#ff0" transform="rotate(20 369 221)" rx="26" ry="49" cx="369" cy="221" stroke-width="15"/>
 </g>
 <rect stroke="#000" stroke-width="11" rx="11" ry="11" x="337" y="354.5" width="39" height="49"/>
 <path d="m302.45 226.12c-4.406 0-4.772-2.569-1.102-4.771 3.672-2.204 6.242-3.672 2.938-4.773-3.305-1.101.734-3.671.734-3.671s17.99-.367 24.965-.367c7.171 0 77.563-1.468 84.807-1.468 6.243 0 24.965.367 24.965.367s2.204-.734 2.204 2.57c0 3.303-5.508 2.936-3.305 5.506 2.202 2.569-2.203 5.14-2.203 5.14"/>
 <path d="m436.45 224.65c-5.874 0-105 1.468-110.87 1.468"/>
 <path d="m378.81 292.2v-163.01s-1.102-2.57-4.039-1.835c-2.938.734-2.241-2.031-5.874-2.938-2.937-.734-4.773 3.305-4.773 3.305 0 6.617 1.103 151.26.735 159.7-.366 8.443.366 21.293.366 21.293s2.57.734 3.671-1.834c1.104-2.57 1.47-.735 3.305 2.201 1.836 2.938 2.202 4.039 4.038 2.938 1.836-1.102 2.569 0 2.569 0s0-15.421 0-19.826"/>
</svg>
