<svg viewBox="0 0 666 558" xmlns="http://www.w3.org/2000/svg" fill="#ff0">
 <circle r="267" cy="267" cx="321" fill="#000"/>
 <path d="m154.86 436.48c-.734 0 0-11.014 0-11.014s18.357-2.203 24.965-9.546c6.607-7.342 10.279-16.494 10.279-26.801v-144.28-94.352c0-16.522 3.304-23.496 15.053-34.51 11.748-11.014 27.167-15.053 40.384-15.053h117.85 139.14v11.382s-15.052 1.101-22.395 7.708c-7.342 6.608-15.419 15.419-15.419 31.573v138.04 95.822c0 12.481.733 20.926-8.812 31.206-9.545 10.279-24.965 19.825-37.447 19.825s-113.81 0-127.76 0h-135.82z"/>
 <path d="m466.19 114.88h-135.1c-23.646 0-40.017 14.684-40.017 40.383v120.79c0 17.623.123 28.758-7.709 38.548-5.874 7.344-6.606 8.812-6.606 8.812s111.61 0 132.17 0c20.56 0 41.852-13.584 41.852-38.549v-128.86c0-33.64 15.42-41.12 15.42-41.12z" fill="#000"/>
 <path d="m352.39 273.84c-18.467-4.08-26.083-31.086-17.009-60.324 9.075-29.237 31.404-49.631 49.873-45.553 18.467 4.076 26.083 31.086 17.009 60.323-9.07 29.23-31.4 49.62-49.87 45.55z"/>
 <path d="m352.88 257.23c-8.679-5.213-8.752-25.975-.163-46.371s22.589-32.703 31.267-27.492c8.681 5.212 8.751 25.975.163 46.372-8.59 20.4-22.59 32.71-31.27 27.49z" fill="#000"/>
 <path d="m302.45 226.12c-4.406 0-4.772-2.569-1.102-4.771 3.672-2.204 6.242-3.672 2.938-4.773-3.305-1.101.734-3.671.734-3.671s17.99-.367 24.965-.367c7.171 0 77.563-1.468 84.807-1.468 6.243 0 24.965.367 24.965.367s2.204-.734 2.204 2.57c0 3.303-5.508 2.936-3.305 5.506 2.202 2.569-2.203 5.14-2.203 5.14"/>
 <path d="m436.45 224.65c-5.874 0-105 1.468-110.87 1.468"/>
 <path d="m378.81 292.2v-163.01s-1.102-2.57-4.039-1.835c-2.938.734-2.241-2.031-5.874-2.938-2.937-.734-4.773 3.305-4.773 3.305 0 6.617 1.103 151.26.735 159.7-.366 8.443.366 21.293.366 21.293s2.57.734 3.671-1.834c1.104-2.57 1.47-.735 3.305 2.201 1.836 2.938 2.202 4.039 4.038 2.938 1.836-1.102 2.569 0 2.569 0s0-15.421 0-19.826"/>
 <g font-family="Helvetica" font-weight="Bold" font-size="50.23">
  <text transform="matrix(-.221 -.9016 .9791 -.2036 113.01 336.63)">L</text>
  <text transform="matrix(-.0479 -.9268 .9999 -.0157 105.67 279.35)">I</text>
  <text transform="matrix(.1897 -.9083 .9709 .2393 106.9 238.4)">N</text>
  <text transform="matrix(.3681 -.852 .9033 .429 126.23 176.56)">K</text>
  <text transform="matrix(.5979 -.7101 .7415 .671 158.53 131.03)">Ö</text>
  <text transform="matrix(.744 -.5552 .5691 .8223 207 88.445)">P</text>
  <text transform="matrix(.8877 -.2715 .2585 .966 261.33 62.012)">I</text>
  <text transform="matrix(.9278 -.0278 -.0052 1 304.65 52.464)">N</text>
  <text transform="matrix(.8791 .2986 -.3551 .9348 362.66 53.2)">G</text>
  <text transform="matrix(.8347 .4058 -.4691 .8831 188.79 486.51)">U</text>
  <text transform="matrix(.898 .2315 -.2837 .9589 245.18 510.65)">N</text>
  <text transform="matrix(.9269 -.0313 -.0009 1 316.39 521.69)">I</text>
  <text transform="matrix(.8988 -.2308 .2138 .9769 368.39 519.37)">V</text>
  <text transform="matrix(.807 -.4585 .4628 .8865 432.29 497.97)">E</text>
  <text transform="matrix(.6616 -.6512 .6755 .7373 485.28 462.92)">R</text>
  <text transform="matrix(.4615 -.8054 .8489 .5285 532.27 410.05)">S</text>
  <text transform="matrix(.2507 -.8932 .9524 .3047 560.18 352.05)">I</text>
  <text transform="matrix(.0749 -.9254 .9933 .1158 573.61 302.68)">T</text>
  <text transform="matrix(-.1639 -.9132 .99 -.1414 574.4 242.22)">Y</text>
 </g>
 <g fill="#000">
  <g id="L">
   <rect y="129.56" x="216.17" height="59.475" width="11.747"/>
   <rect y="178.02" x="216.17" height="11.013" width="49.196"/>
  </g>
  <g id="Y">
   <polygon points="236 240.99 216.17 202.99 228.1 202.99 241.32 226.48 254.54 202.99 266.29 202.99 246.28 240.99"/>
   <rect y="231.62" x="236" height="31.574" width="10.28"/>
  </g>
  <path d="m265.37 293.67s.736-4.549-1.469-8.077c-5.813-9.301-14.869-8.812-22.578-8.812-6.011 0-14.318.736-19.092 5.324-3.287 3.161-4.59 8.078-4.59 12.3s.918 9.546 4.223 12.85c4.283 4.284 7.342 5.322 13.399 5.506 4.587.139 8.429 0 12.483 0 4.467 0 6.608 3.149 6.608 7.525 0 3.307-3 6.06-6.608 6.06h-14.686c-4.994 0-6.241-7.344-6.241-7.344h-9.729s-.546 6.472.917 8.811c2.375 3.801 4.038 6.793 7.894 8.445 5.075 2.176 8.443 2.202 14.318 2.202s14.869.183 18.907-3.122c4.039-3.304 6.425-6.974 7.342-11.562.917-4.59.421-11.018-2.57-15.604-2.434-3.732-7.75-6.793-12.115-6.793h-15.786c-3.304 0-7.343-2.568-7.343-6.975s3.426-6.608 7.158-6.608c5.141 0 10.096-.183 14.502 0 7.087.295 6.608 5.874 6.608 5.874l8.45-.01z"/>
  <g id="A">
   <path d="m216.91 410.05v-36.163c0-4.956-.367-13.767 5.507-18.906 5.875-5.139 11.381-5.139 20.193-5.139 7.711 0 13.385-.554 19.458 5.139 5.874 5.507 4.81 11.747 4.956 18.906.184 8.995 0 36.163 0 36.163h-11.749v-22.76h-26.25v22.76h-12.12z"/>
   <path d="m229.2 374.07h25.883s.734-9.178-2.753-11.932c-2.86-2.258-16.643-2.693-20.009 0-3.98 3.19-3.12 11.93-3.12 11.93z" fill="#ff0"/>
  </g>
  <polygon points="321.54 349.29 273.81 349.29 273.81 359.89 292.35 359.89 292.35 409.5 302.96 409.5 302.96 359.89 321.54 359.89"/>
  <path d="m378.08 363.06c0-6.976-6.977-13.217-14.686-13.217s-9.913-.184-17.256-.184-16.153 6.058-16.153 14.135v29.371c0 8.443 6.608 16.521 15.42 16.521s11.007.22 17.622 0c11.014-.368 15.053-8.078 15.418-16.154.37-8.09-.36-23.51-.36-30.48zm-9.55 27.9c0 6.767-1.921 8.566-8.812 8.812-3.55.126-5.549 0-10.279 0-6.688 0-8.994-2.547-8.994-9.362v-22.396c0-4.645 3.217-7.894 7.159-7.894h13.95c4.14 0 6.977 3.329 6.977 7.343-.01 4.02-.01 18.85-.01 23.5z"/>
  <g id="R">
   <rect y="349.47" x="391.66" height="60.212" width="10.646"/>
   <path d="m399 349.47h28.819s12.64 7.153 12.483 15.604c-.184 9.913-2.021 12.665-7.16 16.337s-5.874.366-2.937 6.608c2.937 6.241 10.463 21.662 10.463 21.662h-10.463s-11.015-22.028-14.317-23.864c-3.305-1.836-13.952-1.102-13.952-1.102"/>
   <path d="m402.68 359.76h20.559c5.142 0 5.325 2.569 5.325 6.974 0 4.407-.919 6.609-5.325 6.609h-20.559v-13.58z" fill="#ff0"/>
  </g>
 </g>
</svg>
