<svg viewBox="54 0 534 534" fill="#ff0" xmlns="http://www.w3.org/2000/svg" xmlns:xlink="http://www.w3.org/1999/xlink">
 <defs>
  <path id="l" d="M122 338A211 211 0 0 1 400 70"/>
  <path id="u" d="M197 485A250 250 0 0 0 569 235"/>
 </defs>
 <circle r="267" cy="267" cx="321" fill="#000"/>
 <path d="m155 435v-15a35 35 0 0 0 35-35v-235a50 50 0 0 1 50-50h262v15a35 35 0 0 0 -35 35v235a50 50 0 0 1 -50 50M466 114.88h-135.1c-23.646 0-40.017 14.684-40.017 40.383v120.79c0 17.623.123 28.758-7.709 38.548-5.874 7.344-6.606 8.812-6.606 8.812s111.61 0 132.17 0c20.56 0 41.852-13.584 41.852-38.549v-128.86c0-33.64 15.42-41.12 15.42-41.12z"/>
 <path d="m352.39 273.84c-18.467-4.08-26.083-31.086-17.009-60.324 9.075-29.237 31.404-49.631 49.873-45.553 18.467 4.076 26.083 31.086 17.009 60.323-9.07 29.23-31.4 49.62-49.87 45.55z"/>
 <path d="m352.88 257.23c-8.679-5.213-8.752-25.975-.163-46.371s22.589-32.703 31.267-27.492c8.681 5.212 8.751 25.975.163 46.372-8.59 20.4-22.59 32.71-31.27 27.49z" fill="#000"/>
 <path d="m302.45 226.12c-4.406 0-4.772-2.569-1.102-4.771 3.672-2.204 6.242-3.672 2.938-4.773-3.305-1.101.734-3.671.734-3.671s17.99-.367 24.965-.367c7.171 0 77.563-1.468 84.807-1.468 6.243 0 24.965.367 24.965.367s2.204-.734 2.204 2.57c0 3.303-5.508 2.936-3.305 5.506 2.202 2.569-2.203 5.14-2.203 5.14"/>
 <path d="m436.45 224.65c-5.874 0-105 1.468-110.87 1.468"/>
 <path d="m378.81 292.2v-163.01s-1.102-2.57-4.039-1.835c-2.938.734-2.241-2.031-5.874-2.938-2.937-.734-4.773 3.305-4.773 3.305 0 6.617 1.103 151.26.735 159.7-.366 8.443.366 21.293.366 21.293s2.57.734 3.671-1.834c1.104-2.57 1.47-.735 3.305 2.201 1.836 2.938 2.202 4.039 4.038 2.938 1.836-1.102 2.569 0 2.569 0s0-15.421 0-19.826"/>
 <text font-family="Helvetica" font-weight="Bold" font-size="50.23">
  <textPath xlink:href="#l" letter-spacing="26">LINKÖPING</textPath>
  <textPath xlink:href="#u" letter-spacing="30">UNIVERSITY</textPath>
 </text>
 <g fill="#000">
  <path d="M216 130h11v49h39v11h-50"/>
  <path d="M216 203h11l14 24 14-24h11l-19.5 33.775v26.225h-11v-26.225z"/>
  <path d="m265.37 293.67s.736-4.549-1.469-8.077c-5.813-9.301-14.869-8.812-22.578-8.812-6.011 0-14.318.736-19.092 5.324-3.287 3.161-4.59 8.078-4.59 12.3s.918 9.546 4.223 12.85c4.283 4.284 7.342 5.322 13.399 5.506 4.587.139 8.429 0 12.483 0 4.467 0 6.608 3.149 6.608 7.525 0 3.307-3 6.06-6.608 6.06h-14.686c-4.994 0-6.241-7.344-6.241-7.344h-9.729s-.546 6.472.917 8.811c2.375 3.801 4.038 6.793 7.894 8.445 5.075 2.176 8.443 2.202 14.318 2.202s14.869.183 18.907-3.122c4.039-3.304 6.425-6.974 7.342-11.562.917-4.59.421-11.018-2.57-15.604-2.434-3.732-7.75-6.793-12.115-6.793h-15.786c-3.304 0-7.343-2.568-7.343-6.975s3.426-6.608 7.158-6.608c5.141 0 10.096-.183 14.502 0 7.087.295 6.608 5.874 6.608 5.874l8.45-.01z"/>
  <path d="m216 374c0-5 1-14 6-19 6-6 12-6 21-6 7 0 13 0 19 6 4 5 4 12 4 19v35h-11v-24h-28v24h-11m11-35h28s0-13-5-14c-1-2-14-3-19 1-5 5-5 13-4 13"/>
  <path d="M294 360h-19.5v-11h50v11h-19.5v49h-11"/>
  <path d="m391 349c0 0 30 0 37 0s13 7 13 16c0 10-3 12-8 16s-6 0-3 7c3 6 11 21 11 21h-11c0 1-11-21-14-23-1-2-14-1-14-1v24h-11m11-49v14h21c5-1 6-3 7-7-1-5-2-7-7-7"/>
 </g>
 <rect stroke="#000" stroke-width="11" rx="11" ry="11" x="337" y="354.5" width="39" height="49"/>
</svg>
