<svg xmlns="http://www.w3.org/2000/svg" viewBox="0 0 256 256">
 <ellipse opacity=".01" fill-rule="evenodd" rx="74.076" ry="104" cy="126" cx="127.998" clip-rule="evenodd" fill="#fff"/>
 <linearGradient id="d" y2="241.7714" gradientUnits="userSpaceOnUse" y1="14.8213" x2="148.682" x1="108.6646">
  <stop stop-color="#ff8c8f" offset="0"/>
  <stop stop-color="#f21818" offset=".3804"/>
  <stop stop-color="#e51515" offset=".4461"/>
  <stop stop-color="#c20e0e" offset=".5683"/>
  <stop stop-color="#8a0202" offset=".7324"/>
  <stop stop-color="#800000" offset=".7607"/>
 </linearGradient>
 <path fill-rule="evenodd" clip-rule="evenodd" d="m127.58 219.93c38.093 0 41.525-57.701 41.525-96.527 0-44.688-6.686-93.438-41.525-93.438-34.833 0-40.667 51.831-40.667 93.438-.005 38.47 3.117 96.53 40.667 96.53zm-.01-208.72c62.368 0 109.04 45.103 109.04 114.12 0 60.942-44.215 116.26-109.03 116.26-64.187 0-108.17-55.332-108.17-116.26-.001-68.47 45.227-114.12 108.16-114.12z" fill="url(#d)"/>
 <linearGradient id="c" y2="239.2949" gradientUnits="userSpaceOnUse" y1="216.71" x2="127.7759" x1="127.7759">
  <stop stop-color="#ff444c" stop-opacity="0" offset="0"/>
  <stop stop-color="#ff393f" stop-opacity=".2367" offset=".2367"/>
  <stop stop-color="#ff1b1e" stop-opacity=".6708" offset=".6708"/>
  <stop stop-color="#f00" offset="1"/>
 </linearGradient>
 <path opacity=".5" fill-rule="evenodd" clip-rule="evenodd" d="m191.99 216.63c-16.223 14.319-37.636 22.453-64.411 22.453-26.537 0-47.842-8.134-64.021-22.453l54.895-.132c2.813.777 5.849 1.185 9.126 1.185 3.324 0 6.4-.271 9.246-1.048h55.16z" fill="url(#c)"/>
 <linearGradient id="b" y2="24.0477" gradientUnits="userSpaceOnUse" y1="217.542" x2="129.3565" x1="126.9907">
  <stop stop-color="#e60000" offset="0"/>
  <stop stop-color="#dc0b0a" offset=".3568"/>
  <stop stop-color="#c02825" offset=".9811"/>
  <stop stop-color="#bf2926" offset="1"/>
 </linearGradient>
 <path opacity=".8" fill-rule="evenodd" clip-rule="evenodd" d="m127.56 217.11c-38.832 0-40.449-55.159-40.449-93.828 0-45.36 4.392-88.925 40.449-88.925 36.061 0 41.547 44.113 41.547 88.88-.01 38.74-2.17 93.87-41.55 93.87zm.01-188.49c-42.417 0-46.658 56.642-46.658 94.636 0 43.015 8.46 98.88 46.658 98.88 40.686 0 47.812-55.944 47.812-98.88 0-37.389-4.52-94.638-47.81-94.638z" fill="url(#b)"/>
 <linearGradient id="a" y2="25.6538" gradientUnits="userSpaceOnUse" y1="216.1572" x2="128.2973" x1="128.2974">
  <stop stop-color="#b80000" offset="0"/>
  <stop stop-color="#900" offset="1"/>
 </linearGradient>
 <path fill-rule="evenodd" clip-rule="evenodd" d="m127.58 215.73c-37.526 0-39.021-54.272-39.021-92.309 0-44.63 4.177-87.418 39.021-87.418 34.847 0 40.107 43.33 40.107 87.373-.01 38.1-2.05 92.35-40.11 92.35zm.01-185.56c-41.763 0-44.731 56.157-44.731 93.224 0 42.318 7.048 97.28 44.731 97.28 39.314 0 46.143-55.04 46.143-97.28 0-36.472-4.31-93.225-46.14-93.225z" fill="url(#a)"/>
 <g opacity=".5">
  <linearGradient id="g" y2="32.4355" gradientUnits="userSpaceOnUse" y1="120.3198" x2="128.146" x1="128.146">
   <stop stop-color="#cf0000" stop-opacity="0" offset="0"/>
   <stop stop-color="#bf0000" stop-opacity=".1308" offset=".1308"/>
   <stop stop-color="#960000" stop-opacity=".5151" offset=".5151"/>
   <stop stop-color="#7c0000" stop-opacity=".8181" offset=".8181"/>
   <stop stop-color="#730000" offset="1"/>
  </linearGradient>
  <path fill-rule="evenodd" clip-rule="evenodd" d="m86.784 122.41c0-39.944 5.349-86.399 40.79-86.399 35.444 0 41.934 48.515 41.934 85.77 0-33.652-4.562-87.254-41.881-87.254-37.238-.005-40.836 53.645-40.836 87.884z" fill="url(#g)"/>
 </g>
 <linearGradient id="f" y2="182.1504" gradientUnits="userSpaceOnUse" y1="182.1504" x2="234.4102" x1="22.3491">
  <stop stop-color="#e8000f" offset="0"/>
  <stop stop-color="#e0000f" offset="1"/>
 </linearGradient>
 <path opacity=".8" fill-rule="evenodd" clip-rule="evenodd" d="m22.349 124.62c0 58.949 40.173 115.07 105.47 115.07 65.771 0 106.59-57.72 106.59-115.07 0 56.832-41.77 114.15-106.59 114.15-64.334-.01-105.47-55.75-105.47-114.15z" fill="url(#f)"/>
 <linearGradient id="e" y2="1.6424" gradientUnits="userSpaceOnUse" y1="104.6548" x2="128.2612" x1="128.2612">
  <stop stop-color="#fff" stop-opacity="0" offset="0"/>
  <stop stop-color="#fff" offset="1"/>
 </linearGradient>
 <path opacity=".65" fill-rule="evenodd" clip-rule="evenodd" d="m22.737 121.94c0-48.528 33.292-108.32 104.84-108.32 59.595 0 106.21 46.224 106.21 108.32 0-62.712-42.592-110.57-106.21-110.57-64.115-.007-104.84 46.55-104.84 110.57z" fill="url(#e)"/>
</svg>
