<svg viewBox="-255.841 292.745 1000 172.78" fill="#4a5745" xmlns="http://www.w3.org/2000/svg" xmlns:xlink="http://www.w3.org/1999/xlink">
  <path d="m-173.528 296.593c-45.86 0-82.313 36.917-82.313 82.771 0 45.849 36.453 82.308 82.313 82.308 45.854 0 82.537-36.459 82.537-82.308 0-45.854-36.682-82.771-82.537-82.771zm0 135.276c-28.892 0-52.504-23.612-52.504-52.505 0-28.886 23.612-52.963 52.504-52.963 28.886 0 52.734 24.077 52.734 52.963 0 28.893-23.847 52.505-52.734 52.505z"/>
  <path d="m-5.588 298.886h-53.88c-2.516 0-4.356 2.063-4.356 4.356v151.78c0 2.306 1.841 4.356 4.356 4.356h21.09c2.299 0 4.356-2.051 4.356-4.356v-53.881h28.663c27.975 0 51.128-23.159 51.128-51.587.001-27.739-23.153-50.668-51.357-50.668zm-1.834 74.288h-26.6v-46.084h26.6c12.841 0 23.618 9.631 23.618 22.236 0 13.528-10.777 23.848-23.618 23.848z"/>
  <path d="m462.326 298.886h-21.097c-1.828 0-3.662 1.604-4.127 3.21l-23.376 91.479h-.924l-36.695-94.448c-.465-1.375-1.604-2.528-3.904-2.528h-4.128c-2.293 0-3.439 1.153-3.897 2.528l-36.447 94.454h-.923l-23.848-91.473c-.452-1.605-2.287-3.21-4.121-3.21h-21.09c-3.217 0-5.045 2.286-4.134 5.497l43.345 154.066c.452 1.834 2.28 3.21 4.114 3.21h3.676c2.286 0 3.204-1.146 3.892-2.522l40.587-103.861h1.146l41.045 103.861c.446 1.376 1.822 2.522 3.898 2.522h3.663c1.834 0 3.675-1.376 4.14-3.21l43.332-154.073c.917-3.209-.917-5.502-4.127-5.502z"/>
  <path d="m588.901 298.886h-93.326c-2.522 0-4.357 2.063-4.357 4.356v151.78c0 2.306 1.835 4.356 4.357 4.356h93.326c2.516 0 4.351-2.051 4.351-4.356v-18.797c0-2.3-1.835-4.356-4.351-4.356h-67.867v-40.122h62.192c2.293 0 4.356-1.835 4.356-4.356v-19.026c0-2.293-2.063-4.356-4.356-4.356h-62.192v-37.606h67.867c2.516 0 4.351-2.069 4.351-4.356v-18.803c0-2.295-1.835-4.358-4.351-4.358z"/>
  <path d="m710.235 394.486c19.942-8.02 33.924-25.218 33.924-46.313 0-27.287-22.472-49.287-49.976-49.287h-65.581c-2.522 0-4.35 2.057-4.35 4.344v151.793h.006c0 2.306 1.828 4.356 4.351 4.356h21.09c2.299 0 4.356-2.051 4.356-4.356v-58.46h25.452l30.485 60.753c.465.917 1.617 2.057 3.675 2.057h24.064c3.904 0 5.503-3.662 3.904-6.643l-31.4-58.244zm-18.574-22.459h-37.37v-45.626h37.37c12.146 0 22.688 10.09 22.688 22.243 0 12.835-10.542 23.383-22.688 23.383z"/>
  <g fill="#00cee2">
    <path id="c" d="m191.378 449.392c-.376-.79-.937-1.49-1.727-2.025-1.318-.892-2.802-.81-2.802-.81h-64.747c-9.503-5.904-36.466-26.274-36.466-67.415 0-33.37 17.771-53.097 29.593-62.517.007-.014.014-.02.026-.026 1.165-.923 1.936-2.344 1.936-3.948 0-.937-.268-1.815-.726-2.561v-.02l-6.797-12.841c-14.07 9.503-43.007 34.79-43.007 81.912 0 62.218 50.511 86.384 50.511 86.384h82.925l-8.7-16.108s-.019-.013-.019-.025z"/>
    <use xlink:href="#c" transform="rotate(180 165 379)"/>
    <path id="i" d="m143 335.752h-9.854v44.357h14.338v-39.631c0-2.611-2.013-4.726-4.484-4.726z"/>
    <use xlink:href="#i" transform="translate(52)"/>
    <path d="m183.168 406.575v-5.694h-34.816v5.694c0 9.427 7.79 17.09 17.401 17.09 9.612 0 17.415-7.663 17.415-17.09z"/>
  </g>
</svg>
