<svg xmlns="http://www.w3.org/2000/svg" viewBox="0 0 2311 1000">
  <path fill="#404040" d="m1240 202c-1.67-7.63-108-.27-118-.86-13.5-.86-33.8-7.61-46.5-17.8-5.69-4.53-87.2-79.6-87.2-79.6s-74.7-81.2-83.8-88c-13.5-10.1-28-17.8-46.5-16.1-37.2 3.38-83.5 20.1-113 33-55 23.7-97.6 66.5-103 77.8-8.45 16.9-11.4 25.9 3.39 45.7 24.5 33 135 125 139 127 4.23 1.69 26.2 11 34.7 11s20.3-.83 22-5.91c1.68-5.08-10.2-4.22-23.7-16.1-14.9-13.1-107-103-113-110-2.55-3.41-17.8-16.1-12.7-28.8 4.5-11.2 48.7-40.7 71.1-49.1 43.2-16.1 73.6-19.5 83.8-19.5 21.2 0 45.7 11.8 57.6 22 11.8 10.1 76.1 64.3 96.5 81.2 20.3 16.9 64.3 50.8 75.3 55 7.49 2.87 36.4 8.47 56.7 4.22 8.33-1.74 56.7-12.7 64.3-13.5 7.59-.86 44.8-4.24 43.1-11.8zm-536-63 33.3-24.1 132 145zm49-34 45.7-18.4 129 157zm62-21.2 49.9-4.24 133 156zm405 203 -60.7 14.6 47.8-62.1-92.5 22.1-67.5-10.6-250 76.7 32 60.2-138 32.2-232 106-227 127 112-47.4-11.8 22 55.8-42.3-3.39 25.4 44-50.8-8.46 37.2 45.7-52.5-13.5 42.3 59.2-62.6-15.2 49.1 60.9-66-15.2 59.2 62.6-77.8-11.8 60.9 62.6-76.2-20.3 66 69.4-88-22 76.2 67.7-86.3-27.1 74.5 74.5-86.3-27.1 79.5 77.9-89.7-23.7 79.5 99.8-108-37.2 94.8 96.5-105-30.5 89.7 98.2-115-25.4 98.2 88-117-20.3 108zm-465 50s-352 168-365 175c-12.7 7.63-182 108-201 113-18.6 4.24-43.2-.84-49.9-.84-6.78 0-60.9 4.25-80.4 6.78-19.4 2.52-49.1 16.9-55 26.2-5.92 9.3-7.62 22 1.69 38.1s50.8 33.8 50.8 33.8 41.5 25.4 50.8 37.2c9.31 11.8 0 29.6-.84 37.2-.84 7.61 3.37 45.7 13.5 53.3 10.2 7.63 19.5.83 29.6-2.55 10.2-3.39 42.3-48.2 42.3-48.2s21.2-41.5 40.6-62.6c19.5-21.1 71.1-38.9 71.1-38.9s-13.1 31.2-9.73 38c3.37 6.77 63 16.9 80 18.6 16.9 1.69 20.7-5.98 30-25 10.2-20.7 18.6-43.1 25.4-54.2 6.09-9.88 19.9-20.7 33.4-25 13.5-4.25 53.3-9.23 53.3-9.23s-47.4-15.2-122-4.22c-33 4.87-62.6 19.4-81.2 24.5s-89.7 37.2-106 54.2c-16.1 16.9-29.6 38-38.1 52.4-8.47 14.4-16.1 26.2-23.7 25.4-7.61-.84-2.53-9.33-4.23-13.5-1.68-4.24 5.94-13.6 4.23-22.9-1.69-9.3-34.7-39.8-60.1-51.6-25.4-11.9-49.1-26.2-51.6-30.5-2.55-4.2-3.39-8.44.83-13.5 4.23-5.08 35.6-11.9 53.3-14.4 17.8-2.53 60.1-6.75 68.6-3.36 8.45 3.36 10.2 6.75 8.45 13.5s-9.31 23.7-9.31 23.7 55-42.3 72.8-54.2c17.8-11.8 245-136 312-168 66.8-32.2 167-71.2 198-79.6 30.6-8.21 52-11.9 52-11.9l-36.1-36.4zm-415 349c19-15.2 73.6-22.8 73.6-22.8s-10.6 7.17-22.8 39.7c-5.48 14.5-11.8 26.6-22.8 27.9-11 1.29-44.8-2.53-44.4-9.3.42-8.47 4.94-26.3 16.5-35.6zm-3 36 25.4 3.38 14.4-48.6zm412-107c5.94 6.77-147 116-196 158-50.8 43.2-134 116-134 116s-8.45 8.49 0 13.5c8.48 5.1 95.6 29.6 95.6 29.6s104 31.3 121 26.2c16.9-5.08 66-80.4 74.5-93.1 8.47-12.7 105-164 98.2-137-6.76 27.1-60.9 143-60.9 143s-38.9 76.1-47.4 88.8c-8.47 12.7-27.9 43.2-91.4 38.9s-191-44-239-57.6c-47.4-13.5-17.8-60.1-7.62-71.1s160-126 194-147c49.1-31.3 187-115 193-108zm-303 281 37.2 10.2 186-193zm70 20 33.8 8.46 162-210zm64 19 30.5 8.46 157-227zm550-418c5.06 15.2-86.3 45.7-149 108-10.2 11.8-49.1 54.2-54.2 82.9-5.09 28.8 13.5 64.3 43.2 76.2 29.6 11.8 112 10.2 145 5.08 33-5.08 79.5-13.5 89.7-14.4 69.4-1.67 79.5 21.2 79.5 21.2s-64.3-.86-85.5 4.24c-21.2 5.06-130 29.6-175 33-43.9 3.29-126-8.47-154-29.6-27.9-21.2-25.4-47.4-21.2-61.8 16.9-61.8 58.5-108 108-149 49.1-40.6 126-71.9 135-74.4 9.29-2.56 30.4-11 38.1-1.7zm970-278c1.13-9.32-84.6-6.8-196 4.51-33.1 4.22-253 29.4-289 36.2 5.93-11.8 14.4-38.9 11.8-76.1-3.87-56.7-43-64.8-83.8-60.9-54.2 5.1-89 20.7-122 36.4-25 12-47.9 25.9-70.2 41.8-28.2-1.6-52.3 2.32-69.7 7.57-19.7 5.91-45.7 19.4-57.6 32.9-4.39 4.94-7.7 8.01-5.52 9.38 4.72 2.98 57.9-.29 64.4-.43 2.56-.06 5.38-.11 8.29-.13-28.3 26.6-69.9 67.4-69.3 70.5.84 4.25 5.07.86 5.07.86s45.4-30.8 87.8-58.3c8.86 26.9 17.8 47.3 26.5 60.2 9.08 13.4 26 30.5 44.3 40.2 15.8 8.44 49.2 17.3 54.2 17.3 11.1 2.13 16.5-.74 16.1-3.58-.39-2.82-33.7-15-45.3-20.7-11.6-5.66-25.8-15.3-36.2-28.4-7.98-10-17.7-24.4-22-46.1-2.03-9.84-2.09-32.4-2.09-32.4s30.7.85 46 4.26c16.4 3.63 31.3 10.6 37.5 14.1 6.24 3.51 17.5 14.6 17.5 14.6s-14.1 13.4-15.7 23c-4.74 18.7.04 27.4 11.5 37.4 12 9.23 26.1 11.7 39.5 4.13 5.91 6.44 8.58 16.4 16.2 23.6 7.59 9.3 17.8 11 25.4 5.94 5.09-3.39 5.51-21.2 5.51-21.2s-2.64-5.66-6.35-14c-1.69-3.84-6.43-19.8-10.6-33-6.21-19.8-8.45-26.5-20.3-43.4-16.3-23.4-44.3-41.1-88.6-54.1 29.2-12 58-20.6 93.3-22.5 33.1-1.83 57.6 6.78 64.3 21.2 6.78 14.4 3.39 38.9-1.69 52.4-4.25 11.4-12.7 19.5-16.9 30.5-4.23 11-7.05 18.1-3.38 22 5.92 6.27 63.6-11.8 74.3-14.5 13.5-3.38 58.9-11.1 90.2-16.9 48.5-9.04 123-20.8 165-27.1 41.5-6.2 203-25.1 214-27.9s15.8-6.76 13.5-9.29zm-631 87s8.36 14 9.12 19.7c-4.68 2.77-4.76 2.05-8.93 3.32-2.87-5.4-10.1-14.1-10.1-14.1l9.94-8.97zm840-63c-4.24-11-9.74-18.7-35.1-25.5-18.5-4.89-43.1-3.84-63.5-2.53-39.8 2.53-136 26-200 52.5-72.8 30.5-193 88-251 122-27.8 16.1-226 130-243 140-32.2 19.5-23.7 49.9-20.3 56.7 3.41 6.84 33.4 39.8 38.5 42.4 6.77 3.39 16.9 7.61 23.7 4.22 5.9-2.96 7.59-5.08 2.52-16.9-2.43-5.66-13.7-22.3-16.1-27.1-5.07-10.2 0-20.3 5.08-23.7 5.08-3.39 96.2-63.6 123-78.7 17.2-9.81 77.2-43 142-76.5l22 45.6 14.4-64.2c10.2-5.12 20.4-10.1 30.4-14.9l13.6 44.6 25.6-63c10.2-4.68 20.2-9.07 29.3-12.9 25.9-10.8 72.1-29.1 114-44.8l9.81 52.3 23.7-64.6c8.12-2.91 15.8-5.58 22.7-7.92l10 61.9 23.4-71.9c26.6-6.21 45.4-5.85 67.5-1.24 10.9 2.26 22 17.1 17.8 30.5-6.78 21.1-71.9 71.9-82.9 78.7-11 6.75-172 111-184 118-12.9 7.74-119 77.8-135 90.6-16.1 12.7-27.9 30.4-27.9 30.4s201-122 223-135c12.3-7.85 59.6-34.5 106-62.6l22.6 59.2 19-84.7c6.24-3.96 12.1-7.76 17.8-11.5l13.9 80.4 23.9-108c25.2-19.9 64.2-52.9 73.1-79.5 4.26-12.7 5.1-22 .89-33zm-460 614 24.6-52.7-53.5 33.9c-50.4-34.6-115-85.2-115-85.2s-89-70.2-92.2-78.7c-2.55-6.77 3.39-15.2 3.39-15.2s-49.1 1.67-53.3 5.06c-4.22 3.41-4.22 10.2-1.68 14.4 2.53 4.23 99 77.9 116 89.7 16.9 11.8 154 95.6 161 99 6.77 3.39 23.7 11.9 28.8 11.9s11-2.53 9.31-9.3c-4.67 0-14.6-4.95-27.4-12.7zm0 51s-234-65.1-290-82.9c-55.9-17.8-132-56.7-157-59.2-25.4-2.55-82.9 22.8-82.9 22.8s38.1 3.39 44 5.94c5.92 2.53 16.9 9.3 17.8 15.2.83 5.94-1.69 33-1.69 33s57.5-10.2 76.1-11.8c18.6-1.69 48.2 2.53 53.3 11.8 5.07 9.3-8.48 39.8-8.48 44 0 4.25 5.1 9.3 5.1 9.3s27.9-15.2 34.7-18.6c6.77-3.38 45.7-13.5 60.1-12.7 14.4.84 28.8 12.7 29.6 20.3.84 7.63-7.62 19.5-7.62 19.5s7.35 1.77 11.3.63c3.94-1.12 27.4-9.12 32.7-9.95 8.46-1.33 35.6-.90 47.4 0 11.8.93 110 19.4 119 18.6 9.32-.83 16.9-5.93 16.9-5.93zm300-88c-2-2.41-7.86-6.7-16.2-12.1l1.96-79.2-35.3 58.8c-4.38-2.55-8.89-5.2-13.5-7.83l.37-68.6-31.6 50.9c-27.5-15.5-52.4-29.1-60.1-33.7-19.2-11.3-162-91.4-175-84.3 15.2 10.2 223 131 281 183 8.87 8.01 12.3 20.3 4.23 33.4-16.9 22.4-53.9 33.6-106 36-3.52.16-7.56-.14-11.8-.62l4.32-59.1-40.4 49.8c-9.37-3.54-19.2-6.88-27.9-5-8.28 1.84-14.8 11-12.7 24.2 2.66 16.5 51.2 20.4 66.4 21.6 39.8 2.98 89-2.53 123-16.5 29.6-12.3 45.7-26.8 52.9-38.9 10.6-17.8 13.1-31.7-3.49-52.2z"/>
</svg>
