<svg xmlns="http://www.w3.org/2000/svg" viewBox="0 0 0.138765 0.138765" fill="#1F1A17">
  <circle cx=".0693826" cy=".0693826" r=".0693826"/>
  <circle cx=".0693826" cy=".0693826" r=".0626248" fill="#FFF"/>
  <path d="m.042411.0910338v-.0583856c-.00259457-.000166859-.00476951.00000743429-.00612751.000403104-.000386583-.000839249.0019957-.00214521.00612751-.00340408v-.011239h.00606886v.00971662c.021899-.00453905.0655581-.00476869.0657894.0330826.000162728.026723-.0471855.0226523-.0609199.0313157-.0149272.00941677-.00822398.02932-.00822398.02932s-.00902523-.0186493-.00271434-.0308094zm.00606886-.0574539v.050939c.00641662-.00434989.0174177-.00961337.0195439-.0196794.00427307-.0202279-.00859074-.0286253-.0195439-.0312596z"/>
</svg>
