<svg viewBox="-5000 -5000 10000 10000" fill="#1f1a17" xmlns="http://www.w3.org/2000/svg">
 <circle r="5000"/>
 <circle r="4500" fill="#fff"/>
 <path d="m-1944-3673h438v5233h-438z"/>
 <path d="m3234.775-589c-16.855-2727.507-3162.572-2711.247-4740.775-2384.185l-438 109.833c-297.588 90.623-469.062 184.563-441.239 245.01 97.751-28.308 254.389-40.853 441.239-28.833l438 67.236c789.336 189.926 1715.974 795.031 1408.046 2252.507-153.237 725.235-945.668 1104.496-1408.046 1417.863l-437.688 469.565v.203c-454.83 876.438 195.565 2220.447 195.565 2220.447s-483.007-1434.27 592.72-2112.938c989.68-624.276 4401.841-331.053 4390.178-2256.708z"/>
</svg>
