<?xml version="1.0" encoding="UTF-8"?>
<!DOCTYPE svg PUBLIC "-//W3C//DTD SVG 1.1//EN" "http://www.w3.org/Graphics/SVG/1.1/DTD/svg11.dtd">
<!-- Creator: CorelDRAW -->
<svg xmlns="http://www.w3.org/2000/svg" xml:space="preserve" width="0.661378in" height="0.661378in" style="shape-rendering:geometricPrecision; text-rendering:geometricPrecision; image-rendering:optimizeQuality; fill-rule:evenodd; clip-rule:evenodd"
viewBox="0 0 0.138765 0.138765"
 xmlns:xlink="http://www.w3.org/1999/xlink">
 <defs>
  <style type="text/css">
   <![CDATA[
    .fil0 {fill:#1F1A17;fill-rule:nonzero}
    .fil1 {fill:white;fill-rule:nonzero}
   ]]>
  </style>
 </defs>
 <g id="Layer_x0020_1">
  <metadata id="CorelCorpID_0Corel-Layer"/>
  <path class="fil0" d="M0.0693826 0c-0.0383188,0 -0.0693826,0.0310638 -0.0693826,0.0693826 0,0.0383197 0.0310638,0.0693826 0.0693826,0.0693826 0.0383188,0 0.0693826,-0.031063 0.0693826,-0.0693826 0,-0.0383188 -0.0310638,-0.0693826 -0.0693826,-0.0693826z"/>
  <path class="fil1" d="M0.0693826 0.132007c-0.0345868,0 -0.0626248,-0.028038 -0.0626248,-0.0626248 0,-0.0345868 0.028038,-0.0626248 0.0626248,-0.0626248 0.0345868,0 0.0626248,0.028038 0.0626248,0.0626248 0,0.0345868 -0.028038,0.0626248 -0.0626248,0.0626248z"/>
  <path class="fil0" d="M0.042411 0.0910338l0 -0.0583856c-0.00259457,-0.000166859 -0.00476951,7.43429e-006 -0.00612751,0.000403104 -0.000386583,-0.000839249 0.0019957,-0.00214521 0.00612751,-0.00340408l0 -0.011239c0,0 0.00606886,0 0.00606886,0l0 0.00971662c0.021899,-0.00453905 0.0655581,-0.00476869 0.0657894,0.0330826 0.000162728,0.026723 -0.0471855,0.0226523 -0.0609199,0.0313157 -0.0149272,0.00941677 -0.00822398,0.02932 -0.00822398,0.02932 0,0 -0.00902523,-0.0186493 -0.00271434,-0.0308094zm0.00606886 -0.0574539l0 0.050939c0.00641662,-0.00434989 0.0174177,-0.00961337 0.0195439,-0.0196794 0.00427307,-0.0202279 -0.00859074,-0.0286253 -0.0195439,-0.0312596z"/>
 </g>
</svg>
