<svg viewBox="0 0 13.8765 13.8765" fill="#1f1a17" xmlns="http://www.w3.org/2000/svg">
  <circle cx="6.93826" cy="6.93826" r="6.93826"/>
  <circle cx="6.93826" cy="6.93826" r="6.26248" fill="#fff"/>
  <path d="m4.2411 9.10338v-5.83856c-.259457-.0166859-.476951.000743429-.612751.0403104-.0386583-.0839249.19957-.214521.612751-.340408v-1.1239h.606886v.971662c2.1899-.453905 6.55581-.476869 6.57894 3.30826.0162728 2.6723-4.71855 2.26523-6.09199 3.13157-1.49272.941677-.822398 2.932-.822398 2.932s-.902523-1.86493-.271434-3.08094zm.606886-5.74539v5.0939c.641662-.434989 1.74177-.961337 1.95439-1.96794.427307-2.02279-.859074-2.86253-1.95439-3.12596z"/>
</svg>
