<svg viewBox="-100 -100 668 200" xmlns="http://www.w3.org/2000/svg" xmlns:xlink="http://www.w3.org/1999/xlink">
 <defs>
  <rect id="c" rx="70" ry="70" x="-64" y="-97" width="126" height="190" stroke-width="3"/>
  <rect id="d" rx="70" ry="70" x="-64" y="-95" width="125" height="192" stroke-width="3"/>
  <use id="w" xlink:href="#c" fill="#fff"/>
  <use id="W" xlink:href="#d" fill="#fff"/>
  <use id="g" xlink:href="#c" fill="none"/>
  <use id="r" xlink:href="#d" fill="none"/>
 </defs>
 <use xlink:href="#W" transform="rotate(135)"/>
 <use xlink:href="#w" transform="rotate(-10)"/>
 <use xlink:href="#w" transform="rotate(27)"/>
 <use xlink:href="#W" transform="rotate(63)"/>
 <use xlink:href="#W" transform="rotate(99)"/>
 <use xlink:href="#r" stroke="#3a8495" transform="rotate(135)"/>
 <use xlink:href="#g" stroke="#ec9987" transform="rotate(-9)"/>
 <use xlink:href="#g" stroke="#3a8495" transform="rotate(27)"/>
 <use xlink:href="#r" stroke="#e57860" transform="rotate(63)"/>
 <use xlink:href="#r" stroke="#629daa" transform="rotate(99)"/>
 <g fill="#333433">
  <path d="m186.49 34.47c-5.24 0-10.25-.89-15.03-2.67-4.79-1.77-9.22-4.51-13.29-8.19l7.18-8.54c3.29 2.85 6.62 5.03 9.99 6.55 3.36 1.52 7.18 2.28 11.44 2.28 3.69 0 6.61-.78 8.78-2.33s3.25-3.62 3.25-6.21v-.19c0-1.23-.21-2.31-.63-3.25s-1.2-1.83-2.33-2.67c-1.14-.84-2.7-1.61-4.67-2.33-1.98-.71-4.56-1.42-7.73-2.13-3.63-.84-6.86-1.79-9.68-2.86s-5.18-2.36-7.1-3.88c-1.91-1.52-3.37-3.38-4.37-5.58-1.01-2.2-1.51-4.85-1.51-7.95v-.2c0-2.91.58-5.57 1.73-8 1.15-2.42 2.74-4.49 4.76-6.21 2.02-1.71 4.45-3.05 7.29-4.02s5.94-1.46 9.3-1.46c4.98 0 9.46.73 13.44 2.19 3.98 1.45 7.71 3.57 11.2 6.35l-6.4 9.02c-3.1-2.26-6.18-3.99-9.21-5.19-3.05-1.19-6.12-1.79-9.22-1.79-3.49 0-6.21.77-8.15 2.33-1.94 1.55-2.91 3.46-2.91 5.72v.19c0 1.3.23 2.44.68 3.45 .46 1 1.28 1.9 2.48 2.71s2.85 1.57 4.96 2.28 4.78 1.46 8.02 2.23c3.57.91 6.73 1.91 9.49 3.01 2.75 1.1 5.04 2.44 6.85 4.02 1.82 1.59 3.19 3.43 4.13 5.53 .94 2.11 1.41 4.55 1.41 7.33v.19c0 3.17-.59 6.01-1.78 8.54-1.18 2.52-2.84 4.65-4.95 6.4-2.12 1.74-4.66 3.07-7.63 3.98-2.97.9-6.23 1.35-9.79 1.35"/>
  <path d="m237.32-34.4h11.83v67.9h-11.83"/>
  <path d="m316.04 11.38h-7.64l-17.61-26.38v48.5h-11.83v-67.9h12.7l20.67 32.11 20.66-32.11h12.7v67.9h-11.83v-48.69"/>
  <path d="m374.65-34.4h26.77c3.95 0 7.52.53 10.72 1.6s5.92 2.61 8.15 4.61 3.94 4.4 5.14 7.18 1.8 5.88 1.8 9.31v.19c0 3.82-.72 7.17-2.14 10.04-1.43 2.88-3.37 5.29-5.84 7.23-2.46 1.94-5.34 3.41-8.65 4.41-3.31 1.01-6.84 1.51-10.6 1.51h-13.51v21.82h-11.84zm25.76 35.31c4.54 0 8.12-1.14 10.75-3.41s3.94-5.19 3.94-8.76v-.2c0-4.02-1.33-7.06-3.99-9.1-2.66-2.05-6.23-3.07-10.7-3.07h-13.92v24.54"/>
  <path d="m446.95-34.4h11.83v57.13h35.7v10.77h-47.53"/>
  <path d="m517.49-34.4H568v10.77h-38.67V-6.17h37.35v10.77h-37.37V22.74H568V33.5H517.49"/>
 </g>
</svg>
