<svg viewBox="-100 -100 666 200" xmlns="http://www.w3.org/2000/svg" xmlns:xlink="http://www.w3.org/1999/xlink">
 <defs>
  <rect id="c" rx="70" ry="70" x="-64" y="-97" width="126" height="190" stroke-width="3"/>
  <rect id="d" rx="70" ry="70" x="-64" y="-95" width="125" height="192" stroke-width="3"/>
  <use id="w" xlink:href="#c" fill="#fff"/>
  <use id="W" xlink:href="#d" fill="#fff"/>
  <use id="g" xlink:href="#c" fill="none"/>
  <use id="r" xlink:href="#d" fill="none"/>
 </defs>
 <use xlink:href="#W" transform="rotate(135)"/>
 <use xlink:href="#w" transform="rotate(-10)"/>
 <use xlink:href="#w" transform="rotate(27)"/>
 <use xlink:href="#W" transform="rotate(63)"/>
 <use xlink:href="#W" transform="rotate(99)"/>
 <use xlink:href="#r" stroke="#3a8495" transform="rotate(135)"/>
 <use xlink:href="#g" stroke="#ec9987" transform="rotate(-9)"/>
 <use xlink:href="#g" stroke="#3a8495" transform="rotate(27)"/>
 <use xlink:href="#r" stroke="#e57860" transform="rotate(63)"/>
 <use xlink:href="#r" stroke="#629daa" transform="rotate(99)"/>
 <g fill="#333433" transform="translate(0 -131)translate(-148.29871301606397 -148.29871301606397)">
  <path d="M334.791,313.77c-5.238,0-10.25-0.89-15.035-2.667c-4.787-1.778-9.215-4.511-13.289-8.196l7.178-8.536c3.298,2.846,6.628,5.028,9.991,6.547c3.362,1.521,7.178,2.28,11.446,2.28c3.686,0,6.611-0.776,8.779-2.328c2.166-1.553,3.25-3.621,3.25-6.208v-0.194c0-1.228-0.211-2.312-0.632-3.249s-1.2-1.827-2.334-2.668c-1.135-0.84-2.692-1.615-4.668-2.328c-1.978-0.711-4.555-1.422-7.731-2.134c-3.631-0.84-6.856-1.795-9.676-2.861c-2.82-1.067-5.186-2.36-7.099-3.88c-1.913-1.519-3.372-3.379-4.377-5.578c-1.005-2.197-1.506-4.85-1.506-7.954v-0.193c0-2.91,0.576-5.578,1.73-8.003c1.155-2.425,2.742-4.494,4.762-6.208c2.021-1.713,4.45-3.056,7.29-4.025c2.839-0.97,5.94-1.455,9.303-1.455c4.979,0,9.458,0.728,13.435,2.183c3.977,1.455,7.711,3.574,11.203,6.354l-6.402,9.021c-3.104-2.263-6.176-3.991-9.215-5.189c-3.041-1.195-6.111-1.794-9.215-1.794c-3.492,0-6.208,0.775-8.148,2.328c-1.94,1.552-2.91,3.46-2.91,5.723v0.194c0,1.294,0.226,2.441,0.68,3.443c0.453,1.003,1.279,1.908,2.479,2.716c1.199,0.81,2.853,1.568,4.959,2.279c2.106,0.713,4.782,1.455,8.023,2.231c3.565,0.906,6.727,1.908,9.482,3.007c2.755,1.101,5.04,2.441,6.855,4.025c1.816,1.586,3.193,3.429,4.133,5.529c0.939,2.102,1.411,4.544,1.411,7.323v0.194c0,3.169-0.594,6.014-1.781,8.536c-1.187,2.521-2.839,4.655-4.955,6.401c-2.116,1.746-4.659,3.072-7.628,3.978C341.609,313.316,338.346,313.77,334.791,313.77z"/>
  <path d="M385.619,244.899h11.834v67.9h-11.834V244.899z"/>
  <path d="m464.338 290.674h-7.638l -17.61 -26.374 v 48.5 h -11.834 v -67.9 h 12.707 l 20.661 32.107 l 20.661 -32.107 h 12.707 v 67.9 h -11.834 v -48.694z"/>
  <path d="M522.952,244.899h26.771c3.944,0,7.518,0.534,10.719,1.601c3.201,1.067,5.918,2.604,8.148,4.607c2.23,2.006,3.943,4.398,5.141,7.179c1.196,2.781,1.795,5.885,1.795,9.312v0.194c0,3.816-0.714,7.163-2.141,10.039c-1.426,2.879-3.371,5.287-5.834,7.227c-2.463,1.94-5.346,3.412-8.652,4.414c-3.307,1.003-6.84,1.503-10.599,1.503h-13.515V312.8h-11.834V244.899z M548.704,280.208c4.541,0,8.127-1.136,10.755-3.409c2.628-2.271,3.942-5.193,3.942-8.765v-0.194c0-4.025-1.331-7.06-3.99-9.105c-2.662-2.045-6.23-3.067-10.707-3.067h-13.918v24.541H548.704z"/>
  <path d="M595.248,244.899h11.834v57.134h35.696V312.8h-47.53V244.899z"/>
  <path d="M665.79,244.899h50.73v10.768h-38.896v17.46h37.353l0.021,10.767h-37.374v18.14h38.896V312.8h-50.73V244.899z"/>
 </g>
</svg>
