<svg xmlns="http://www.w3.org/2000/svg" version="1.1" viewBox="0 0 707.6 550.1">
 <defs>
  <linearGradient id="c" y2="275" gradientUnits="userSpaceOnUse" x2="64.78" y1="769.4" x1="114.5">
   <stop stop-color="#193b5e"/>
   <stop stop-color="#1873bb" offset="1"/>
  </linearGradient>
  <linearGradient id="b" y2="180.3" gradientUnits="userSpaceOnUse" x2="414.1" y1="789.3" x1="224.1">
   <stop stop-color="#0f6098"/>
   <stop stop-color="#32a2ea" offset="1"/>
  </linearGradient>
  <linearGradient id="a" y2="153.5" gradientUnits="userSpaceOnUse" x2="489.6" y1="818.5" x1="689.3">
   <stop stop-color="#128fe1"/>
   <stop stop-color="#68c5fa" offset="1"/>
  </linearGradient>
 </defs>
 <g transform="translate(-22.46 -228.3)">
  <g transform="matrix(.8288 0 0 .8288 74.51 98.92)">
   <path d="m565.3 818.9c-0.5538-0.7199-3.113-17.28-5.687-36.81-22.86-173.4-56.81-334.9-93.57-445-30.67-91.89-62.35-148.5-97.93-174.8-4.576-3.393-7.553-6.169-6.616-6.169 2.938 0 108.6 29.43 198 55.16 19.25 5.539 37.25 11.2 40 12.58 17.68 8.861 36.29 28.83 53.25 57.15 45.73 76.35 91.1 232.4 126.7 435.6 8.6 49.11 12.6 76.88 11.27 78.2-0.7649 0.7619-40.86 5.444-109.2 12.75-59.4 6.351-109.6 11.8-111.6 12.1-2.344 0.3647-3.926 0.1052-4.586-0.752z" fill="url(#a)"/>
   <path d="m85.58 800.2c-0.3776-0.611 1.983-2.387 5.599-4.212 23.55-11.89 44.51-49.49 64.32-115.4 12.23-40.67 22-82.03 43-182 20.85-99.23 30.34-140.3 41.41-179 19.18-67.1 37.43-106.5 58.94-127.3 18.02-17.39 39.31-19.96 59.14-7.15 35.31 22.82 73.19 102.1 102.2 213.8l5.03 19.4-2.186 12.6c-6.555 37.77-18.98 95.85-29.54 138.1-29.33 117.3-61.1 191-90.62 210-3.118 2.015-7.618 4.182-10 4.816-4.013 1.067-39.11 3.537-179.3 12.62-29.7 1.924-56.99 3.772-60.64 4.105-4.225 0.3862-6.873 0.2228-7.288-0.4497z" fill="url(#b)"/>
   <path d="m68.51 775.2c-9.63-2.6-21.29-12.5-30.11-25.8-6.8-10.2-16.72-30.8-23.23-48.3-28.84-77.6-56.22-226.5-73.62-400.4-4.922-49.17-4.861-48.36-3.669-49.1 1.489-0.9201 236.3 43.3 237.9 44.78 1.35 1.313 4.131 19.74 9.679 64.14 2.948 23.59 4.418 36.65 7.934 70.5 0.2 1.925-2.246 19.02-5.435 38-28.05 166.9-57.62 263.4-90.28 294.8-9.62 9.232-20.71 13.54-29.16 11.33z" fill="url(#c)"/>
  </g>
 </g>
</svg>
